<ttFont>
          <CharString index="0">
            rmoveto
            19 hlineto
            11 9 5 9 8 hvcurveto
            51 73 38 -73 rlineto
            -9 5 7 36 callsubr
            9 1 hvcurveto
            5 -2 6 -3 6 vhcurveto
            -44 88 rlineto
            14 -8 -11 8 -20 hhcurveto
            43 callsubr
            -8 -14 -10 hvcurveto
            -62 -88 -3 -6 -5 -8 -1 -5 rlinecurve
            -7 6 -6 12 vhcurveto
            return
          </CharString>
          <CharString index="1">
            rmoveto
            33 14 9 13 -32 callsubr
            51 rlineto
            14 1 -13 8 -30 hhcurveto
            -33 -14 -9 -13 -87 callsubr
            12 -8 31 hhcurveto
            return
          </CharString>
          <CharString index="2">
            -107 callgsubr
            endchar
          </CharString>
          <CharString index="3">
            22 callgsubr
            4 hhcurveto
            6 5 4 10 6 hvcurveto
            20 13 9 7 14 35 50 -40 45 hhcurveto
            36 26 18 50 20 hvcurveto
            3 6 1 4 4 vvcurveto
            6 -3 2 -9 -11 callsubr
            -4 -3 1 -4 hhcurveto
            -6 -7 -4 -11 -6 hvcurveto
            -20 -13 -10 -6 -15 -35 -50 40 -42 hhcurveto
            -37 -26 -18 -51 -20 hvcurveto
            -2 -5 -1 -4 -4 vvcurveto
            -5 3 -4 7 -3 vhcurveto
            return
          </CharString>
          <CharString index="4">
            rmoveto
            15 hlineto
            20 13 7 15 10 hvcurveto
            63 88 rlineto
            4 6 4 6 5 vvcurveto
            9 1 -6 6 -12 hhcurveto
            -20 hlineto
            -11 -9 -5 -10 -7 hvcurveto
            -52 -72 -37 72 rlineto
            10 -6 -7 5 -11 hhcurveto
            -19 hlineto
            -12 -8 -6 -8 -41 callsubr
            3 -8 2 -5 vhcurveto
            43 -88 rlineto
            -15 8 13 -7 19 hhcurveto
            return
          </CharString>
          <CharString index="5">
            rmoveto
            162 101 115 243 25 hvcurveto
            243 26 -92 111 -148 45 callsubr
            -243 -25 90 -115 148 hhcurveto
            9 76 rmoveto
            -103 -46 89 193 20 hvcurveto
            193 20 64 85 103 hhcurveto
            102 47 -85 -193 -20 hvcurveto
            -193 -20 -65 -89 -102 hhcurveto
            return
          </CharString>
          <CharString index="6">
            rmoveto
            125 75 92 173 18 hvcurveto
            174 18 -56 96 -124 hhcurveto
            -125 -78 -97 -173 -18 hvcurveto
            -172 -18 57 -93 126 hhcurveto
            5 72 rmoveto
            -71 -24 62 133 14 hvcurveto
            134 14 38 62 71 hhcurveto
            71 26 -63 -133 -14 hvcurveto
            -133 -14 -40 -62 -71 hhcurveto
            return
          </CharString>
          <CharString index="7">
            hlineto
            -26 -13 42 callsubr
            -488 rlineto
            -71 -8 -60 -51 -78 hhcurveto
            -78 -51 50 72 8 hvcurveto
            51 488 -81 callgsubr
            -51 -485 rlineto
            -126 -13 72 -75 144 hhcurveto
            return
          </CharString>
          <CharString index="8">
            rmoveto
            -55 callgsubr
            9 vlineto
            -3 17 22 -3 28 hhcurveto
            127 97 60 123 51 -33 82 -107 -164 -74 -151 -184 -173 106 -27 83 35 66 15 33 30 hvcurveto
            13 15 4 20 17 vvcurveto
            11 -5 10 -9 vhcurveto
            -94 342 rmoveto
            40 23 -31 -37 -81 -79 -23 -68 hvcurveto
            -53 hlineto
            93 12 37 79 88 hhcurveto
            return
          </CharString>
          <CharString index="9">
            rmoveto
            -15 callsubr
            -16 -11 11 46 5 hvcurveto
            13 126 14 125 13 126 rrcurveto
            8 callsubr
            -14 -6 -16 -2 hvcurveto
            -2 -18 -174 -123 -12 hvcurveto
            -3 -32 -2 -32 -3 -32 rrcurveto
            -103 -9 52 -10 37 hhcurveto
            return
          </CharString>
          <CharString index="10">
            rmoveto
            16 5 3 7 10 -11 21 -37 80 hvcurveto
            19 -10 -19 7 -28 hhcurveto
            -28 -14 -3 -10 -11 7 -9 72 -96 hvcurveto
            -12 8 15 -6 24 hhcurveto
            return
          </CharString>
          <CharString index="11">
            rmoveto
            -12 hlineto
            -19 -16 -4 -12 -4 hvcurveto
            -105 -281 -10 -26 -7 -29 -9 -25 rlinecurve
            -6 hlineto
            -3 26 -4 27 -4 27 -42 281 rcurveline
            12 -2 -13 4 -19 hhcurveto
            -14 hlineto
            -27 -13 -6 -11 -1 hvcurveto
            -1 -4 1 -5 2 -9 84 -425 rcurveline
            2 -9 5 -3 7 -1 -95 -227 rcurveline
            -5 -13 -1 -2 -2 vvcurveto
            -10 -1 9 -6 22 hhcurveto
            21 hlineto
            20 16 6 15 7 hvcurveto
            267 677 4 10 1 4 1 4 rlinecurve
            11 1 -11 6 -26 hhcurveto
            return
          </CharString>
          <CharString index="12">
            -94 callsubr
            endchar
          </CharString>
          <CharString index="13">
            -100 callgsubr
            -94 -86 callsubr
            return
          </CharString>
          <CharString index="14">
            rmoveto
            35 hlineto
            18 16 4 12 4 hvcurveto
            97 295 18 79 rlineto
            4 hlineto
            -27 1 -27 1 -25 vhcurveto
            34 -295 -4 callgsubr
            34 hlineto
            20 15 4 12 3 hvcurveto
            157 477 2 6 1 7 1 4 rlinecurve
            10 1 -11 7 -27 hhcurveto
            -27 -17 -4 -12 -4 hvcurveto
            -94 -319 -9 -29 -7 -34 -8 -32 rlinecurve
            -5 hlineto
            -1 31 -2 25 -2 40 -34 317 rcurveline
            13 -2 -12 4 -20 hhcurveto
            -19 hlineto
            -19 -15 -4 -13 -3 hvcurveto
            -99 -317 -9 -30 -9 -36 -8 -31 rlinecurve
            -5 hlineto
            -1 32 -2 38 -2 26 -27 319 rcurveline
            12 -1 -15 4 -28 hhcurveto
            -29 -13 -7 -10 -1 hvcurveto
            -1 -4 1 -10 1 -6 56 -474 rcurveline
            19 callsubr
          </CharString>
          <CharString index="15">
            hlineto
            -27 26 callgsubr
            return
          </CharString>
          <CharString index="16">
            -82 callgsubr
            -22 -15 -13 -22 -14 -13 6 8 -13 vhcurveto
            20 -32 -38 17 -57 hhcurveto
            -159 -101 -111 -243 -26 hvcurveto
            -243 -25 90 -115 148 46 callgsubr
            13 124 -17 90 -40 58 rrcurveto
            65 2 29 37 51 vvcurveto
            -142 -362 rmoveto
            -193 -20 -65 -89 -102 hhcurveto
            -103 -46 89 193 20 hvcurveto
            193 20 64 85 103 hhcurveto
            102 47 -85 -193 -20 hvcurveto
            return
          </CharString>
          <CharString index="17">
            -23 callsubr
            294 208 353 rlineto
            5 7 3 6 5 vvcurveto
            1 11 -10 5 -27 1 rrcurveto
            43 callsubr
            -2 -12 -7 hvcurveto
            -161 -284 -99 283 rlineto
            13 -5 -12 2 -20 hhcurveto
            -15 hlineto
            -30 -9 -6 -11 -41 callsubr
            2 -6 3 -7 vhcurveto
            134 -350 -32 -297 -66 callsubr
            return
          </CharString>
          <CharString index="18">
            29 -20 45 -23 -4 -4 -1 -3 -4 vhcurveto
            -24 -16 rlineto
            -6 -4 -3 -6 -6 vvcurveto
            2 -12 25 -20 -30 vvcurveto
            return
          </CharString>
          <CharString index="19">
            rmoveto
            22 callgsubr
            3 hhcurveto
            6 4 4 10 6 hvcurveto
            20 11 9 7 12 32 46 -40 41 hhcurveto
            32 24 18 50 18 hvcurveto
            3 6 1 4 4 vvcurveto
            6 -3 2 -8 4 vhcurveto
            -6 3 rlineto
            2 -4 -3 1 -3 hhcurveto
            -6 -6 -4 -11 -6 hvcurveto
            -20 -11 -10 -6 -13 -32 -45 40 -39 12 callgsubr
            -1 -4 -4 vvcurveto
            -5 3 -4 6 -3 vhcurveto
            return
          </CharString>
          <CharString index="20">
            -41 callsubr
            -51 -17 callgsubr
            return
          </CharString>
          <CharString index="21">
            -592 -107 callgsubr
            return
          </CharString>
          <CharString index="22">
            -23 callsubr
            288 rlineto
            63 hlineto
            58 22 -21 -77 16 hvcurveto
            40 -196 rlineto
            -10 2 14 -6 19 hhcurveto
            17 hlineto
            27 13 6 10 1 hvcurveto
            3 0 5 -2 6 vhcurveto
            -42 197 -15 65 -13 46 -28 14 rlinecurve
            1 4 57 28 43 55 9 86 rlinecurve
            126 14 -60 51 -130 hhcurveto
            -148 -18 callgsubr
            386 rmoveto
            25 240 rlineto
            95 hlineto
            56 33 -36 -81 -8 hvcurveto
            -66 -7 -45 -57 -48 hhcurveto
            return
          </CharString>
          <CharString index="23">
            rmoveto
            42 69 21 111 12 hvcurveto
            61 583 rlineto
            -59 callsubr
            -60 -575 rlineto
            -55 -6 -19 -13 -20 -24 -5 5 -7 hhcurveto
            -14 -11 -39 -8 -1 hvcurveto
            -27 -2 43 -3 26 hhcurveto
            endchar
          </CharString>
          <CharString index="24">
            rmoveto
            54 80 28 23 2 hvcurveto
            14 2 -15 37 -14 hhcurveto
            -2 -6 -5 -3 -6 hvcurveto
            -10 -18 -26 -12 -42 hhcurveto
            -88 -26 60 140 14 hvcurveto
            139 15 47 52 77 hhcurveto
            39 26 -16 -8 13 hvcurveto
            -2 5 3 -2 3 hhcurveto
            11 24 38 16 1 hvcurveto
            24 3 -63 22 -60 hhcurveto
            -118 -95 -56 -209 -22 hvcurveto
            -193 -20 62 -77 140 hhcurveto
            endchar
          </CharString>
          <CharString index="25">
            rmoveto
            76 33 -41 10 hhcurveto
            14 26 41 17 2 hvcurveto
            27 3 -81 35 -76 hhcurveto
            -188 -85 -113 -249 -27 hvcurveto
            -238 -25 91 -112 151 hhcurveto
            79 104 16 56 6 hvcurveto
            30 286 rlineto
            21 2 -8 9 -18 hhcurveto
            -148 41 callgsubr
            -1 -16 rlineto
            -21 -3 5 -9 14 hhcurveto
            85 hlineto
            -23 -223 rlineto
            -8 -23 -31 -5 -36 hhcurveto
            -124 -26 130 153 16 hvcurveto
            172 18 56 102 125 hhcurveto
            return
          </CharString>
          <CharString index="26">
            hlineto
            -27 -42 callsubr
            return
          </CharString>
          <CharString index="27">
            -583 -105 callsubr
          </CharString>
          <CharString index="28">
            585 -100 callgsubr
            return
          </CharString>
          <CharString index="29">
            rmoveto
            27 57 60 96 17 -12 11 -23 hvcurveto
            -10 hlineto
            -26 -12 -13 -19 hvcurveto
            -76 -29 -38 -23 vvcurveto
            -12 17 -3 11 vhcurveto
            return
          </CharString>
          <CharString index="30">
            rlineto
            14 1 -10 8 -26 hhcurveto
            -15 -92 callsubr
            -70 -660 -66 callsubr
            return
          </CharString>
          <CharString index="31">
            rmoveto
            -3 17 22 -3 28 hhcurveto
            127 97 60 123 51 -33 82 -107 -164 -74 -151 -184 -173 106 -27 83 35 66 15 33 30 hvcurveto
            13 15 4 20 17 vvcurveto
            11 -5 10 -9 vhcurveto
            -55 callgsubr
            142 247 -32 callgsubr
          </CharString>
          <CharString index="32">
            rmoveto
            67 60 40 79 9 hvcurveto
            6 65 -35 35 -33 9 rrcurveto
            2 vlineto
            32 13 32 24 5 47 rrcurveto
            63 6 -39 36 -69 hhcurveto
            -33 -58 -13 -18 -2 hvcurveto
            -8 10 -22 7 vhcurveto
            8 20 19 41 hhcurveto
            53 9 -33 -23 -2 hvcurveto
            -27 -3 -22 -49 -57 hhcurveto
            -21 hlineto
            -8 -4 -5 -12 -1 hvcurveto
            -1 -6 rlineto
            -13 -1 3 -5 8 hhcurveto
            23 hlineto
            49 33 -17 -58 -7 hvcurveto
            -65 -7 -48 -17 -33 -43 -21 21 -10 hhcurveto
            -6 -16 -18 -11 -1 hvcurveto
            -15 -2 47 -18 55 hhcurveto
            return
          </CharString>
          <CharString index="33">
            rmoveto
            -65 callgsubr
            -7 -6 -5 -19 hhcurveto
            -20 -16 11 46 5 hvcurveto
            64 607 -60 callsubr
            -65 -615 rlineto
            -102 -11 63 -19 41 hhcurveto
            return
          </CharString>
          <CharString index="34">
            16 hlineto
            18 15 4 12 5 hvcurveto
            59 164 rlineto
            218 hlineto
            return
          </CharString>
          <CharString index="35">
            rmoveto
            4 hlineto
            28 13 16 callgsubr
            15 8 39 46 40 30 6 -11 12 hhcurveto
            12 12 35 19 2 hvcurveto
            22 2 -15 17 -35 hhcurveto
            -38 -39 -27 -48 -36 hvcurveto
            26 -3 -1 42 -24 hhcurveto
            -13 -41 -4 -19 -2 hvcurveto
            -1 -5 8 -39 -8 -82 -38 -353 rcurveline
            19 callgsubr
            return
          </CharString>
          <CharString index="36">
            -102 callgsubr
            24 -60 callgsubr
          </CharString>
          <CharString index="37">
            14 1 -55 callsubr
            return
          </CharString>
          <CharString index="38">
            -48 callsubr
            2 23 7 61 vhcurveto
            return
          </CharString>
          <CharString index="39">
            rmoveto
            40 31 10 44 13 -5 10 -8 hvcurveto
            -5 callgsubr
            44 hlineto
            38 7 49 4 14 -4 5 -12 hvcurveto
            -65 hlineto
            11 105 rlineto
            8 callsubr
            -13 -6 -16 -2 hvcurveto
            -12 -105 rlineto
            -36 hlineto
            -24 -1 -34 -11 -16 3 -11 14 hvcurveto
            36 hlineto
            -23 -221 -10 -98 -26 vvcurveto
            -87 66 -25 41 vhcurveto
            return
          </CharString>
          <CharString index="40">
            168 hlineto
            148 113 90 260 27 hvcurveto
            259 27 -93 91 -148 hhcurveto
            -168 2 callgsubr
            -68 -640 1 callsubr
            72 76 rmoveto
            58 548 rlineto
            102 hlineto
            94 59 -75 -199 -21 hvcurveto
            -200 -21 -75 -74 -94 hhcurveto
            return
          </CharString>
          <CharString index="41">
            rlineto
            -14 -1 -64 callgsubr
            return
          </CharString>
          <CharString index="42">
            83 -2 -99 callgsubr
            return
          </CharString>
          <CharString index="43">
            -7 -9 -5 -13 hhcurveto
            return
          </CharString>
          <CharString index="44">
            rmoveto
            41 24 16 40 11 -3 10 -7 hvcurveto
            -40 callsubr
            9 30 1 hvcurveto
            17 22 205 5 43 vhcurveto
            112 12 -57 44 -67 hhcurveto
            -52 -46 -28 -39 -31 hvcurveto
            28 268 13 callsubr
            10 -7 callgsubr
            38 366 rlineto
            23 10 40 47 51 hhcurveto
            48 19 -34 -57 -6 hvcurveto
            -20 -186 rlineto
            -5 -53 -2 -21 -13 vvcurveto
            -79 50 -16 34 vhcurveto
            return
          </CharString>
          <CharString index="45">
            rmoveto
            126 59 85 126 13 hvcurveto
            50 475 rlineto
            14 1 -11 5 callgsubr
            -485 rlineto
            -86 -9 -32 -37 -67 -26 -22 9 -8 hhcurveto
            -13 -14 -42 -13 -2 hvcurveto
            -22 -2 53 -10 36 hhcurveto
            endchar
          </CharString>
          <CharString index="46">
            849 rmoveto
            16 7 3 7 9 -7 19 -31 73 hvcurveto
            19 -8 -22 7 -22 hhcurveto
            -25 -8 -3 -10 -10 7 -8 57 -88 hvcurveto
            -12 9 12 -6 15 hhcurveto
            -223 -59 callgsubr
            return
          </CharString>
          <CharString index="47">
            rlineto
            14 1 -69 callgsubr
            -1 hvcurveto
            return
          </CharString>
          <CharString index="48">
            14 2 -69 callgsubr
            -2 hvcurveto
            return
          </CharString>
          <CharString index="49">
            hhcurveto
            -65 callgsubr
            return
          </CharString>
          <CharString index="50">
            rmoveto
            -33 -14 -9 -13 -87 callsubr
            12 -8 31 hhcurveto
            33 14 9 13 -32 callsubr
            51 rlineto
            14 1 -13 8 -30 hhcurveto
            endchar
          </CharString>
          <CharString index="51">
            vvcurveto
            -25 9 -63 83 24 23 6 13 19 vhcurveto
            9 6 4 9 12 vvcurveto
            15 -7 9 -13 vhcurveto
            return
          </CharString>
          <CharString index="52">
            -10 -30 callsubr
            return
          </CharString>
          <CharString index="53">
            rmoveto
            5 10 13 31 hhcurveto
            20 17 -9 -18 hvcurveto
            -50 -62 -13 -29 vvcurveto
            -9 24 -8 9 -15 callgsubr
            vhcurveto
            return
          </CharString>
          <CharString index="54">
            -29 callsubr
            13 hhcurveto
            return
          </CharString>
          <CharString index="55">
            12 -50 callsubr
            return
          </CharString>
          <CharString index="56">
            18 -7 callgsubr
            7 66 -70 callgsubr
            -18 -92 callsubr
            -7 -66 -42 callgsubr
            return
          </CharString>
          <CharString index="57">
            8 -22 callgsubr
            return
          </CharString>
          <CharString index="58">
            hmoveto
            -88 callgsubr
            return
          </CharString>
          <CharString index="59">
            -46 callsubr
            33 1 hvcurveto
            7 return
          </CharString>
          <CharString index="60">
            187 381 rmoveto
            57 70 27 134 14 hvcurveto
            135 15 -64 29 -58 hhcurveto
            -60 -68 -29 -135 -15 hvcurveto
            -134 -14 66 -27 57 hhcurveto
            -34 -388 rmoveto
            16 hlineto
            16 11 5 14 8 hvcurveto
            365 675 1 4 2 3 1 3 rlinecurve
            5 -5 4 -12 vhcurveto
            -15 hlineto
            -16 -13 -5 -14 -6 hvcurveto
            -364 -671 rlineto
            -5 -8 -1 -3 -3 vvcurveto
            -5 -1 7 -4 11 hhcurveto
            40 444 rmoveto
            -53 0 59 46 4 hvcurveto
            46 5 13 63 54 hhcurveto
            54 -1 -63 -46 -5 hvcurveto
            -46 -4 -15 -59 -52 hhcurveto
            291 -442 rmoveto
            57 71 27 134 14 hvcurveto
            135 14 -65 29 -57 hhcurveto
            -60 -68 -29 -135 -14 hvcurveto
            -134 -14 65 -27 57 hhcurveto
            return
          </CharString>
          <CharString index="61">
            -40 callsubr
            8 return
          </CharString>
          <CharString index="62">
            27 hmoveto
            193 32 callgsubr
            4 vlineto
            1 10 0 6 -7 3 -74 28 -30 94 19 177 rrcurveto
            184 19 65 94 103 hhcurveto
            103 45 -94 -184 -19 hvcurveto
            -19 -177 -50 -95 -80 -27 -7 -3 -2 -6 -1 -10 rrcurveto
            -4 vlineto
            -21 -3 6 -9 14 hhcurveto
            192 hlineto
            14 5 9 21 3 hvcurveto
            1 8 16 callsubr
            -21 -42 -3 -1 -11 hvcurveto
            60 62 36 96 14 130 rrcurveto
            234 24 -76 120 -170 hhcurveto
            -154 -101 -120 -234 -24 hvcurveto
            -14 -130 16 -96 45 -62 rrcurveto
            1 -11 -40 3 -21 hhcurveto
            -13 -7 10 callsubr
            -8 rlineto
            -21 -3 6 -9 13 hhcurveto
            endchar
          </CharString>
          <CharString index="63">
            rmoveto
            14 hlineto
            17 13 5 11 5 hvcurveto
            80 164 rlineto
            216 hlineto
            7 -149 rlineto
            -20 9 -9 17 vhcurveto
            243 32 callgsubr
            1 16 rlineto
            21 3 -5 9 -13 hhcurveto
            -192 hlineto
            -13 244 rlineto
            206 hlineto
            13 7 -72 callgsubr
            -5 9 -13 hhcurveto
            -218 hlineto
            -11 228 rlineto
            256 hlineto
            13 7 -72 callgsubr
            -5 9 -13 hhcurveto
            -342 hlineto
            -17 -11 -8 -19 -10 hvcurveto
            -323 -642 -4 -6 -1 -6 -1 -4 rlinecurve
            -11 -1 10 -6 27 hhcurveto
            169 255 rmoveto
            136 273 25 58 rlineto
            2 hlineto
            -4 -58 12 -273 rlineto
            endchar
          </CharString>
          <CharString index="64">
            -21 181 576 -107 callsubr
            31 -582 -101 callsubr
            return
          </CharString>
          <CharString index="65">
            -12 -8 -14 return
          </CharString>
          <CharString index="66">
            -1 hvcurveto
            -5 return
          </CharString>
          <CharString index="67">
            -64 callsubr
            -14 -10 return
          </CharString>
          <CharString index="68">
            rmoveto
            -59 -22 74 124 13 hvcurveto
            124 13 39 66 66 hhcurveto
            32 27 -15 -30 20 hvcurveto
            -29 -274 rlineto
            -44 -31 -36 -25 -33 hhcurveto
            return
          </CharString>
          <CharString index="69">
            -64 callsubr
            -16 return
          </CharString>
          <CharString index="70">
            79 321 700 rmoveto
            -168 2 callgsubr
            -29 -274 rlineto
            -49 hlineto
            -25 0 -31 -23 -15 5 -7 12 hvcurveto
            49 hlineto
            -31 -290 1 callsubr
            168 hlineto
            148 113 90 260 27 hvcurveto
            259 27 -93 91 -148 hhcurveto
            122 -350 rmoveto
            -200 -21 -75 -74 -94 hhcurveto
            -102 hlineto
            26 244 rlineto
            110 hlineto
            25 0 31 23 15 -5 7 -12 hvcurveto
            -110 -6 callgsubr
            102 hlineto
            94 59 -75 -199 -21 hvcurveto
            endchar
          </CharString>
          <CharString index="71">
            21 2 hvcurveto
            return
          </CharString>
          <CharString index="72">
            12 90 -2 rmoveto
            13 hlineto
            27 11 callsubr
            33 313 rlineto
            3 hlineto
            195 -322 rlineto
            -13 8 19 0 20 hhcurveto
            11 hlineto
            28 12 3 11 1 hvcurveto
            1 4 -1 4 -5 8 -199 324 rcurveline
            238 317 6 7 4 8 1 5 rlinecurve
            7 -10 6 -24 vhcurveto
            -17 hlineto
            -20 -19 -2 -12 -9 hvcurveto
            -235 -314 rlineto
            -3 hlineto
            32 306 -20 callgsubr
            -27 hhcurveto
            -13 -92 callsubr
            -70 -660 -66 callsubr
            return
          </CharString>
          <CharString index="73">
            rmoveto
            -43 callgsubr
            return
          </CharString>
          <CharString index="74">
            -61 184 -5 -92 callgsubr
            return
          </CharString>
          <CharString index="75">
            2 hvcurveto
            5 return
          </CharString>
          <CharString index="76">
            13 7 3 38 -14 return
          </CharString>
          <CharString index="77">
            8 -27 hhcurveto
            return
          </CharString>
          <CharString index="78">
            -17 callsubr
            5 -9 return
          </CharString>
          <CharString index="79">
            -4 9 -14 hhcurveto
            return
          </CharString>
          <CharString index="80">
            hvcurveto
            1 -11 callgsubr
            return
          </CharString>
          <CharString index="81">
            103 90 45 callgsubr
            32 301 rlineto
            263 hlineto
            -32 -301 -66 callsubr
            -43 callgsubr
            70 660 -81 callgsubr
            -30 -283 rlineto
            -263 hlineto
            30 283 -77 callsubr
            return
          </CharString>
          <CharString index="82">
            -106 callsubr
            -150 -819 -84 callsubr
          </CharString>
          <CharString index="83">
            3 callgsubr
            141 hmoveto
            -58 callgsubr
            endchar
          </CharString>
          <CharString index="84">
            -34 callsubr
            31 return
          </CharString>
          <CharString index="85">
            -22 -210 rlinecurve
            -22 -205 53 -111 121 -27 -1 -8 rcurveline
            -5 -44 -17 callsubr
            8 -9 21 hhcurveto
            18 10 -62 callgsubr
            5 45 rlineto
            8 hlineto
            79 105 16 56 5 hvcurveto
            31 286 rlineto
            21 2 -8 9 -18 hhcurveto
            -111 -13 callgsubr
            -16 -53 callsubr
            48 hlineto
            -24 -224 rlineto
            -7 -23 -30 -5 -37 hhcurveto
            return
          </CharString>
          <CharString index="86">
            rlineto
            21 2 -5 9 return
          </CharString>
          <CharString index="87">
            9 hlineto
            27 14 13 19 2 hvcurveto
            7 62 15 47 28 44 5 8 6 10 1 6 rrcurveto
            12 1 -18 3 -11 hhcurveto
            -33 -78 -76 -120 -12 hvcurveto
            -17 -2 14 -11 25 hhcurveto
            return
          </CharString>
          <CharString index="88">
            -20 callgsubr
            -26 hhcurveto
            return
          </CharString>
          <CharString index="89">
            31 hmoveto
            463 hlineto
            17 10 11 19 2 hvcurveto
            3 vlineto
            1 12 0 10 -3 12 -143 620 rcurveline
            16 -4 -10 7 -14 hhcurveto
            -31 hlineto
            -15 -10 -7 -16 -7 hvcurveto
            -267 -620 -6 -14 -4 -9 -1 -14 rlinecurve
            -1 -2 rlineto
            -18 -1 9 -10 15 hhcurveto
            68 68 rmoveto
            226 545 rlineto
            6 hlineto
            107 -545 rlineto
            endchar
          </CharString>
          <CharString index="90">
            rlineto
            -21 -2 return
          </CharString>
          <CharString index="91">
            -81 callgsubr
            -69 return
          </CharString>
          <CharString index="92">
            -65 callgsubr
            -64 callsubr
            return
          </CharString>
          <CharString index="93">
            -72 callsubr
            endchar
          </CharString>
          <CharString index="94">
            -21 -10 vvcurveto
            -7 6 -3 15 vhcurveto
            return
          </CharString>
          <CharString index="95">
            hlineto
            -13 -7 -53 callgsubr
            return
          </CharString>
          <CharString index="96">
            4 vhcurveto
            -7 3 rlineto
            2 return
          </CharString>
          <CharString index="97">
            79 -9 callgsubr
            return
          </CharString>
          <CharString index="98">
            -39 callsubr
            endchar
          </CharString>
          <CharString index="99">
            -92 callsubr
            -69 return
          </CharString>
          <CharString index="100">
            -96 156 rlineto
            8 -5 -7 5 -8 hhcurveto
            -17 -19 -22 -10 -41 callsubr
            1 -5 4 -6 vhcurveto
            80 -146 -122 -147 -6 -8 -5 -8 -1 -6 rlinecurve
            -16 -2 20 -14 11 hhcurveto
            8 7 4 8 9 hvcurveto
            138 156 21 20 3 14 -13 22 rlinecurve
            return
          </CharString>
          <CharString index="101">
            -13 -8 -14 return
          </CharString>
          <CharString index="102">
            -10 8 -26 hhcurveto
            -11 -81 callsubr
            return
          </CharString>
          <CharString index="103">
            -11 8 -28 hhcurveto
            return
          </CharString>
          <CharString index="104">
            -92 callsubr
            -48 return
          </CharString>
          <CharString index="105">
            rmoveto
            28 24 19 32 3 hvcurveto
            32 4 -20 20 -28 hhcurveto
            -28 -23 -20 -32 -4 hvcurveto
            -32 -3 19 -19 28 hhcurveto
            endchar
          </CharString>
          <CharString index="106">
            40 343 30 callgsubr
            -80 35 -76 hhcurveto
            -17 1 hlineto
            3 31 rlineto
            21 2 -8 9 -21 hhcurveto
            -18 -10 -53 callgsubr
            -3 -32 -1 -8 -126 return
          </CharString>
          <CharString index="107">
            -242 47 230 rmoveto
            156 2 callsubr
            -156 -71 callgsubr
            endchar
          </CharString>
          <CharString index="108">
            -17 callsubr
            7 -9 19 hhcurveto
            return
          </CharString>
          <CharString index="109">
            hlineto
            13 7 -62 callgsubr
            1 10 -21 callsubr
            -13 hhcurveto
            return
          </CharString>
          <CharString index="110">
            -23 -16 15 hvcurveto
            -3 -16 -3 -16 -2 -18 rrcurveto
            endchar
          </CharString>
          <CharString index="111">
            rmoveto
            330 hlineto
            16 9 10 20 2 hvcurveto
            1 13 rlineto
            20 2 -7 10 -16 hhcurveto
            -330 9 callsubr
            -13 rlineto
            -20 -2 7 -10 16 hhcurveto
            endchar
          </CharString>
          <CharString index="112">
            -4 21 callgsubr
            return
          </CharString>
          <CharString index="113">
            rmoveto
            5 hlineto
            27 12 8 14 40 callsubr
            -5 hlineto
            -27 -12 -8 -14 -1 hvcurveto
            -5 -51 -42 callgsubr
            return
          </CharString>
          <CharString index="114">
            -20 callgsubr
            -28 hhcurveto
            return
          </CharString>
          <CharString index="115">
            15 -10 7 -28 vhcurveto
            -4 hlineto
            -26 return
          </CharString>
          <CharString index="116">
            hlineto
            -16 -9 -10 -20 -2 hvcurveto
            -1 return
          </CharString>
          <CharString index="117">
            -53 callgsubr
            -1 return
          </CharString>
          <CharString index="118">
            13 -50 callsubr
            return
          </CharString>
          <CharString index="119">
            -14 hlineto
            -26 -13 42 callsubr
            return
          </CharString>
          <CharString index="120">
            -27 callgsubr
            -74 -710 -42 callgsubr
            return
          </CharString>
          <CharString index="121">
            hlineto
            24 1 34 11 16 -3 10 -14 hvcurveto
            return
          </CharString>
          <CharString index="122">
            vvcurveto
            -87 66 -25 41 40 31 10 44 13 -5 10 -8 vhcurveto
            -6 -11 -5 -14 hhcurveto
            -33 -18 7 36 return
          </CharString>
          <CharString index="123">
            rlineto
            -28 callgsubr
            return
          </CharString>
          <CharString index="124">
            24 228 rlineto
            return
          </CharString>
          <CharString index="125">
            74 rmoveto
            -40 callsubr
            return
          </CharString>
          <CharString index="126">
            33 callsubr
            endchar
          </CharString>
          <CharString index="127">
            rlineto
            -19 -2 7 -11 16 hhcurveto
            return
          </CharString>
          <CharString index="128">
            hlineto
            26 -52 callsubr
            return
          </CharString>
          <CharString index="129">
            rlineto
            -80 41 callgsubr
            -2 -17 33 callgsubr
            return
          </CharString>
          <CharString index="130">
            15 21 callsubr
            return
          </CharString>
          <CharString index="131">
            122 147 6 8 5 8 1 6 rlinecurve
            16 2 -20 14 -11 hhcurveto
            return
          </CharString>
          <CharString index="132">
            18 callsubr
            8 return
          </CharString>
          <CharString index="133">
            rlineto
            -1 -3 -2 -4 return
          </CharString>
          <CharString index="134">
            11 -8 28 hhcurveto
            return
          </CharString>
          <CharString index="135">
            hlineto
            13 7 -62 callgsubr
            1 8 -21 callsubr
            -13 hhcurveto
            return
          </CharString>
          <CharString index="136">
            37 callgsubr
            17 -21 callsubr
            -14 hhcurveto
            return
          </CharString>
          <CharString index="137">
            -8 -14 -1 hvcurveto
            return
          </CharString>
          <CharString index="138">
            -12 30 -58 callsubr
            hhcurveto
            return
          </CharString>
          <CharString index="139">
            74 rmoveto
            -64 callsubr
            return
          </CharString>
          <CharString index="140">
            -12 1 14 -4 19 hhcurveto
            return
          </CharString>
          <CharString index="141">
            74 rmoveto
            -48 callsubr
            return
          </CharString>
          <CharString index="142">
            rlineto
            12 7 7 9 14 vvcurveto
            6 vlineto
            9 -4 5 -5 return
          </CharString>
          <CharString index="143">
            -5 11 hhcurveto
            20 hlineto
            12 8 6 return
          </CharString>
          <CharString index="144">
            rlineto
            20 2 -6 10 return
          </CharString>
          <CharString index="145">
            -13 -10 16 -23 8 vhcurveto
            return
          </CharString>
          <CharString index="146">
            -3 10 -7 hvcurveto
            return
          </CharString>
          <CharString index="147">
            -32 callsubr
            51 -70 callgsubr
            return
          </CharString>
          <CharString index="148">
            hlineto
            28 13 -23 callgsubr
            return
          </CharString>
          <CharString index="149">
            30 callsubr
            -51 return
          </CharString>
          <CharString index="150">
            -15 hlineto
            -19 -15 return
          </CharString>
          <CharString index="151">
            -298 158 770 rmoveto
            -10 hlineto
            -17 return
          </CharString>
          <CharString index="152">
            hhcurveto
            -161 -100 -111 -243 -26 hvcurveto
            return
          </CharString>
          <CharString index="153">
            vvcurveto
            -20 -2 9 return
          </CharString>
        <CharString name=".notdef">
          16 -20 hmoveto
          500 hlineto
          73 700 rlineto
          -500 hlineto
          218 -305 rmoveto
          -144 255 rlineto
          340 hlineto
          -428 -555 rmoveto
          53 510 144 -255 rlineto
          203 -255 rmoveto
          -143 255 196 255 rlineto
          -427 -555 rmoveto
          196 255 144 -255 rlineto
          endchar
        </CharString>
        <CharString name="A">
          7 22 -2 -106 callgsubr
          endchar
        </CharString>
        <CharString name="AE">
          248 11 -2 -44 callsubr
        </CharString>
        <CharString name="AEacute">
          248 426 762 rmoveto
          -105 callgsubr
          -415 -764 -44 callsubr
        </CharString>
        <CharString name="Aacute">
          7 284 762 rmoveto
          -105 callgsubr
          -262 -764 -106 callgsubr
          endchar
        </CharString>
        <CharString name="Abreve">
          7 307 762 -100 callgsubr
          -285 -764 -106 callgsubr
          endchar
        </CharString>
        <CharString name="Acircumflex">
          7 214 753 -107 callsubr
          -192 -755 -106 callgsubr
          endchar
        </CharString>
        <CharString name="Adieresis">
          7 244 784 -101 callgsubr
          -348 -786 -106 callgsubr
          endchar
        </CharString>
        <CharString name="Agrave">
          7 317 762 -97 callsubr
          -295 -764 -106 callgsubr
          endchar
        </CharString>
        <CharString name="Amacron">
          7 209 789 -85 callgsubr
          -187 -791 -106 callgsubr
          endchar
        </CharString>
        <CharString name="Aogonek">
          7 489 -103 rmoveto
          -14 callgsubr
          16 5 24 12 25 hvcurveto
          11 hlineto
          25 13 7 10 1 hvcurveto
          4 -1 4 -1 5 vhcurveto
          -115 655 rlineto
          13 -2 -12 6 -24 hhcurveto
          -29 hlineto
          -23 -14 -6 -13 -5 hvcurveto
          -250 -655 rlineto
          -1 -5 -2 -4 -4 vvcurveto
          -10 -1 10 -7 26 hhcurveto
          -73 callsubr
          24 -154 rlineto
          -30 -38 -9 -45 -26 -56 callsubr
          -328 353 14 callgsubr
        </CharString>
        <CharString name="Aring">
          7 302 741 -74 callgsubr
          -283 -778 -106 callgsubr
          endchar
        </CharString>
        <CharString name="Aringacute">
          7 294 822 rmoveto
          21 20 6 12 12 hvcurveto
          71 64 10 5 7 vvcurveto
          10 1 -15 3 -32 hhcurveto
          -32 -20 -6 -20 -13 hvcurveto
          -14 -22 -9 -13 -22 -36 rrcurveto
          -7 6 -3 16 vhcurveto
          170 -794 rmoveto
          -109 622 14 15 9 19 3 24 rlinecurve
          51 5 -30 34 -50 hhcurveto
          -49 -38 -34 -51 -5 hvcurveto
          -3 -24 5 -19 12 -15 -238 -622 rcurveline
          -1 -5 -2 -4 -4 vvcurveto
          -10 -1 10 -7 26 hhcurveto
          -73 callsubr
          26 -164 -36 callgsubr
          16 hhcurveto
          17 hlineto
          25 13 7 10 1 hvcurveto
          4 -1 4 -1 5 vhcurveto
          -214 680 rmoveto
          31 4 18 19 30 hhcurveto
          30 15 -19 -31 -3 hvcurveto
          -31 -4 -19 -18 -30 hhcurveto
          -30 -14 18 31 3 hvcurveto
          -89 -458 14 callgsubr
        </CharString>
        <CharString name="Atilde">
          7 173 769 rmoveto
          -104 callsubr
          -141 -775 -106 callgsubr
          endchar
        </CharString>
        <CharString name="B">
          41 80 hmoveto
          173 hlineto
          139 81 62 139 14 hvcurveto
          13 125 -87 33 -22 8 rrcurveto
          4 vlineto
          49 16 50 69 7 67 rrcurveto
          105 12 -55 72 -137 hhcurveto
          -163 hlineto
          -20 -9 -53 callgsubr
          -68 -640 -17 callsubr
          7 -9 20 hhcurveto
          104 398 rmoveto
          24 226 rlineto
          102 hlineto
          72 29 -35 -74 -8 hvcurveto
          -65 -6 -47 -52 -62 hhcurveto
          -138 -322 rmoveto
          26 246 rlineto
          115 hlineto
          76 36 -44 -73 -7 hvcurveto
          -79 -9 -43 -50 -65 hhcurveto
          endchar
        </CharString>
        <CharString name="C">
          -39 281 -6 -84 callgsubr
        </CharString>
        <CharString name="CR">
          -258 endchar
        </CharString>
        <CharString name="Cacute">
          -39 299 762 rmoveto
          -105 callgsubr
          -18 -768 -84 callgsubr
        </CharString>
        <CharString name="Cacute.loclPLK">
          -39 307 762 -76 callgsubr
          -26 -768 -84 callgsubr
        </CharString>
        <CharString name="Ccaron">
          -39 314 760 -103 callsubr
          -33 -766 -84 callgsubr
        </CharString>
        <CharString name="Ccedilla">
          -39 456 687 rmoveto
          11 -24 -37 8 -38 hhcurveto
          -192 -81 -114 -242 -26 hvcurveto
          -22 -218 54 -112 137 -22 rrcurveto
          -21 -62 -1 -7 -63 callgsubr
          15 54 rlineto
          14 hlineto
          46 42 11 10 21 hvcurveto
          21 10 5 11 2 12 1 18 -6 43 -27 -12 rrcurveto
          -13 -24 -32 -12 -41 hhcurveto
          -114 -44 88 191 20 hvcurveto
          192 21 63 85 114 hhcurveto
          39 26 -11 -10 19 hvcurveto
          22 -13 14 54 1 12 1 15 -3 7 -12 5 rrcurveto
          endchar
        </CharString>
        <CharString name="Ccircumflex">
          -39 229 753 -107 callsubr
          52 -759 -84 callgsubr
        </CharString>
        <CharString name="Cdotaccent">
          -39 322 784 -106 callsubr
          -41 -790 -84 callgsubr
        </CharString>
        <CharString name="D">
          -10 callsubr
          endchar
        </CharString>
        <CharString name="Dcaron">
          79 320 760 -103 callsubr
          -241 -760 rmoveto
          -67 callsubr
          endchar
        </CharString>
        <CharString name="Dcroat">
          -37 callsubr
        </CharString>
        <CharString name="E">
          -41 79 hmoveto
          -104 callgsubr
          endchar
        </CharString>
        <CharString name="Eacute">
          -41 278 762 rmoveto
          -105 callgsubr
          -199 -762 rmoveto
          -104 callgsubr
          endchar
        </CharString>
        <CharString name="Ebreve">
          -41 301 762 -100 callgsubr
          -222 -762 rmoveto
          -104 callgsubr
          endchar
        </CharString>
        <CharString name="Ecaron">
          -41 293 760 -103 callsubr
          -214 -760 rmoveto
          -104 callgsubr
          endchar
        </CharString>
        <CharString name="Ecircumflex">
          -41 208 753 -107 callsubr
          -129 -753 rmoveto
          -104 callgsubr
          endchar
        </CharString>
        <CharString name="Edieresis">
          -41 238 784 -101 callgsubr
          -285 -784 rmoveto
          -104 callgsubr
          endchar
        </CharString>
        <CharString name="Edotaccent">
          -41 301 784 -106 callsubr
          -222 -784 rmoveto
          -104 callgsubr
          endchar
        </CharString>
        <CharString name="Egrave">
          -41 311 762 -97 callsubr
          -232 -762 rmoveto
          -104 callgsubr
          endchar
        </CharString>
        <CharString name="Emacron">
          -41 203 789 -85 callgsubr
          -124 -789 rmoveto
          -104 callgsubr
          endchar
        </CharString>
        <CharString name="Eng">
          92 525 702 rmoveto
          -12 -3 callsubr
          -450 -2 -22 0 -22 3 -22 rlinecurve
          -5 -2 -5 21 -7 21 -8 21 rlinecurve
          -183 457 rlineto
          15 -6 -12 5 -19 hhcurveto
          -24 -8 callsubr
          -660 -42 callgsubr
          12 hlineto
          27 11 callsubr
          49 460 2 22 0 22 -3 22 rlinecurve
          5 2 5 -21 6 -21 8 -21 rlinecurve
          198 -489 -7 -68 rlineto
          -56 -6 -19 -12 -20 -24 -5 5 -7 hhcurveto
          -14 -11 -39 -8 -1 hvcurveto
          -27 -2 43 -3 26 hhcurveto
          42 69 21 111 12 hvcurveto
          79 760 -19 callsubr
          endchar
        </CharString>
        <CharString name="Eogonek">
          -41 449 -107 rmoveto
          -14 callgsubr
          20 8 31 18 30 hvcurveto
          -1 hlineto
          3 5 1 7 1 8 2 16 rcurveline
          -28 callgsubr
          -225 hlineto
          26 244 rlineto
          202 hlineto
          13 7 -72 callgsubr
          -5 9 -13 hhcurveto
          -202 -6 callgsubr
          225 hlineto
          13 7 -72 callgsubr
          -5 9 -13 hhcurveto
          -288 2 callgsubr
          -68 -640 1 callsubr
          244 hlineto
          -19 -33 -6 -35 -21 -56 callsubr
          endchar
        </CharString>
        <CharString name="Eth">
          -37 callsubr
        </CharString>
        <CharString name="Euro">
          5 283 -6 rmoveto
          88 79 45 27 2 hvcurveto
          14 2 -15 38 -16 -12 -46 -47 -77 hhcurveto
          -75 -48 50 115 -6 hvcurveto
          230 29 callgsubr
          -236 hlineto
          1 15 2 16 1 17 6 45 rcurveline
          236 29 callgsubr
          -230 hlineto
          117 30 57 49 80 70 30 -41 12 hhcurveto
          16 23 38 17 2 hvcurveto
          25 3 -68 38 -79 hhcurveto
          -134 -93 -78 -165 -40 hvcurveto
          -46 41 callgsubr
          -1 -7 33 callgsubr
          39 hlineto
          -6 -46 -1 -16 -2 -16 -1 -15 rlinecurve
          -39 41 callgsubr
          -1 -7 33 callgsubr
          45 hlineto
          -165 5 72 -77 139 hhcurveto
          endchar
        </CharString>
        <CharString name="F">
          -75 90 -2 -34 callsubr
          32 300 rlineto
          180 hlineto
          13 7 -72 callgsubr
          -5 9 -13 hhcurveto
          -180 -6 callgsubr
          197 hlineto
          13 7 -72 callgsubr
          -5 9 -13 hhcurveto
          -260 2 callgsubr
          -69 -650 -66 callsubr
          endchar
        </CharString>
        <CharString name="G">
          54 351 627 -82 callsubr
          endchar
        </CharString>
        <CharString name="Gbreve">
          54 347 762 -100 callgsubr
          4 -135 -82 callsubr
          endchar
        </CharString>
        <CharString name="Gcircumflex">
          54 254 753 -107 callsubr
          97 -126 -82 callsubr
          endchar
        </CharString>
        <CharString name="Gcommaaccent">
          54 351 627 -82 callsubr
          -62 -678 rmoveto
          -10 hlineto
          -26 -12 -13 -19 hvcurveto
          -76 -29 -38 -23 vvcurveto
          -12 17 -3 11 27 57 60 96 17 -12 11 -23 vhcurveto
          endchar
        </CharString>
        <CharString name="Gdotaccent">
          54 347 784 -106 callsubr
          4 -157 -82 callsubr
          endchar
        </CharString>
        <CharString name="H">
          -26 callsubr
          endchar
        </CharString>
        <CharString name="Hbar">
          103 633 562 rmoveto
          -79 hlineto
          13 118 -81 callgsubr
          -13 -118 rlineto
          -263 hlineto
          13 118 rlineto
          14 1 -10 8 -26 hhcurveto
          -15 -92 callsubr
          -13 -118 rlineto
          -74 15 callgsubr
          75 hlineto
          -50 -471 -66 callsubr
          23 callsubr
          32 301 rlineto
          263 hlineto
          -32 -301 -66 callsubr
          -43 callgsubr
          50 471 rlineto
          78 14 callsubr
          -186 -165 rmoveto
          -263 hlineto
          10 94 rlineto
          263 hlineto
          endchar
        </CharString>
        <CharString name="Hcircumflex">
          103 263 753 -107 callsubr
          -173 -755 rmoveto
          23 callsubr
          32 301 rlineto
          263 hlineto
          -32 -301 -66 callsubr
          -43 callgsubr
          70 660 -81 callgsubr
          -30 -283 rlineto
          -263 hlineto
          30 283 -77 callsubr
          endchar
        </CharString>
        <CharString name="I">
          -236 96 -2 -73 callgsubr
        </CharString>
        <CharString name="IJ">
          119 96 -2 -79 callgsubr
          228 -4 -62 callsubr
        </CharString>
        <CharString name="Iacute">
          -236 162 762 rmoveto
          -105 callgsubr
          -66 -764 -73 callgsubr
        </CharString>
        <CharString name="Iacute_J.loclNLD">
          119 162 762 rmoveto
          -105 callgsubr
          350 hmoveto
          -105 callgsubr
          -416 -764 -79 callgsubr
          228 -4 -62 callsubr
        </CharString>
        <CharString name="Ibreve">
          -236 185 762 -100 callgsubr
          -89 -764 -73 callgsubr
        </CharString>
        <CharString name="Icircumflex">
          -236 92 753 -107 callsubr
          4 -755 -73 callgsubr
        </CharString>
        <CharString name="Idieresis">
          -236 122 784 -101 callgsubr
          -152 -786 -73 callgsubr
        </CharString>
        <CharString name="Idotaccent">
          -236 185 784 -106 callsubr
          -89 -786 -73 callgsubr
        </CharString>
        <CharString name="Igrave">
          -236 195 762 -97 callsubr
          -99 -764 -73 callgsubr
        </CharString>
        <CharString name="Imacron">
          -236 87 789 -85 callgsubr
          9 -791 -73 callgsubr
        </CharString>
        <CharString name="Iogonek">
          -236 211 -106 rmoveto
          -14 callgsubr
          19 8 30 16 29 hvcurveto
          3 3 2 4 5 vvcurveto
          70 660 rlineto
          14 1 -10 8 -26 hhcurveto
          -15 -92 callsubr
          -70 -660 -1 -12 7 -7 18 -2 rlinecurve
          -18 -33 -6 -33 -21 -56 callsubr
          endchar
        </CharString>
        <CharString name="Itilde">
          -236 64 769 rmoveto
          -77 callgsubr
          41 -775 -73 callgsubr
        </CharString>
        <CharString name="J">
          -143 62 -6 -62 callsubr
        </CharString>
        <CharString name="Jcircumflex">
          -143 180 753 -107 callsubr
          -118 -759 -62 callsubr
        </CharString>
        <CharString name="K">
          -35 callsubr
          endchar
        </CharString>
        <CharString name="Kcommaaccent">
          -35 callsubr
          95 -233 -78 callsubr
          endchar
        </CharString>
        <CharString name="L">
          -90 79 hmoveto
          -66 callgsubr
          endchar
        </CharString>
        <CharString name="Lacute">
          -90 158 764 rmoveto
          -105 callgsubr
          -79 -764 rmoveto
          -66 callgsubr
          endchar
        </CharString>
        <CharString name="Lcaron">
          -90 79 hmoveto
          -66 callgsubr
          239 526 -30 callgsubr
          endchar
        </CharString>
        <CharString name="Lcommaaccent">
          -90 79 hmoveto
          -66 callgsubr
          87 -235 -78 callsubr
          endchar
        </CharString>
        <CharString name="Ldot">
          -90 79 hmoveto
          -66 callgsubr
          217 309 -2 callsubr
        </CharString>
        <CharString name="Lslash">
          -90 356 76 rmoveto
          -208 hlineto
          34 321 78 46 35 callsubr
          -3 -3 -2 -2 -4 vhcurveto
          -73 -43 25 234 -81 callgsubr
          -31 -291 -58 -35 20 callgsubr
          53 31 -33 -309 1 callsubr
          271 hlineto
          14 7 -72 callgsubr
          -5 9 -14 hhcurveto
          endchar
        </CharString>
        <CharString name="M">
          191 327 239 rmoveto
          34 hlineto
          11 7 4 9 5 hvcurveto
          141 230 13 22 13 24 11 23 rlinecurve
          4 -2 -5 -24 -5 -23 -2 -24 rlinecurve
          -48 -458 -42 callgsubr
          12 -7 callgsubr
          69 660 -70 callgsubr
          -21 hlineto
          -20 -12 -6 -12 -8 hvcurveto
          -192 -313 -10 -16 -7 -16 -5 -16 rlinecurve
          -1 16 -3 16 -6 16 -128 313 rcurveline
          12 -4 -12 6 -20 hhcurveto
          -21 -8 callsubr
          -660 -42 callgsubr
          12 -7 callgsubr
          48 458 2 24 1 23 -1 24 rlinecurve
          4 2 7 -23 7 -24 9 -22 rlinecurve
          93 -230 rlineto
          -9 3 7 -4 11 hhcurveto
          endchar
        </CharString>
        <CharString name="N">
          92 -65 callsubr
          endchar
        </CharString>
        <CharString name="NULL">
          -498 endchar
        </CharString>
        <CharString name="Nacute">
          92 322 762 rmoveto
          -105 callgsubr
          -239 -764 -99 callgsubr
          endchar
        </CharString>
        <CharString name="Nacute.loclPLK">
          92 330 762 -76 callgsubr
          -247 -764 -99 callgsubr
          endchar
        </CharString>
        <CharString name="Ncaron">
          92 337 760 -103 callsubr
          -254 -762 -99 callgsubr
          endchar
        </CharString>
        <CharString name="Ncommaaccent">
          92 -65 callsubr
          135 -233 -78 callsubr
          endchar
        </CharString>
        <CharString name="Ntilde">
          92 211 769 rmoveto
          -104 callsubr
          -118 -775 -99 callgsubr
          endchar
        </CharString>
        <CharString name="O">
          101 272 -6 -102 callsubr
          endchar
        </CharString>
        <CharString name="OE">
          325 812 700 rmoveto
          -288 2 callgsubr
          -3 -33 rlineto
          46 -35 -49 23 -61 45 callsubr
          -243 -25 90 -115 148 hhcurveto
          62 53 24 43 42 hvcurveto
          -3 -31 1 callsubr
          288 hlineto
          14 6 -72 callgsubr
          -4 9 -14 hhcurveto
          -225 hlineto
          26 244 rlineto
          202 hlineto
          13 7 -72 callgsubr
          -5 9 -13 hhcurveto
          -202 -6 callgsubr
          225 hlineto
          13 7 -72 callgsubr
          -5 9 -13 hhcurveto
          -344 -348 10 callgsubr
        </CharString>
        <CharString name="Oacute">
          101 332 762 rmoveto
          -105 callgsubr
          -60 -768 -102 callsubr
          endchar
        </CharString>
        <CharString name="Oacute.loclPLK">
          101 340 762 -76 callgsubr
          -68 -768 -102 callsubr
          endchar
        </CharString>
        <CharString name="Obreve">
          101 355 762 -100 callgsubr
          -83 -768 -102 callsubr
          endchar
        </CharString>
        <CharString name="Ocircumflex">
          101 262 753 -107 callsubr
          10 -759 -102 callsubr
          endchar
        </CharString>
        <CharString name="Odieresis">
          101 292 784 -101 callgsubr
          -146 -790 -102 callsubr
          endchar
        </CharString>
        <CharString name="Ograve">
          101 365 762 -97 callsubr
          -93 -768 -102 callsubr
          endchar
        </CharString>
        <CharString name="Ohorn">
          101 610 714 -91 callsubr
          endchar
        </CharString>
        <CharString name="Ohungarumlaut">
          101 277 762 -78 callgsubr
          -133 -768 -102 callsubr
          endchar
        </CharString>
        <CharString name="Omacron">
          101 257 789 -85 callgsubr
          15 -795 -102 callsubr
          endchar
        </CharString>
        <CharString name="Oslash">
          101 506 637 -47 callgsubr
        </CharString>
        <CharString name="Oslashacute">
          101 328 762 rmoveto
          -105 callgsubr
          178 -125 -47 callgsubr
        </CharString>
        <CharString name="Otilde">
          101 221 769 rmoveto
          -104 callsubr
          61 -779 -102 callsubr
          endchar
        </CharString>
        <CharString name="P">
          90 -2 -34 callsubr
          30 278 rlineto
          110 hlineto
          42 134 23 183 19 hvcurveto
          169 18 -110 27 -69 hhcurveto
          -165 -18 callgsubr
          376 rmoveto
          26 250 rlineto
          98 hlineto
          41 51 -21 -99 -11 hvcurveto
          -109 -11 -57 -21 -32 hhcurveto
          endchar
        </CharString>
        <CharString name="Q">
          101 496 -169 rmoveto
          23 30 55 12 3 hvcurveto
          1 7 -4 5 -7 4 -195 89 rcurveline
          3 vlineto
          116 34 74 113 22 197 rrcurveto
          242 25 -83 114 -156 hhcurveto
          -174 -88 -113 -243 -25 hvcurveto
          -19 -180 37 -101 90 -56 rrcurveto
          -38 61 255 -144 14 hhcurveto
          -217 238 rmoveto
          -102 -47 89 192 21 hvcurveto
          192 20 65 88 102 hhcurveto
          101 48 -88 -192 -20 hvcurveto
          -191 -21 -66 -90 -101 hhcurveto
          endchar
        </CharString>
        <CharString name="R">
          15 86 -2 -38 callgsubr
        </CharString>
        <CharString name="Racute">
          15 284 762 rmoveto
          -105 callgsubr
          -198 -764 -38 callgsubr
        </CharString>
        <CharString name="Rcaron">
          15 299 760 -103 callsubr
          -213 -762 -38 callgsubr
        </CharString>
        <CharString name="Rcommaaccent">
          15 86 -2 -85 callsubr
          -98 -619 -78 callsubr
          endchar
        </CharString>
        <CharString name="S">
          -33 callsubr
          endchar
        </CharString>
        <CharString name="Sacute">
          -61 263 762 rmoveto
          -105 callgsubr
          -79 -767 -92 callgsubr
          endchar
        </CharString>
        <CharString name="Sacute.loclPLK">
          -61 271 762 -76 callgsubr
          -87 -767 -92 callgsubr
          endchar
        </CharString>
        <CharString name="Scaron">
          -61 278 760 -103 callsubr
          -94 -765 -92 callgsubr
          endchar
        </CharString>
        <CharString name="Scedilla">
          -61 282 634 rmoveto
          33 36 -9 -13 29 hvcurveto
          -2 5 5 -3 4 hhcurveto
          12 17 50 13 4 -1 4 -5 3 hvcurveto
          19 -32 -63 11 -53 hhcurveto
          -123 -79 -82 -120 -97 75 -56 75 -44 hvcurveto
          49 -29 40 -34 -61 vvcurveto
          -81 -57 -34 -73 -45 -48 8 29 -38 vhcurveto
          2 -3 -4 3 -5 hhcurveto
          -14 -9 -35 -19 -15 3 -3 5 -4 hvcurveto
          43 -35 52 -8 58 -1 rrcurveto
          -20 -59 -1 -7 -63 callgsubr
          16 56 rlineto
          116 11 66 79 121 vvcurveto
          96 -67 51 -71 40 vhcurveto
          -64 36 -39 38 57 vvcurveto
          88 73 21 55 vhcurveto
          endchar
        </CharString>
        <CharString name="Scircumflex">
          -61 193 753 -107 callsubr
          -9 -758 -92 callgsubr
          endchar
        </CharString>
        <CharString name="Scommaaccent">
          -33 callsubr
          -35 -230 -78 callsubr
          endchar
        </CharString>
        <CharString name="T">
          -44 192 -2 -56 callgsubr
          endchar
        </CharString>
        <CharString name="Tbar">
          -44 460 700 rmoveto
          -376 -13 callgsubr
          -16 -53 callsubr
          144 hlineto
          -25 -235 rlineto
          -144 15 callgsubr
          145 hlineto
          -32 -298 -66 callsubr
          -43 callgsubr
          32 298 rlineto
          131 14 callsubr
          -132 hlineto
          25 235 rlineto
          142 hlineto
          14 7 -72 callgsubr
          -5 9 -14 hhcurveto
          endchar
        </CharString>
        <CharString name="Tcaron">
          -44 272 760 -103 callsubr
          -80 -762 -56 callgsubr
          endchar
        </CharString>
        <CharString name="Thorn">
          83 -2 rmoveto
          14 -7 callgsubr
          16 157 rlineto
          110 hlineto
          42 135 23 183 19 hvcurveto
          169 18 -111 27 -69 hhcurveto
          -102 hlineto
          11 101 -16 callsubr
          -660 -42 callgsubr
          79 255 rmoveto
          26 250 rlineto
          97 hlineto
          42 50 -21 -99 -10 hvcurveto
          -109 -12 -57 -21 -31 hhcurveto
          endchar
        </CharString>
        <CharString name="U">
          85 264 -6 rmoveto
          -31 callgsubr
          51 485 rlineto
          14 1 -10 8 -27 hhcurveto
          -14 -100 callsubr
          endchar
        </CharString>
        <CharString name="Uacute">
          85 323 762 rmoveto
          -105 callgsubr
          -59 -768 rmoveto
          -31 callgsubr
          51 485 rlineto
          14 1 -10 8 -27 hhcurveto
          -14 -100 callsubr
          endchar
        </CharString>
        <CharString name="Ubreve">
          85 346 762 -100 callgsubr
          -82 -768 rmoveto
          -31 callgsubr
          51 485 rlineto
          14 1 -10 8 -27 hhcurveto
          -14 -100 callsubr
          endchar
        </CharString>
        <CharString name="Ucircumflex">
          85 253 753 -107 callsubr
          11 -759 rmoveto
          -31 callgsubr
          51 485 rlineto
          14 1 -10 8 -27 hhcurveto
          -14 -100 callsubr
          endchar
        </CharString>
        <CharString name="Udieresis">
          85 283 784 -101 callgsubr
          -145 -790 rmoveto
          -31 callgsubr
          51 485 rlineto
          14 1 -10 8 -27 hhcurveto
          -14 -100 callsubr
          endchar
        </CharString>
        <CharString name="Ugrave">
          85 356 762 -97 callsubr
          -92 -768 rmoveto
          -31 callgsubr
          51 485 rlineto
          14 1 -10 8 -27 hhcurveto
          -14 -100 callsubr
          endchar
        </CharString>
        <CharString name="Uhorn">
          85 643 759 rmoveto
          -44 callgsubr
          -30 -100 callsubr
          -31 callgsubr
          50 475 rlineto
          59 5 26 35 49 vvcurveto
          endchar
        </CharString>
        <CharString name="Uhungarumlaut">
          85 268 762 -78 callgsubr
          -132 -768 rmoveto
          -31 callgsubr
          51 485 rlineto
          14 1 -10 8 -27 hhcurveto
          -14 -100 callsubr
          endchar
        </CharString>
        <CharString name="Umacron">
          85 248 789 -85 callgsubr
          16 -795 rmoveto
          -31 callgsubr
          51 485 rlineto
          14 1 -10 8 -27 hhcurveto
          -14 -100 callsubr
          endchar
        </CharString>
        <CharString name="Uogonek">
          85 523 702 rmoveto
          -14 -100 callsubr
          21 21 2 3 18 hvcurveto
          -13 -29 -5 -29 -18 -56 callsubr
          -14 callgsubr
          20 8 30 17 29 hvcurveto
          67 32 40 61 9 82 51 485 rcurveline
          -70 callsubr
          endchar
        </CharString>
        <CharString name="Uring">
          85 341 741 -74 callgsubr
          -80 -782 rmoveto
          -31 callgsubr
          51 485 rlineto
          14 1 -10 8 -27 hhcurveto
          -14 -100 callsubr
          endchar
        </CharString>
        <CharString name="Utilde">
          85 212 769 rmoveto
          -104 callsubr
          62 -779 rmoveto
          -31 callgsubr
          51 485 rlineto
          14 1 -10 8 -27 hhcurveto
          -14 -100 callsubr
          endchar
        </CharString>
        <CharString name="V">
          10 209 -2 rmoveto
          36 hlineto
          19 16 4 12 4 hvcurveto
          244 657 rlineto
          2 6 2 4 4 vvcurveto
          11 1 -12 6 -27 hhcurveto
          -12 hlineto
          -19 -15 -4 -12 -5 hvcurveto
          -190 -531 -15 -53 rlineto
          -3 hlineto
          -3 52 -78 532 rlineto
          12 -2 -14 4 -19 hhcurveto
          -14 hlineto
          -28 -13 -7 -10 -1 hvcurveto
          -4 1 -4 1 -5 vhcurveto
          110 -658 rlineto
          -12 2 13 -4 19 hhcurveto
          endchar
        </CharString>
        <CharString name="W">
          254 182 -2 -91 callgsubr
        </CharString>
        <CharString name="Wacute">
          254 412 762 rmoveto
          -105 callgsubr
          -230 -764 -91 callgsubr
        </CharString>
        <CharString name="Wcircumflex">
          254 342 753 -107 callsubr
          -160 -755 -91 callgsubr
        </CharString>
        <CharString name="Wdieresis">
          254 372 784 -101 callgsubr
          -316 -786 -91 callgsubr
        </CharString>
        <CharString name="Wgrave">
          254 445 762 -97 callsubr
          -263 -764 -91 callgsubr
        </CharString>
        <CharString name="X">
          8 35 -2 rmoveto
          15 hlineto
          18 16 2 12 7 hvcurveto
          166 277 102 -276 rlineto
          -12 4 14 -3 19 hhcurveto
          20 hlineto
          30 13 6 11 1 hvcurveto
          1 5 -3 5 -3 8 -140 332 rcurveline
          191 302 5 8 3 5 1 5 rlinecurve
          12 1 -13 5 -29 hhcurveto
          -14 hlineto
          -18 -15 -2 -12 -7 hvcurveto
          -147 -243 -88 242 rlineto
          13 -5 -14 2 -18 hhcurveto
          -20 hlineto
          -30 -12 -6 -11 -1 hvcurveto
          -1 -5 3 -6 3 -7 124 -298 rcurveline
          -210 -336 -5 -8 -3 -5 -1 -5 rlinecurve
          -12 -1 11 -5 30 hhcurveto
          endchar
        </CharString>
        <CharString name="Y">
          -14 207 -2 -90 callsubr
          endchar
        </CharString>
        <CharString name="Y.loclGUA">
          0 442 702 -96 callgsubr
          endchar
        </CharString>
        <CharString name="Yacute">
          -14 273 762 rmoveto
          -105 callgsubr
          -66 -764 -90 callsubr
          endchar
        </CharString>
        <CharString name="Yacute.loclGUA">
          0 281 762 rmoveto
          -105 callgsubr
          161 -60 -96 callgsubr
          endchar
        </CharString>
        <CharString name="Ycircumflex">
          -14 203 753 -107 callsubr
          4 -755 -90 callsubr
          endchar
        </CharString>
        <CharString name="Ycircumflex.loclGUA">
          0 211 753 -107 callsubr
          231 -51 -96 callgsubr
          endchar
        </CharString>
        <CharString name="Ydieresis">
          -14 233 784 -101 callgsubr
          -152 -786 -90 callsubr
          endchar
        </CharString>
        <CharString name="Ydieresis.loclGUA">
          0 241 784 -101 callgsubr
          75 -82 -96 callgsubr
          endchar
        </CharString>
        <CharString name="Ygrave">
          -14 306 762 -97 callsubr
          -99 -764 -90 callsubr
          endchar
        </CharString>
        <CharString name="Ygrave.loclGUA">
          0 314 762 -97 callsubr
          128 -60 -96 callgsubr
          endchar
        </CharString>
        <CharString name="Z">
          9 28 -49 callsubr
          endchar
        </CharString>
        <CharString name="Zacute">
          9 286 762 rmoveto
          -105 callgsubr
          -258 -762 rmoveto
          -88 callgsubr
          endchar
        </CharString>
        <CharString name="Zacute.loclPLK">
          9 294 762 -76 callgsubr
          -266 -762 rmoveto
          -88 callgsubr
          endchar
        </CharString>
        <CharString name="Zcaron">
          9 301 760 -103 callsubr
          -273 -760 rmoveto
          -88 callgsubr
          endchar
        </CharString>
        <CharString name="Zdotaccent">
          9 309 784 -106 callsubr
          -281 -784 rmoveto
          -88 callgsubr
          endchar
        </CharString>
        <CharString name="a">
          -17 174 -7 -105 callsubr
        </CharString>
        <CharString name="aacute">
          -17 245 585 rmoveto
          -105 callgsubr
          -71 -39 callgsubr
        </CharString>
        <CharString name="abreve">
          -17 268 585 -95 callsubr
        </CharString>
        <CharString name="acircumflex">
          -17 175 576 -107 callsubr
          -1 -80 callsubr
        </CharString>
        <CharString name="acute">
          -242 74 585 rmoveto
          -105 callgsubr
          endchar
        </CharString>
        <CharString name="acute.loclPLK">
          -242 85 585 -76 callgsubr
          endchar
        </CharString>
        <CharString name="acutecomb">
          -498 21 585 rmoveto
          -105 callgsubr
          endchar
        </CharString>
        <CharString name="adieresis">
          -17 205 607 -101 callgsubr
          -157 -614 -105 callsubr
        </CharString>
        <CharString name="ae">
          166 151 -6 -49 callgsubr
        </CharString>
        <CharString name="aeacute">
          166 347 585 rmoveto
          -105 callgsubr
          -196 -591 -49 callgsubr
        </CharString>
        <CharString name="agrave">
          -17 278 585 -97 callsubr
          -104 -39 callgsubr
        </CharString>
        <CharString name="amacron">
          -17 170 612 -85 callgsubr
          4 -619 -105 callsubr
        </CharString>
        <CharString name="ampersand">
          22 481 408 rmoveto
          -57 hlineto
          11 105 rlineto
          14 2 -8 8 -21 hhcurveto
          -14 hlineto
          -21 -11 -8 -14 -3 hvcurveto
          -22 -105 rlineto
          -87 hlineto
          -68 -22 71 50 5 hvcurveto
          37 4 23 68 69 23 16 -9 5 hhcurveto
          13 13 45 4 hvcurveto
          27 3 -44 5 -30 hhcurveto
          -95 -74 -55 -113 -12 hvcurveto
          -8 -74 30 -51 43 -22 -1 -4 rcurveline
          -55 -16 -51 -63 -11 -105 rrcurveto
          -154 -16 84 -55 90 hhcurveto
          60 44 23 20 35 hvcurveto
          -35 19 31 -8 30 hhcurveto
          23 42 3 27 3 hvcurveto
          8 1 -3 39 -13 -6 -7 -5 -17 hhcurveto
          -22 -14 14 60 6 hvcurveto
          21 196 rlineto
          57 hlineto
          13 7 9 21 2 -27 callsubr
          -13 hhcurveto
          -367 -204 rmoveto
          102 11 43 30 71 hhcurveto
          91 hlineto
          -22 -204 -1 -12 0 -10 1 -9 rlinecurve
          -17 -34 -37 -18 -36 hhcurveto
          -48 -50 29 109 11 hvcurveto
          endchar
        </CharString>
        <CharString name="aogonek">
          -17 477 -117 rmoveto
          -14 callgsubr
          19 7 30 17 29 hvcurveto
          25 6 14 16 29 vvcurveto
          12 -3 11 -7 vhcurveto
          -38 callsubr
          -12 10 39 3 hvcurveto
          30 278 rlineto
          4 37 8 64 10 vvcurveto
          13 -5 8 -20 vhcurveto
          -6 hlineto
          -28 -7 -21 -29 -10 hvcurveto
          23 -18 -33 31 -57 hhcurveto
          -103 -77 -103 -163 -17 hvcurveto
          -132 -14 29 -138 112 hhcurveto
          43 48 20 70 36 hvcurveto
          2 -54 27 -23 26 -8 rrcurveto
          -23 -35 -7 -39 -23 -56 callsubr
          -148 484 rmoveto
          -18 -169 rlineto
          -99 -29 -46 -33 -38 hhcurveto
          -69 -6 109 92 10 hvcurveto
          112 12 34 77 78 hhcurveto
          42 23 3 callsubr
        </CharString>
        <CharString name="approxequal">
          -60 220 281 rmoveto
          -11 31 32 -12 26 hhcurveto
          -52 callgsubr
          -17 -160 rmoveto
          -11 31 32 -12 26 hhcurveto
          -52 callgsubr
          endchar
        </CharString>
        <CharString name="aring">
          -17 263 -33 callgsubr
          -92 -606 -105 callsubr
        </CharString>
        <CharString name="aringacute">
          -17 279 775 rmoveto
          -105 callgsubr
          -16 -211 -74 callgsubr
          -92 -606 -105 callsubr
        </CharString>
        <CharString name="arrowdown">
          31 499 317 rmoveto
          -214 -197 60 566 rlineto
          14 1 -8 8 -21 hhcurveto
          -10 hlineto
          -21 -10 30 callsubr
          -60 -565 -168 193 -10 10 -10 0 -2 -19 rlinecurve
          -6 -52 -2 -19 4 -5 9 -10 rlinecurve
          192 -216 rlineto
          -6 5 4 -1 8 hhcurveto
          9 4 2 5 6 hvcurveto
          238 216 13 12 3 6 1 16 rlinecurve
          6 55 1 13 -8 9 -13 -13 rlinecurve
          endchar
        </CharString>
        <CharString name="arrowleft">
          102 582 297 rmoveto
          -465 hlineto
          191 212 rlineto
          11 10 2 10 -18 hhcurveto
          -53 hlineto
          -13 -10 -3 -11 -9 hvcurveto
          -209 -232 rlineto
          -6 -6 -2 -5 -5 vvcurveto
          -1 -11 1 -4 4 -5 160 -233 rcurveline
          -11 7 10 -3 13 hhcurveto
          49 hlineto
          15 2 11 10 -7 hvcurveto
          -140 205 rlineto
          462 hlineto
          14 8 -62 callgsubr
          1 10 rlineto
          21 2 -6 9 -14 hhcurveto
          endchar
        </CharString>
        <CharString name="arrowright">
          102 596 283 rmoveto
          -160 233 rlineto
          11 -7 -10 3 -13 hhcurveto
          -49 hlineto
          -15 -2 -11 -10 7 hvcurveto
          140 -205 rlineto
          -462 hlineto
          -14 -8 10 callsubr
          -10 -17 callsubr
          6 -9 14 hhcurveto
          465 hlineto
          -191 -212 rlineto
          -11 -10 -2 -10 18 hhcurveto
          53 hlineto
          13 10 3 11 9 hvcurveto
          209 232 rlineto
          6 6 2 5 5 vvcurveto
          1 11 -1 4 -4 5 rrcurveto
          endchar
        </CharString>
        <CharString name="arrowup">
          7 508 485 rmoveto
          -192 216 rlineto
          6 -5 -4 1 -8 hhcurveto
          -9 -4 -2 -5 -6 hvcurveto
          -238 -216 -13 -12 -3 -6 -1 -16 rlinecurve
          -6 -55 -1 -13 8 -9 13 13 rlinecurve
          214 197 -60 -566 rlineto
          -14 -1 8 -8 21 hhcurveto
          10 hlineto
          21 10 -50 callsubr
          60 565 168 -193 10 -10 10 0 2 19 rlinecurve
          6 52 2 19 -4 5 -9 10 rlinecurve
          endchar
        </CharString>
        <CharString name="asciicircum">
          -138 331 355 rmoveto
          -70 309 rlineto
          16 -3 -9 4 -15 hhcurveto
          -20 hlineto
          -14 -10 -4 -16 -7 hvcurveto
          -134 -309 -2 -5 -1 -5 -1 -4 rlinecurve
          -13 -1 7 -8 15 hhcurveto
          9 hlineto
          16 11 7 16 7 hvcurveto
          110 268 50 -268 rlineto
          -16 3 10 -7 16 hhcurveto
          8 hlineto
          16 8 8 13 1 hvcurveto
          1 4 -1 5 5 vvcurveto
          endchar
        </CharString>
        <CharString name="asciitilde">
          -61 300 225 rmoveto
          -52 callgsubr
          -11 31 32 -12 26 hhcurveto
          endchar
        </CharString>
        <CharString name="asterisk">
          -199 95 436 rmoveto
          5 7 3 6 4 hvcurveto
          65 86 46 -86 rlineto
          -6 4 5 -3 5 hhcurveto
          10 14 10 9 1 hvcurveto
          1 4 -2 4 -2 5 -49 91 rcurveline
          86 32 10 4 4 4 1 8 rlinecurve
          15 2 -8 8 -9 hhcurveto
          -3 -5 0 -3 -5 hvcurveto
          -79 -29 10 91 rlineto
          14 1 -5 6 -14 hhcurveto
          -14 -7 -6 -14 -1 hvcurveto
          -10 -91 -74 29 rlineto
          3 -3 -5 0 -3 hhcurveto
          -9 -10 -9 -15 -2 hvcurveto
          -1 -7 5 -4 9 -4 77 -32 rcurveline
          -66 -91 -4 -5 -2 -4 -1 -4 rlinecurve
          -9 -1 12 -10 10 hhcurveto
          endchar
        </CharString>
        <CharString name="at">
          294 442 705 rmoveto
          -219 -168 -206 -262 -215 113 -148 166 44 100 11 39 16 -5 7 -9 hvcurveto
          -19 -32 -29 -75 hhcurveto
          -138 -91 129 189 239 145 186 185 140 94 -110 -173 -141 -57 -130 -61 -7 -27 1 38 hvcurveto
          29 27 295 11 vvcurveto
          13 -6 8 -16 vhcurveto
          -6 hlineto
          -21 -2 -8 -33 -11 hvcurveto
          18 -15 -32 26 -44 hhcurveto
          -108 -70 -112 -157 -147 73 -35 47 43 41 22 55 30 hvcurveto
          -51 4 32 -26 48 hhcurveto
          114 78 143 178 203 -114 127 -171 hvcurveto
          12 -480 rmoveto
          -86 -28 -40 -24 -28 hhcurveto
          -37 -31 30 96 101 23 101 90 33 23 -17 -13 14 hvcurveto
          -8 -26 -8 -111 -3 -51 rrcurveto
          endchar
        </CharString>
        <CharString name="atilde">
          -17 134 592 rmoveto
          -104 callsubr
          50 -603 -105 callsubr
        </CharString>
        <CharString name="b">
          243 -6 rmoveto
          95 74 109 162 17 hvcurveto
          169 17 -57 95 -98 hhcurveto
          -50 -32 -22 -29 -29 hvcurveto
          27 252 rlineto
          14 1 -5 callsubr
          -1 hvcurveto
          -75 -710 -17 callgsubr
          10 -8 23 hhcurveto
          6 hlineto
          16 11 3 9 5 hvcurveto
          16 59 rlineto
          -51 27 40 -24 45 hhcurveto
          -13 73 rmoveto
          -33 -32 25 44 -21 hvcurveto
          29 274 rlineto
          30 26 32 15 32 hhcurveto
          65 24 -67 -122 -13 hvcurveto
          -125 -13 -38 -74 -58 hhcurveto
          endchar
        </CharString>
        <CharString name="backslash">
          -209 229 -20 rmoveto
          11 hlineto
          15 9 7 11 1 hvcurveto
          1 4 -1 5 4 vvcurveto
          -146 670 rlineto
          15 -3 -9 6 -15 hhcurveto
          -11 hlineto
          -15 -7 -7 -11 -2 hvcurveto
          -4 0 -3 2 -9 vhcurveto
          145 -667 rlineto
          -15 2 8 -6 15 hhcurveto
          endchar
        </CharString>
        <CharString name="bar">
          44 callsubr
          -7 -8 -14 -2 hvcurveto
          -91 -866 rlineto
          -14 -1 6 -8 17 hhcurveto
          10 hlineto
          17 8 -50 callsubr
          91 866 rlineto
          14 2 -7 8 -17 hhcurveto
          endchar
        </CharString>
        <CharString name="baraccent">
          -181 64 285 -85 callgsubr
          endchar
        </CharString>
        <CharString name="baraccentlong">
          19 564 356 rmoveto
          -596 15 callgsubr
          596 14 callsubr
          endchar
        </CharString>
        <CharString name="baraccentmedium">
          -81 394 356 rmoveto
          -366 15 callgsubr
          366 14 callsubr
          endchar
        </CharString>
        <CharString name="braceleft">
          -249 130 -138 rmoveto
          45 hlineto
          14 7 8 -36 callsubr
          4 vlineto
          21 3 -5 8 -14 hhcurveto
          -17 hlineto
          -28 -4 23 39 4 hvcurveto
          20 186 9 94 -53 42 -13 6 rlinecurve
          17 11 60 42 10 91 19 187 rcurveline
          39 4 9 22 28 hhcurveto
          17 hlineto
          14 7 8 -36 callsubr
          4 vlineto
          21 2 -5 8 -14 hhcurveto
          -45 hlineto
          -26 -54 -21 -95 -10 hvcurveto
          -19 -178 -6 -62 -10 -38 -41 -18 rlinecurve
          -17 -7 -10 -9 -2 -18 -1 -14 rcurveline
          -2 -18 8 -9 15 -7 37 -18 2 -39 -6 -61 -19 -178 rcurveline
          -97 -10 50 -19 26 hhcurveto
          endchar
        </CharString>
        <CharString name="braceright">
          -249 -4 -138 rmoveto
          44 hlineto
          26 54 19 97 10 hvcurveto
          19 178 6 61 11 39 41 18 rlinecurve
          17 7 10 9 2 18 1 14 rcurveline
          2 18 -8 9 -15 7 -37 18 -3 38 6 62 19 178 rcurveline
          95 10 -50 21 -26 hhcurveto
          -44 hlineto
          -14 -7 -8 -25 callgsubr
          -4 vlineto
          -21 -2 5 -8 14 hhcurveto
          16 hlineto
          28 3 -22 -39 -4 hvcurveto
          -19 -187 -10 -91 53 -42 15 -11 rlinecurve
          -15 -6 -64 -42 -9 -94 -20 -186 rcurveline
          -39 -4 -8 -23 -28 hhcurveto
          -16 hlineto
          -14 40 callgsubr
          14 hhcurveto
          endchar
        </CharString>
        <CharString name="bracketleft">
          -259 30 -138 rmoveto
          102 hlineto
          14 6 8 -36 callsubr
          4 vlineto
          21 3 -4 8 -14 hhcurveto
          -57 hlineto
          82 781 rlineto
          57 hlineto
          14 5 8 21 3 hvcurveto
          5 vlineto
          21 2 -4 8 -14 hhcurveto
          -102 2 callgsubr
          -89 -846 1 callsubr
          endchar
        </CharString>
        <CharString name="bracketright">
          -259 22 -138 rmoveto
          103 hlineto
          18 9 -62 callgsubr
          89 846 rlineto
          21 2 -7 9 -18 hhcurveto
          -103 hlineto
          -13 -7 -8 -25 callgsubr
          -5 vlineto
          -21 -3 6 -8 13 hhcurveto
          58 hlineto
          -82 -781 rlineto
          -58 hlineto
          -13 40 callgsubr
          13 hhcurveto
          endchar
        </CharString>
        <CharString name="breve">
          -242 161 -79 callsubr
          endchar
        </CharString>
        <CharString name="brokenbar">
          44 callsubr
          -8 30 callsubr
          -11 -108 -23 -202 -13 31 callgsubr
          108 23 205 10 vvcurveto
          14 -5 8 -17 vhcurveto
          -57 -544 rmoveto
          -10 hlineto
          -18 -7 30 callsubr
          -11 -107 -23 -201 -14 31 callgsubr
          107 23 204 11 vvcurveto
          14 -5 8 -17 vhcurveto
          endchar
        </CharString>
        <CharString name="bullet">
          -200 143 203 rmoveto
          63 56 39 84 9 hvcurveto
          84 9 -48 40 -63 hhcurveto
          -63 -56 -40 -84 -9 hvcurveto
          -84 -9 48 -39 63 hhcurveto
          endchar
        </CharString>
        <CharString name="c">
          -90 228 -6 -83 callsubr
        </CharString>
        <CharString name="cacute">
          -90 250 585 rmoveto
          -105 callgsubr
          -22 -591 -83 callsubr
        </CharString>
        <CharString name="cacute.loclPLK">
          -90 258 585 -76 callgsubr
          -30 -591 -83 callsubr
        </CharString>
        <CharString name="caron">
          -242 152 583 -103 callsubr
          endchar
        </CharString>
        <CharString name="caron.alt">
          -242 108 526 -30 callgsubr
          endchar
        </CharString>
        <CharString name="ccaron">
          -90 265 583 -103 callsubr
          -37 -589 -83 callsubr
        </CharString>
        <CharString name="ccedilla">
          -90 281 529 rmoveto
          -118 -95 -56 -209 -22 hvcurveto
          -19 -179 52 -79 119 -11 rrcurveto
          -20 -59 -1 -7 -63 callgsubr
          15 54 54 4 69 26 2 21 rlinecurve
          14 2 -15 37 -14 hhcurveto
          -2 -6 -5 -3 -6 hvcurveto
          -10 -18 -26 -12 -42 hhcurveto
          -88 -26 60 140 14 hvcurveto
          139 15 47 52 77 hhcurveto
          39 26 -16 -8 13 hvcurveto
          -2 5 3 -2 3 hhcurveto
          11 24 38 16 1 hvcurveto
          24 3 -63 22 -60 hhcurveto
          endchar
        </CharString>
        <CharString name="ccircumflex">
          -90 180 576 -107 callsubr
          48 -582 -83 callsubr
        </CharString>
        <CharString name="cdotaccent">
          -90 273 -83 callgsubr
          -45 -613 -83 callsubr
        </CharString>
        <CharString name="cedilla">
          -242 147 -60 rmoveto
          17 60 rlineto
          -41 hlineto
          -22 -64 -1 -7 -63 callgsubr
          endchar
        </CharString>
        <CharString name="cent">
          -58 281 529 rmoveto
          -3 hlineto
          3 29 rlineto
          14 -4 6 -14 vhcurveto
          -2 hlineto
          -13 -6 -6 -14 -1 hvcurveto
          -3 -32 -98 -14 -75 -65 -19 -183 rlinecurve
          -18 -170 46 -80 107 -17 -5 -48 rcurveline
          -14 3 -6 15 vhcurveto
          2 hlineto
          12 6 7 13 -32 callsubr
          45 rlineto
          7 hlineto
          54 80 28 23 2 hvcurveto
          14 2 -15 37 -14 hhcurveto
          -2 -6 -5 -3 -6 hvcurveto
          -10 -18 -26 -12 -42 hhcurveto
          -8 hlineto
          41 391 rlineto
          6 hlineto
          39 26 -16 -8 13 hvcurveto
          -2 5 3 -2 3 hhcurveto
          11 24 38 16 1 hvcurveto
          24 3 -63 22 -60 hhcurveto
          -92 -455 rmoveto
          -49 21 -14 61 11 110 12 108 31 56 49 19 rrcurveto
          endchar
        </CharString>
        <CharString name="circumflex">
          -242 69 576 -107 callsubr
          endchar
        </CharString>
        <CharString name="colon">
          -310 101 -16 callgsubr
          -44 -417 rmoveto
          -51 callsubr
          endchar
        </CharString>
        <CharString name="comma">
          -310 1 -116 1 callgsubr
        </CharString>
        <CharString name="commaaccentinvert">
          -145 197 769 rmoveto
          -27 -57 -60 -96 -17 12 -11 23 hvcurveto
          11 callgsubr
          vhcurveto
          endchar
        </CharString>
        <CharString name="copyright">
          -12 callgsubr
          12 94 rmoveto
          49 51 27 16 7 -11 25 -10 hvcurveto
          -6 -25 -30 -48 hhcurveto
          -66 -32 52 115 117 32 51 68 hvcurveto
          45 21 -27 5 hhcurveto
          8 13 25 10 16 -47 21 -45 -101 -52 -70 -143 -145 49 -67 102 hvcurveto
          endchar
        </CharString>
        <CharString name="currency">
          -36 76 143 rmoveto
          7 7 3 7 8 hvcurveto
          28 26 rlineto
          -21 24 31 -13 36 hhcurveto
          37 33 13 21 28 hvcurveto
          23 -25 rlineto
          -8 6 7 -3 7 hhcurveto
          7 6 4 5 5 hvcurveto
          2 1 5 5 6 9 1 5 rlinecurve
          7 -3 7 -6 7 vhcurveto
          -26 29 19 29 13 34 4 37 rlinecurve
          4 36 -6 34 -13 29 32 29 rcurveline
          9 8 3 7 1 7 1 6 -3 5 -5 6 -2 2 rcurveline
          6 -5 -8 3 -5 hhcurveto
          -7 -7 -4 -6 -7 hvcurveto
          -28 -25 rlineto
          21 -23 -31 14 -37 hhcurveto
          -36 -34 -14 -22 -29 hvcurveto
          -22 25 rlineto
          8 -6 -8 4 -7 hhcurveto
          -6 -6 -3 -5 -5 hvcurveto
          -4 -5 -5 -5 -2 -7 -1 -4 rlinecurve
          -1 -8 3 -7 6 -7 27 -28 rcurveline
          -20 -28 -13 -35 -4 -37 -4 -37 6 -34 14 -28 -33 -30 rcurveline
          -8 -7 -5 -8 -1 -7 rrcurveto
          -7 2 -5 5 -5 vhcurveto
          1 -2 rlineto
          -6 6 7 -3 5 hhcurveto
          147 63 rmoveto
          -51 -38 41 75 8 hvcurveto
          75 8 47 42 51 hhcurveto
          52 37 -42 -75 -8 hvcurveto
          -75 -8 -46 -41 -52 hhcurveto
          endchar
        </CharString>
        <CharString name="d">
          -17 -75 callgsubr
          29 73 -9 callsubr
        </CharString>
        <CharString name="dagger">
          34 callgsubr
          57 540 -10 callgsubr
          -57 -540 rlineto
          -14 -1 10 -8 24 hhcurveto
          endchar
        </CharString>
        <CharString name="daggerdbl">
          34 callgsubr
          19 178 rlineto
          118 23 callgsubr
          20 16 callsubr
          -118 hlineto
          30 282 -10 callgsubr
          -30 -282 rlineto
          -120 -13 callgsubr
          -20 -53 callsubr
          120 hlineto
          -19 -178 rlineto
          -14 -1 10 -8 24 hhcurveto
          endchar
        </CharString>
        <CharString name="dcaron">
          -17 -75 callgsubr
          348 532 -30 callgsubr
          -319 -459 -9 callsubr
        </CharString>
        <CharString name="dcroat">
          -17 506 668 rmoveto
          -60 hlineto
          6 62 -19 callsubr
          -11 hlineto
          -26 26 callgsubr
          -7 -62 rlineto
          -52 -71 callgsubr
          52 hlineto
          -13 -120 rlineto
          29 -23 -28 22 -50 hhcurveto
          -98 -77 -96 -169 -17 hvcurveto
          -160 -17 49 -110 96 hhcurveto
          46 47 25 53 36 hvcurveto
          -65 8 44 -13 31 -19 callgsubr
          -17 -10 11 46 3 hvcurveto
          16 158 17 159 17 158 rrcurveto
          61 hlineto
          14 6 -62 callgsubr
          1 10 16 callsubr
          -203 -532 rmoveto
          -44 -31 -36 -25 -33 hhcurveto
          -59 -22 74 124 13 hvcurveto
          124 13 39 66 66 hhcurveto
          32 27 -15 -30 20 hvcurveto
          endchar
        </CharString>
        <CharString name="degree">
          -222 157 441 rmoveto
          62 49 51 81 9 hvcurveto
          82 8 -38 51 -62 hhcurveto
          -62 -50 -51 -82 -8 hvcurveto
          -81 -9 39 -51 62 hhcurveto
          4 45 rmoveto
          -36 -19 32 55 6 hvcurveto
          55 6 25 33 36 hhcurveto
          36 19 -33 -55 -6 hvcurveto
          -55 -6 -25 -32 -36 hhcurveto
          endchar
        </CharString>
        <CharString name="dieresis">
          -242 101 607 -101 callgsubr
          endchar
        </CharString>
        <CharString name="divide">
          -50 232 368 6 callsubr
          -182 -171 rmoveto
          335 hlineto
          17 38 callgsubr
          -17 hhcurveto
          -335 9 callsubr
          -7 20 callsubr
          143 -199 6 callsubr
          endchar
        </CharString>
        <CharString name="dollar">
          -58 182 -68 rmoveto
          1 hlineto
          13 8 6 -22 callgsubr
          5 45 rlineto
          113 12 65 78 117 vvcurveto
          98 -66 51 -70 40 vhcurveto
          25 241 rlineto
          33 35 -9 -13 28 hvcurveto
          -2 5 5 -3 4 hhcurveto
          12 17 50 13 4 -1 4 -5 3 hvcurveto
          -27 16 -50 11 -47 2 1 8 0 9 1 8 rrcurveto
          13 -4 7 -12 vhcurveto
          -2 hlineto
          -16 -4 -6 -14 -2 hvcurveto
          -3 -25 rlineto
          -113 -7 -72 -80 -110 vvcurveto
          -98 70 -55 72 -43 vhcurveto
          -26 -244 rlineto
          -58 -44 10 27 -36 hvcurveto
          2 -3 -4 3 -5 hhcurveto
          -14 -9 -35 -19 -15 3 -3 5 -4 hvcurveto
          44 -35 53 -8 60 -1 rrcurveto
          -2 -22 -1 -17 -4 vvcurveto
          -14 3 -6 14 vhcurveto
          31 485 rmoveto
          -42 30 -24 33 45 vvcurveto
          68 44 28 46 9 vhcurveto
          -19 -551 rmoveto
          23 213 rlineto
          34 -25 24 -32 -47 vvcurveto
          -61 -33 -35 -48 -13 vhcurveto
          endchar
        </CharString>
        <CharString name="dotaccent">
          -242 165 -83 callgsubr
          endchar
        </CharString>
        <CharString name="dotbelowcomb">
          -498 -46 -175 -106 callsubr
          endchar
        </CharString>
        <CharString name="dotlessi">
          -244 142 -3 -98 callsubr
          endchar
        </CharString>
        <CharString name="e">
          -44 371 115 -99 callsubr
          endchar
        </CharString>
        <CharString name="eacute">
          -44 258 585 rmoveto
          -105 callgsubr
          113 -470 -99 callsubr
          endchar
        </CharString>
        <CharString name="ebreve">
          -44 281 -79 callsubr
          90 -470 -99 callsubr
          endchar
        </CharString>
        <CharString name="ecaron">
          -44 233 605 rmoveto
          -15 8 13 -7 19 hhcurveto
          15 hlineto
          20 13 7 15 10 hvcurveto
          63 88 rlineto
          4 6 4 6 5 vvcurveto
          9 1 -6 6 -12 hhcurveto
          -20 hlineto
          -11 -9 -5 -10 -7 hvcurveto
          -52 -72 -37 72 rlineto
          10 -6 -7 5 -11 hhcurveto
          -19 hlineto
          -12 -8 -6 -8 -41 callsubr
          3 -8 2 -5 vhcurveto
          181 -578 -99 callsubr
          endchar
        </CharString>
        <CharString name="ecircumflex">
          -44 188 576 -107 callsubr
          183 -461 -99 callsubr
          endchar
        </CharString>
        <CharString name="edieresis">
          -44 218 607 -101 callgsubr
          27 -492 -99 callsubr
          endchar
        </CharString>
        <CharString name="edotaccent">
          -44 281 -83 callgsubr
          90 -492 -99 callsubr
          endchar
        </CharString>
        <CharString name="egrave">
          -44 291 585 -97 callsubr
          80 -470 -99 callsubr
          endchar
        </CharString>
        <CharString name="eight">
          -39 199 -6 rmoveto
          111 88 72 130 14 hvcurveto
          11 105 -47 43 -55 32 55 27 46 51 9 84 rrcurveto
          118 12 -79 50 -86 hhcurveto
          -94 -82 -58 -117 -13 hvcurveto
          -8 -82 31 -45 41 -30 -57 -28 -53 -51 -11 -103 rrcurveto
          -135 -14 77 -63 104 hhcurveto
          61 415 rmoveto
          -51 26 -43 29 8 72 rrcurveto
          67 7 41 31 47 hhcurveto
          48 36 -30 -70 -7 hvcurveto
          -7 -60 -33 -37 -46 -28 rrcurveto
          -53 -343 rmoveto
          -55 -43 40 91 9 hvcurveto
          8 74 35 41 50 30 62 -31 63 -25 -10 -90 rrcurveto
          -80 -8 -52 -50 -59 hhcurveto
          endchar
        </CharString>
        <CharString name="ellipsis">
          54 58 -2 rmoveto
          -51 callsubr
          182 hmoveto
          -51 callsubr
          182 hmoveto
          -51 callsubr
          endchar
        </CharString>
        <CharString name="emacron">
          -44 183 612 -85 callgsubr
          188 -497 -99 callsubr
          endchar
        </CharString>
        <CharString name="emdash">
          388 16 230 rmoveto
          848 2 callsubr
          -848 -71 callgsubr
          endchar
        </CharString>
        <CharString name="endash">
          -55 16 230 rmoveto
          405 2 callsubr
          -405 -71 callgsubr
          endchar
        </CharString>
        <CharString name="eng">
          241 -212 rmoveto
          42 69 21 111 12 hvcurveto
          49 453 rlineto
          97 10 -40 59 -81 hhcurveto
          -49 -47 -28 -47 -34 hvcurveto
          32 -3 3 36 -25 hhcurveto
          -11 -47 -5 -18 -2 hvcurveto
          -1 -6 6 -38 -8 -82 -38 -353 rcurveline
          -14 -1 10 -8 26 hhcurveto
          11 hlineto
          27 12 16 callgsubr
          41 23 36 29 36 hhcurveto
          46 19 -33 -58 -6 hvcurveto
          -44 -437 rlineto
          -55 -6 -19 -13 -20 -24 -5 5 -7 hhcurveto
          -14 -11 -39 -8 -1 hvcurveto
          -27 -2 43 -3 26 hhcurveto
          endchar
        </CharString>
        <CharString name="eogonek">
          -44 428 -77 rmoveto
          -14 callgsubr
          19 7 29 16 28 hvcurveto
          7 7 rlineto
          13 15 4 20 17 vvcurveto
          11 -5 10 -9 vhcurveto
          -55 callgsubr
          9 vlineto
          -3 17 22 -3 28 hhcurveto
          127 97 60 123 51 -33 82 -107 -164 -74 -151 -184 -173 106 -27 83 14 18 2 5 20 hvcurveto
          -9 -23 -3 -22 -15 -56 callsubr
          -151 534 -32 callgsubr
        </CharString>
        <CharString name="equal">
          -49 62 271 rmoveto
          328 hlineto
          16 38 callgsubr
          -16 hhcurveto
          -328 9 callsubr
          -7 20 callsubr
          -17 -164 rmoveto
          328 28 callgsubr
          -328 9 callsubr
          -8 20 callsubr
          endchar
        </CharString>
        <CharString name="estimated">
          117 141 355 rmoveto
          452 hlineto
          227 -127 125 -154 -159 -131 -125 -227 -232 135 -130 163 81 77 39 65 55 vhcurveto
          6 8 4 7 6 vvcurveto
          12 -13 16 -18 -8 -7 -6 -9 -6 vhcurveto
          -52 -38 -73 -31 -60 hhcurveto
          -72 -63 28 57 -44 hvcurveto
          171 524 rmoveto
          64 59 -29 -55 43 hvcurveto
          -168 -337 168 vlineto
          55 42 61 29 68 hhcurveto
          endchar
        </CharString>
        <CharString name="eth">
          -21 442 639 rmoveto
          5 -3 27 -19 -4 -48 -7 -4 -27 vhcurveto
          -11 18 -9 12 -9 12 rrcurveto
          7 -5 -7 5 -12 hhcurveto
          -11 -10 -1 -1 -7 hvcurveto
          -11 -2 -5 -5 -1 -7 -1 -10 9 -16 13 -22 -73 -10 rcurveline
          -10 -2 -6 -4 -1 -7 rrcurveto
          -14 -1 10 -18 14 hhcurveto
          2 2 1 11 83 hvcurveto
          15 -29 15 -33 8 -32 rrcurveto
          9 -18 -20 4 -28 hhcurveto
          -121 -70 -96 -171 -18 hvcurveto
          -172 -18 63 -93 120 hhcurveto
          131 69 93 173 18 hvcurveto
          13 128 -24 112 -55 118 61 8 rcurveline
          10 1 6 5 1 7 rrcurveto
          -100 -378 rmoveto
          -133 -14 -40 -62 -71 hhcurveto
          -71 -25 62 133 14 hvcurveto
          132 14 38 61 71 hhcurveto
          71 27 -62 -131 -14 hvcurveto
          endchar
        </CharString>
        <CharString name="exclam">
          -252 105 202 rmoveto
          8 hlineto
          23 8 -23 callgsubr
          25 152 26 152 25 152 rrcurveto
          14 1 -11 8 -25 hhcurveto
          -23 -3 callsubr
          -456 rlineto
          -14 -1 7 -8 23 hhcurveto
          -27 -204 rmoveto
          -51 callsubr
          endchar
        </CharString>
        <CharString name="exclamdown">
          -252 143 -16 callgsubr
          -79 -594 rmoveto
          23 -57 callgsubr
          48 456 rlineto
          14 1 -6 8 -23 hhcurveto
          -9 hlineto
          -23 -7 -8 -14 -2 hvcurveto
          -27 -152 -47 -279 -3 -25 rrcurveto
          -14 -1 11 -8 25 hhcurveto
          endchar
        </CharString>
        <CharString name="f">
          -212 105 -2 rmoveto
          -1 callgsubr
          67 hlineto
          14 7 9 21 2 -27 callsubr
          -14 hhcurveto
          -67 -68 callgsubr
          endchar
        </CharString>
        <CharString name="f_f">
          74 545 756 rmoveto
          -42 -74 -17 -110 -12 hvcurveto
          -11 -106 rlineto
          -202 -68 callgsubr
          -1 callgsubr
          202 hlineto
          -46 -431 rlineto
          19 callgsubr
          -1 callgsubr
          67 hlineto
          14 7 9 21 2 -27 callsubr
          -14 hhcurveto
          -67 hlineto
          11 98 rlineto
          56 6 19 7 22 22 6 -6 8 hhcurveto
          15 11 39 8 1 hvcurveto
          21 2 -38 10 -30 hhcurveto
          endchar
        </CharString>
        <CharString name="f_t">
          86 523 451 rmoveto
          38 7 49 4 14 -4 5 -12 hvcurveto
          -65 hlineto
          11 105 rlineto
          8 callsubr
          -13 -6 -16 -2 hvcurveto
          -12 -105 rlineto
          -36 hlineto
          -1 hlineto
          -162 -68 callgsubr
          -1 callgsubr
          198 hlineto
          -23 -221 -10 -98 -26 15 callsubr
          64 13 93 21 185 hvcurveto
          endchar
        </CharString>
        <CharString name="fi">
          42 483 32 callsubr
          -16 -11 11 46 5 hvcurveto
          13 126 14 125 13 126 rrcurveto
          15 -10 5 -28 vhcurveto
          -230 -68 callgsubr
          -1 callgsubr
          185 hlineto
          -7 -60 -10 -97 -9 -88 -3 -32 -2 -32 -3 -32 rrcurveto
          -103 -9 52 -10 37 -58 callsubr
          hhcurveto
          -45 533 -106 callsubr
          endchar
        </CharString>
        <CharString name="five">
          -39 172 -6 rmoveto
          101 118 47 169 18 hvcurveto
          167 17 -117 45 -98 hhcurveto
          -44 hlineto
          35 206 rlineto
          199 hlineto
          14 6 9 21 3 -27 callsubr
          -14 hhcurveto
          -248 hlineto
          -21 -11 -9 -21 -3 hvcurveto
          -48 -290 -29 callsubr
          22 hhcurveto
          75 hlineto
          104 51 -47 -91 -9 hvcurveto
          -97 -10 -69 -49 -68 -74 -34 38 -16 hhcurveto
          -11 -27 -31 -19 -2 hvcurveto
          -25 -2 64 -35 98 hhcurveto
          endchar
        </CharString>
        <CharString name="fl">
          58 105 -2 rmoveto
          -1 callgsubr
          67 hlineto
          14 7 9 21 2 -27 callsubr
          -14 hhcurveto
          -67 -68 callgsubr
          338 -4 -3 callgsubr
        </CharString>
        <CharString name="florin">
          -169 276 756 rmoveto
          -53 -80 -16 -116 -15 hvcurveto
          -13 -101 rlineto
          -40 hlineto
          -24 -3 -34 -11 -16 1 -11 15 hvcurveto
          40 hlineto
          -89 -637 rlineto
          -15 9 -7 28 vhcurveto
          4 hlineto
          26 15 7 15 2 hvcurveto
          89 637 rlineto
          66 hlineto
          38 9 49 4 14 -3 5 -12 hvcurveto
          -87 hlineto
          12 91 rlineto
          60 8 23 10 31 30 11 -7 4 hhcurveto
          12 16 39 10 29 -53 1 -17 hvcurveto
          endchar
        </CharString>
        <CharString name="four">
          -39 287 -2 rmoveto
          23 hlineto
          21 10 -23 callgsubr
          15 147 rlineto
          56 36 callgsubr
          12 rlineto
          21 3 -5 9 -14 hhcurveto
          -56 hlineto
          46 441 rlineto
          14 1 -8 8 -21 hhcurveto
          -20 hlineto
          -14 -14 -4 -9 -7 hvcurveto
          -316 -460 -2 -3 -1 -3 -1 -5 rlinecurve
          -19 -2 10 -32 11 hhcurveto
          247 hlineto
          -15 -147 -17 callgsubr
          8 -8 21 hhcurveto
          -185 241 rmoveto
          220 324 3 -2 -8 -32 -7 -31 -6 -59 rlinecurve
          -21 -200 rlineto
          endchar
        </CharString>
        <CharString name="fraction">
          -234 380 701 rmoveto
          -25 hlineto
          -14 -9 -7 -12 -8 hvcurveto
          -439 -665 rlineto
          -3 -4 -1 -4 -3 vvcurveto
          -4 4 -4 9 vhcurveto
          25 hlineto
          14 9 7 12 8 hvcurveto
          439 665 rlineto
          3 4 1 4 2 vvcurveto
          5 -4 4 -9 vhcurveto
          endchar
        </CharString>
        <CharString name="g">
          -27 403 525 -86 callgsubr
        </CharString>
        <CharString name="g.ss01">
          -27 181 -212 -95 callgsubr
        </CharString>
        <CharString name="gbreve">
          -27 258 -79 callsubr
          145 -60 -86 callgsubr
        </CharString>
        <CharString name="gbreve.ss01">
          -27 277 -79 callsubr
          -96 -797 -95 callgsubr
        </CharString>
        <CharString name="gcircumflex">
          -27 165 576 -107 callsubr
          238 -51 -86 callgsubr
        </CharString>
        <CharString name="gcircumflex.ss01">
          -27 184 576 -107 callsubr
          -3 -788 -95 callgsubr
        </CharString>
        <CharString name="gcommaaccent">
          -27 252 585 rmoveto
          11 callgsubr
          -27 -57 -60 -96 -17 12 -11 23 vhcurveto
          151 -60 -86 callgsubr
        </CharString>
        <CharString name="gcommaaccent.ss01">
          -27 320 769 rmoveto
          -27 -57 -60 -96 -17 12 -11 23 hvcurveto
          11 callgsubr
          vhcurveto
          -139 -981 -95 callgsubr
        </CharString>
        <CharString name="gdotaccent">
          -27 258 -83 callgsubr
          145 -82 -86 callgsubr
        </CharString>
        <CharString name="gdotaccent.ss01">
          -27 277 -83 callgsubr
          -96 -819 -95 callgsubr
        </CharString>
        <CharString name="germandbls">
          -18 90 -2 rmoveto
          11 hlineto
          26 6 callgsubr
          53 512 rlineto
          65 7 32 37 51 hhcurveto
          42 35 -23 -78 -8 hvcurveto
          -73 -8 -44 -48 -46 hhcurveto
          -6 hlineto
          -12 -7 -53 callgsubr
          -2 -12 -53 callsubr
          17 hlineto
          55 36 -50 -85 -9 hvcurveto
          -84 -9 -45 -49 -52 hhcurveto
          -21 -12 callsubr
          -1 -12 rlineto
          -21 -3 6 -9 13 hhcurveto
          23 hlineto
          104 81 73 131 14 hvcurveto
          9 89 -27 71 -70 20 rrcurveto
          3 vlineto
          55 25 40 61 7 68 rrcurveto
          122 13 -75 43 -86 hhcurveto
          -109 -67 -72 -102 -11 hvcurveto
          -53 -512 -42 callgsubr
          endchar
        </CharString>
        <CharString name="grave">
          -242 179 585 -97 callsubr
          endchar
        </CharString>
        <CharString name="gravecomb">
          -498 24 585 -97 callsubr
          endchar
        </CharString>
        <CharString name="greater">
          -50 11 32 rmoveto
          -2 -20 8 -12 18 9 350 174 rcurveline
          16 8 7 10 1 17 1 17 rcurveline
          1 17 -3 11 -14 7 -313 174 rcurveline
          -17 9 -8 -11 -3 -21 -2 -14 rcurveline
          -1 -17 4 -11 14 -8 255 -142 rcurveline
          -286 -143 -15 -8 -8 -15 -2 -17 rlinecurve
          endchar
        </CharString>
        <CharString name="greaterequal">
          -45 23 137 rmoveto
          -4 -29 8 -4 20 10 350 174 rcurveline
          15 8 8 10 1 17 2 17 rcurveline
          2 17 -6 11 -13 7 -311 173 rcurveline
          -19 10 -6 -6 -4 -26 -2 -14 rcurveline
          -2 -17 4 -11 14 -8 250 -144 rcurveline
          -281 -145 -15 -8 -7 -11 -2 -17 rlinecurve
          9 -151 4 callsubr
        </CharString>
        <CharString name="guillemotleft">
          -27 119 255 rmoveto
          24 callsubr
          4 callgsubr
          197 345 rmoveto
          4 callgsubr
          -80 146 24 callsubr
          endchar
        </CharString>
        <CharString name="guillemotright">
          -27 262 285 rmoveto
          -7 callsubr
          172 hmoveto
          -7 callsubr
          endchar
        </CharString>
        <CharString name="guilsinglleft">
          -251 145 62 rmoveto
          13 28 15 15 1 hvcurveto
          1 6 -2 7 -4 6 -76 147 rcurveline
          107 146 5 7 3 7 1 6 rlinecurve
          17 2 -26 13 -12 hhcurveto
          -7 -7 -3 -9 -7 hvcurveto
          -119 -156 -9 -11 -4 -8 -1 -9 rlinecurve
          -1 -9 3 -8 6 -11 86 -156 rcurveline
          -9 5 7 -3 7 hhcurveto
          endchar
        </CharString>
        <CharString name="guilsinglright">
          -251 72 62 rmoveto
          6 7 3 9 7 hvcurveto
          120 156 8 11 5 8 1 9 rlinecurve
          1 9 -4 8 -5 11 -87 156 rcurveline
          9 -5 -7 3 -6 hhcurveto
          -12 -29 -13 -17 -2 hvcurveto
          -1 -6 3 -7 3 -7 78 -146 rcurveline
          -109 -147 -4 -6 -4 -7 -1 -6 rlinecurve
          -15 -1 24 -15 14 hhcurveto
          endchar
        </CharString>
        <CharString name="h">
          -13 386 -3 -63 callsubr
          endchar
        </CharString>
        <CharString name="hbar">
          -13 441 18 callsubr
          9 30 1 hvcurveto
          17 22 205 5 43 vhcurveto
          112 12 -57 44 -67 hhcurveto
          -52 -46 -28 -39 -31 hvcurveto
          14 136 rlineto
          76 hlineto
          14 6 -62 callgsubr
          1 10 16 callsubr
          -75 hlineto
          6 62 -27 callgsubr
          -6 -62 rlineto
          -38 -71 callgsubr
          37 hlineto
          -60 -578 -42 callgsubr
          10 -7 callgsubr
          38 366 rlineto
          23 10 40 47 51 hhcurveto
          48 19 -34 -57 -6 hvcurveto
          -20 -186 rlineto
          -5 -53 -2 -21 -13 vvcurveto
          -79 50 -16 34 41 24 16 40 11 -3 10 -7 vhcurveto
          endchar
        </CharString>
        <CharString name="hcircumflex">
          -13 75 783 -107 callsubr
          311 -786 -63 callsubr
          endchar
        </CharString>
        <CharString name="hookabovecomb">
          -498 -233 563 -89 callgsubr
          endchar
        </CharString>
        <CharString name="hungarumlaut">
          -191 49 585 -78 callgsubr
          endchar
        </CharString>
        <CharString name="hyphen">
          0 callsubr
        </CharString>
        <CharString name="i">
          -244 152 -83 callgsubr
          -10 -610 -98 callsubr
          endchar
        </CharString>
        <CharString name="i.loclTRK">
          -244 154 -83 callgsubr
          -12 -610 -98 callsubr
          endchar
        </CharString>
        <CharString name="iacute">
          -244 131 585 rmoveto
          -105 callgsubr
          11 -588 -98 callsubr
          endchar
        </CharString>
        <CharString name="iacute_j.loclNLD">
          5 131 585 rmoveto
          -105 callgsubr
          256 hmoveto
          -105 callgsubr
          -245 -588 -98 callsubr
          116 -209 -84 callsubr
        </CharString>
        <CharString name="ibreve">
          -244 154 -79 callsubr
          -12 -588 -98 callsubr
          endchar
        </CharString>
        <CharString name="icircumflex">
          -244 61 576 -107 callsubr
          81 -579 -98 callsubr
          endchar
        </CharString>
        <CharString name="idieresis">
          -244 91 607 -101 callgsubr
          -75 -610 -98 callsubr
          endchar
        </CharString>
        <CharString name="igrave">
          -244 164 585 -97 callsubr
          -22 -588 -98 callsubr
          endchar
        </CharString>
        <CharString name="ij">
          5 152 -83 callgsubr
          256 hmoveto
          33 14 9 13 -32 callsubr
          51 rlineto
          14 1 -13 8 -30 hhcurveto
          -33 -14 -9 -13 -87 callsubr
          12 -8 31 hhcurveto
          -266 -610 -98 callsubr
          116 -209 -84 callsubr
        </CharString>
        <CharString name="imacron">
          -244 56 612 -85 callgsubr
          86 -615 -98 callsubr
          endchar
        </CharString>
        <CharString name="infinity">
          132 477 444 rmoveto
          -73 -50 -57 -57 -29 hvcurveto
          82 -24 -42 32 -57 hhcurveto
          -84 -67 -69 -98 -10 hvcurveto
          -93 -10 47 -69 80 hhcurveto
          73 50 57 57 29 hvcurveto
          -82 24 42 -32 57 hhcurveto
          84 67 69 98 10 hvcurveto
          93 10 -47 69 -80 hhcurveto
          -306 -269 rmoveto
          -46 -21 46 58 6 hvcurveto
          61 6 34 47 45 hhcurveto
          39 31 -35 -76 16 hvcurveto
          -41 -20 -38 -60 -52 hhcurveto
          354 105 rmoveto
          -61 -6 -34 -47 -45 hhcurveto
          -39 -31 35 76 -16 hvcurveto
          41 20 38 60 52 hhcurveto
          46 21 -46 -58 -6 hvcurveto
          endchar
        </CharString>
        <CharString name="integral">
          -200 23 -159 rmoveto
          83 53 74 178 18 hvcurveto
          17 163 10 198 17 158 rrcurveto
          141 15 25 60 47 15 10 -6 3 hhcurveto
          10 9 11 20 3 hvcurveto
          27 2 -40 6 -23 hhcurveto
          -83 -53 -74 -178 -18 hvcurveto
          -17 -159 -10 -196 -17 -164 rrcurveto
          -141 -15 -25 -60 -47 -16 -9 6 -3 hhcurveto
          -10 -10 -11 -20 -2 hvcurveto
          -27 -3 41 -6 23 hhcurveto
          endchar
        </CharString>
        <CharString name="iogonek">
          -244 152 -83 callgsubr
          99 -714 rmoveto
          -14 callgsubr
          19 7 30 17 29 hvcurveto
          7 4 6 5 3 7 rrcurveto
          -31 callsubr
          -38 callsubr
          -11 11 46 5 hvcurveto
          13 126 14 125 13 126 rrcurveto
          8 callsubr
          -14 -6 -16 -2 hvcurveto
          -2 -18 -174 -123 -12 hvcurveto
          -3 -32 -2 -32 -3 -32 -8 -87 37 -21 33 -4 rrcurveto
          -18 -32 -6 -34 -21 -56 callsubr
          endchar
        </CharString>
        <CharString name="itilde">
          -244 33 592 rmoveto
          -77 callgsubr
          118 -599 -98 callsubr
          endchar
        </CharString>
        <CharString name="j">
          -249 154 -26 callgsubr
        </CharString>
        <CharString name="jcircumflex">
          -249 63 576 -107 callsubr
          -59 -788 -84 callsubr
        </CharString>
        <CharString name="k">
          -35 callgsubr
          endchar
        </CharString>
        <CharString name="kcommaaccent">
          -35 callgsubr
          -198 -576 rmoveto
          -10 hlineto
          -26 -12 -13 -19 hvcurveto
          -76 -29 -38 -23 vvcurveto
          -12 17 -3 11 27 57 60 96 17 -12 11 -23 vhcurveto
          endchar
        </CharString>
        <CharString name="kgreenlandic">
          37 158 526 rmoveto
          -4 hlineto
          -29 -12 42 callsubr
          -484 rlineto
          -14 9 -8 29 vhcurveto
          4 hlineto
          28 6 callgsubr
          17 callsubr
          4 hlineto
          196 -237 rlineto
          -12 9 22 -1 22 hhcurveto
          4 hlineto
          33 12 3 13 3 -2 4 -5 7 hvcurveto
          -201 244 218 220 rlineto
          8 8 4 8 5 vvcurveto
          6 -11 6 -23 vhcurveto
          -4 hlineto
          -22 -22 -3 -11 -10 hvcurveto
          -224 -228 rlineto
          -4 hlineto
          23 221 rlineto
          14 -9 8 -29 vhcurveto
          endchar
        </CharString>
        <CharString name="l">
          -228 157 -6 -3 callgsubr
        </CharString>
        <CharString name="lacute">
          -228 155 782 rmoveto
          -105 callgsubr
          2 -788 -3 callgsubr
        </CharString>
        <CharString name="lcaron">
          -228 157 -6 -74 callsubr
          127 534 -30 callgsubr
          endchar
        </CharString>
        <CharString name="lcommaaccent">
          -228 157 -6 -74 callsubr
          -76 -229 -78 callsubr
          endchar
        </CharString>
        <CharString name="ldot">
          -228 157 -6 -74 callsubr
          91 315 -2 callsubr
        </CharString>
        <CharString name="less">
          -50 359 10 rmoveto
          17 -9 9 11 2 21 1 14 rcurveline
          2 17 -5 11 -13 8 -252 145 rcurveline
          282 144 14 8 9 11 1 17 rlinecurve
          2 14 2 23 -8 9 -19 -9 rlinecurve
          -350 -174 -14 -7 -8 -11 -2 -17 rlinecurve
          -1 -17 -2 -17 6 -11 12 -7 rlinecurve
          endchar
        </CharString>
        <CharString name="lessequal">
          -45 372 114 rmoveto
          17 -9 10 12 2 20 1 14 rcurveline
          2 17 -6 11 -13 8 -251 145 rcurveline
          282 144 14 8 8 11 1 17 rlinecurve
          2 14 3 23 -10 9 -17 -9 rlinecurve
          -349 -174 -15 -7 -7 -11 -2 -17 rlinecurve
          -2 -17 -1 -17 5 -11 13 -7 rlinecurve
          -27 -288 4 callsubr
        </CharString>
        <CharString name="logicalnot">
          -49 351 77 rmoveto
          23 hlineto
          19 8 -23 callgsubr
          22 209 rlineto
          21 2 -7 9 -19 hhcurveto
          -346 -12 callsubr
          -1 -13 rlineto
          -21 -3 5 -9 13 hhcurveto
          297 hlineto
          -17 -166 -17 callgsubr
          8 -8 18 hhcurveto
          endchar
        </CharString>
        <CharString name="longs">
          -225 103 -2 rmoveto
          4 41 callsubr
          63 601 rlineto
          56 6 19 7 22 22 6 -6 8 hhcurveto
          15 11 39 8 1 hvcurveto
          21 2 -38 10 -30 hhcurveto
          -42 -74 -17 -110 -11 hvcurveto
          -12 -106 rlineto
          -29 hlineto
          -14 -6 -9 -21 -3 -8 callgsubr
          14 hhcurveto
          29 hlineto
          -45 -431 -17 callgsubr
          27 callsubr
          endchar
        </CharString>
        <CharString name="lozenge">
          -52 416 367 rmoveto
          -102 331 rlineto
          15 -5 -11 6 -18 hhcurveto
          -14 hlineto
          -17 -14 -6 -15 -6 hvcurveto
          -173 -331 -5 -7 -1 -6 -1 -7 rlinecurve
          -1 -6 1 -7 3 -7 101 -331 rcurveline
          -15 5 11 -6 17 hhcurveto
          17 hlineto
          18 13 6 15 7 hvcurveto
          171 330 4 8 2 6 1 7 rlinecurve
          1 7 -2 6 -2 7 rrcurveto
          -211 -305 rmoveto
          -80 285 140 281 77 -281 rlineto
          endchar
        </CharString>
        <CharString name="lslash">
          -228 237 476 rmoveto
          -3 -3 -2 -2 -4 hvcurveto
          -44 -26 30 284 -60 callsubr
          -36 -337 -32 -19 20 callgsubr
          27 16 -24 -229 rlineto
          -102 -11 63 -19 41 -58 callsubr
          -7 -6 -5 -19 hhcurveto
          -20 -16 11 46 5 hvcurveto
          29 274 49 29 35 callsubr
          vhcurveto
          endchar
        </CharString>
        <CharString name="m">
          222 676 25 callsubr
          31 1 hvcurveto
          16 16 140 10 103 vhcurveto
          117 11 -52 45 -65 hhcurveto
          -51 -49 -31 -46 -35 hvcurveto
          56 -15 -44 21 -47 hhcurveto
          -53 -47 -32 -43 -31 hvcurveto
          32 -3 3 36 -25 hhcurveto
          -11 -47 -5 -18 -2 hvcurveto
          -1 -6 6 -38 -8 -82 -38 -353 rcurveline
          -14 -1 10 -8 26 hhcurveto
          11 hlineto
          27 12 16 callgsubr
          23 8 39 47 49 hhcurveto
          47 18 -36 -61 -6 hvcurveto
          -36 -339 -66 callsubr
          11 21 callsubr
          40 366 rlineto
          32 15 37 38 41 hhcurveto
          43 17 -36 -61 -6 hvcurveto
          -21 -200 -5 -45 -21 vvcurveto
          -80 1 49 -16 34 hhcurveto
          41 24 16 40 11 39 callsubr
          -267 292 rmoveto
          1 vlineto
          endchar
        </CharString>
        <CharString name="macron">
          -243 64 612 -85 callgsubr
          endchar
        </CharString>
        <CharString name="minus">
          -49 39 186 rmoveto
          355 23 callgsubr
          13 16 callsubr
          -355 -13 callgsubr
          -13 -53 callsubr
          endchar
        </CharString>
        <CharString name="multiply">
          -50 411 430 rmoveto
          -16 15 -9 8 -9 5 -12 -12 rlinecurve
          -146 -172 -112 172 -9 14 -11 -9 -9 -6 rlinecurve
          -19 -15 -13 -10 6 -9 8 -13 rlinecurve
          112 -171 -148 -171 -11 -13 -4 -9 11 -10 rlinecurve
          16 -15 8 -6 9 -9 12 14 rlinecurve
          143 166 106 -166 9 -12 11 5 10 8 rlinecurve
          19 15 12 9 -1 6 -12 17 rlinecurve
          -107 165 151 177 15 17 0 6 -10 9 rlinecurve
          endchar
        </CharString>
        <CharString name="n">
          437 71 -98 callgsubr
          endchar
        </CharString>
        <CharString name="nacute">
          255 585 rmoveto
          -105 callgsubr
          182 -514 -98 callgsubr
          endchar
        </CharString>
        <CharString name="nacute.loclPLK">
          263 585 -76 callgsubr
          174 -514 -98 callgsubr
          endchar
        </CharString>
        <CharString name="napostrophe">
          48 537 -78 callsubr
          389 -466 -98 callgsubr
          endchar
        </CharString>
        <CharString name="ncaron">
          270 583 -103 callsubr
          167 -512 -98 callgsubr
          endchar
        </CharString>
        <CharString name="ncommaaccent">
          437 71 -98 callgsubr
          -261 -306 -78 callsubr
          endchar
        </CharString>
        <CharString name="nine">
          -39 79 -4 rmoveto
          64 266 163 296 31 hvcurveto
          152 16 -53 96 -126 hhcurveto
          -109 -93 -80 -129 -14 hvcurveto
          -121 -12 62 -80 97 hhcurveto
          47 41 14 19 30 hvcurveto
          -43 -113 -85 -97 -137 -56 rrcurveto
          -7 -3 -2 -5 -3 vvcurveto
          -12 -2 8 -41 21 hhcurveto
          164 369 rmoveto
          -56 -50 37 96 10 hvcurveto
          93 10 62 40 48 hhcurveto
          50 54 -32 -141 -14 hvcurveto
          -2 -20 -4 -20 -4 -20 rrcurveto
          -15 -24 -39 -18 -41 hhcurveto
          endchar
        </CharString>
        <CharString name="notequal">
          -49 397 338 rmoveto
          -66 hlineto
          41 63 rlineto
          19 12 -1 12 -32 hhcurveto
          -6 hlineto
          -18 -7 -8 -12 -8 hvcurveto
          -48 -74 rlineto
          -195 9 callsubr
          -7 20 callsubr
          158 hlineto
          -62 -96 rlineto
          -106 9 callsubr
          -8 20 callsubr
          68 hlineto
          -42 -65 rlineto
          -22 -13 0 -11 36 hhcurveto
          4 hlineto
          19 5 6 14 9 hvcurveto
          51 78 rlineto
          191 28 callgsubr
          -154 hlineto
          62 96 rlineto
          102 hlineto
          16 38 callgsubr
          -16 hhcurveto
          endchar
        </CharString>
        <CharString name="ntilde">
          144 592 rmoveto
          -104 callsubr
          303 -525 -98 callgsubr
          endchar
        </CharString>
        <CharString name="numbersign">
          16 88 -2 rmoveto
          7 hlineto
          27 10 7 14 3 hvcurveto
          43 177 rlineto
          100 hlineto
          -33 -138 -9 -35 -1 -6 rrcurveto
          -13 -1 8 -6 20 hhcurveto
          8 hlineto
          26 11 7 14 3 hvcurveto
          43 177 rlineto
          81 29 callsubr
          -70 hlineto
          36 147 rlineto
          77 29 callsubr
          -65 hlineto
          41 169 rlineto
          13 3 -9 7 -21 hhcurveto
          -9 hlineto
          -28 -9 -7 -14 -4 hvcurveto
          -40 -168 rlineto
          -100 hlineto
          42 169 rlineto
          13 3 -8 7 -22 hhcurveto
          -7 hlineto
          -28 -9 -7 -14 -4 hvcurveto
          -41 -168 22 callsubr
          70 hlineto
          -36 -147 22 callsubr
          68 hlineto
          -32 -130 -11 -44 -1 -6 rrcurveto
          -12 -1 9 -6 20 hhcurveto
          110 275 rmoveto
          36 147 rlineto
          100 hlineto
          -36 -147 rlineto
          endchar
        </CharString>
        <CharString name="o">
          -21 212 -6 -97 callgsubr
        </CharString>
        <CharString name="oacute">
          -21 251 585 rmoveto
          -105 callgsubr
          -39 -591 -97 callgsubr
        </CharString>
        <CharString name="oacute.loclPLK">
          -21 259 585 -76 callgsubr
          -47 -591 -97 callgsubr
        </CharString>
        <CharString name="obreve">
          -21 274 -79 callsubr
          -62 -591 -97 callgsubr
        </CharString>
        <CharString name="ocircumflex">
          -43 callsubr
          endchar
        </CharString>
        <CharString name="odieresis">
          -21 211 607 -101 callgsubr
          -125 -613 -97 callgsubr
        </CharString>
        <CharString name="oe">
          224 650 115 rmoveto
          -55 callgsubr
          9 vlineto
          -3 17 22 -3 28 hhcurveto
          127 97 60 123 51 -33 82 -107 -72 -55 -29 -48 -38 hvcurveto
          50 -26 -44 27 -62 hhcurveto
          -131 -72 -97 -173 -18 hvcurveto
          -172 -18 51 -93 132 hhcurveto
          61 50 24 47 35 hvcurveto
          -59 37 66 -12 55 hhcurveto
          35 66 15 33 30 hvcurveto
          13 15 4 20 17 vvcurveto
          11 -5 10 -9 vhcurveto
          -432 -49 rmoveto
          -72 -24 62 133 14 hvcurveto
          134 14 38 62 72 hhcurveto
          54 30 -32 -67 7 hvcurveto
          -16 -48 -8 -56 -60 vvcurveto
          -12 1 -12 1 -11 vhcurveto
          -63 -22 -36 -30 -53 hhcurveto
          338 391 -32 callgsubr
        </CharString>
        <CharString name="ogonek">
          -242 135 -183 rmoveto
          24 23 6 13 19 hvcurveto
          9 6 4 9 12 vvcurveto
          15 -7 9 -13 vhcurveto
          -14 callgsubr
          20 8 31 18 30 hvcurveto
          -43 16 rlineto
          -34 -39 -10 -49 -27 vvcurveto
          -25 9 -63 83 vhcurveto
          endchar
        </CharString>
        <CharString name="ograve">
          -21 284 585 -97 callsubr
          -72 -591 -97 callgsubr
        </CharString>
        <CharString name="ohorn">
          -21 485 547 -90 callgsubr
          endchar
        </CharString>
        <CharString name="ohungarumlaut">
          -21 196 585 -78 callgsubr
          -112 -591 -97 callgsubr
        </CharString>
        <CharString name="omacron">
          -21 176 612 -85 callgsubr
          36 -618 -97 callgsubr
        </CharString>
        <CharString name="one">
          -39 48 hmoveto
          330 hlineto
          14 6 9 21 3 -27 callsubr
          -14 hhcurveto
          -113 hlineto
          64 609 rlineto
          12 1 -15 9 -15 hhcurveto
          -206 -45 -13 -3 -6 -5 -1 -11 rlinecurve
          -18 -2 2 -33 14 hhcurveto
          150 24 -57 -539 rlineto
          -133 41 callgsubr
          -1 -12 rlineto
          -21 -3 6 -9 14 hhcurveto
          endchar
        </CharString>
        <CharString name="oneeighth">
          130 132 -46 callgsubr
          13 299 -54 callgsubr
          314 -301 rmoveto
          66 52 43 77 8 hvcurveto
          7 62 -28 25 -33 19 33 16 27 30 5 49 rrcurveto
          70 7 -46 30 -51 hhcurveto
          -55 -49 -35 -69 -7 hvcurveto
          -5 -48 18 -27 24 -17 -33 -17 -32 -30 -6 -61 rrcurveto
          -79 -8 45 -38 61 hhcurveto
          36 245 rmoveto
          -30 16 -25 17 5 42 rrcurveto
          40 4 24 18 28 hhcurveto
          28 21 -18 -41 -4 hvcurveto
          -4 -35 -19 -22 -28 -17 rrcurveto
          -31 -202 rmoveto
          -32 -26 24 53 6 hvcurveto
          4 44 21 24 29 18 37 -19 37 -14 -6 -53 rrcurveto
          -48 -4 -31 -29 -35 hhcurveto
          endchar
        </CharString>
        <CharString name="onehalf">
          143 138 -46 callgsubr
          7 299 -54 callgsubr
          221 -297 -51 callgsubr
          endchar
        </CharString>
        <CharString name="onequarter">
          88 129 -46 callgsubr
          16 299 -54 callgsubr
          303 -299 rmoveto
          -29 callgsubr
        </CharString>
        <CharString name="ordfeminine">
          -217 134 439 rmoveto
          23 23 12 32 16 hvcurveto
          -35 2 22 -8 19 hhcurveto
          33 13 11 21 6 -1 6 -4 hvcurveto
          -4 -3 -2 -6 hhcurveto
          -7 -5 4 17 1 hvcurveto
          2 36 7 52 6 48 rrcurveto
          2 19 4 31 6 vvcurveto
          6 -5 5 -12 vhcurveto
          -14 hlineto
          -17 -3 -10 -15 -5 hvcurveto
          11 -9 -16 16 -28 hhcurveto
          -55 -42 -50 -83 -10 hvcurveto
          -66 -8 16 -70 65 hhcurveto
          17 49 rmoveto
          -31 -3 46 43 5 hvcurveto
          52 6 16 30 34 hhcurveto
          18 10 -6 -4 7 hvcurveto
          -2 -8 -1 -9 -1 -11 -9 -83 rcurveline
          -37 -12 -20 -13 -17 hhcurveto
          endchar
        </CharString>
        <CharString name="ordmasculine">
          -206 166 440 rmoveto
          73 45 47 86 9 hvcurveto
          86 9 -35 49 -73 hhcurveto
          -73 -46 -49 -86 -9 hvcurveto
          -85 -9 35 -48 74 hhcurveto
          5 56 rmoveto
          -33 -13 25 53 6 hvcurveto
          53 5 18 25 33 hhcurveto
          34 12 -26 -52 -5 hvcurveto
          -53 -6 -17 -25 -34 hhcurveto
          endchar
        </CharString>
        <CharString name="oslash">
          -21 400 462 -45 callgsubr
        </CharString>
        <CharString name="oslashacute">
          -21 247 585 rmoveto
          -105 callgsubr
          153 -123 -45 callgsubr
        </CharString>
        <CharString name="otilde">
          -21 140 592 rmoveto
          -104 callsubr
          82 -602 -97 callgsubr
        </CharString>
        <CharString name="p">
          -14 65 -208 rmoveto
          10 -7 callgsubr
          24 231 rlineto
          -29 23 28 -22 49 hhcurveto
          99 77 96 169 17 hvcurveto
          159 17 -48 111 -98 hhcurveto
          -45 -46 -24 -51 -36 hvcurveto
          34 -3 3 34 -25 hhcurveto
          -11 -47 -4 -18 -2 hvcurveto
          -1 -6 6 -39 -9 -82 -58 -559 rcurveline
          -37 callgsubr
          162 276 rmoveto
          -33 -27 15 30 -20 hvcurveto
          29 274 rlineto
          44 30 37 25 33 hhcurveto
          59 22 35 callgsubr
        </CharString>
        <CharString name="paragraph">
          -32 186 -173 rmoveto
          14 hlineto
          17 8 -23 callgsubr
          83 789 rlineto
          78 hlineto
          -83 -789 -17 callgsubr
          6 -8 17 hhcurveto
          14 hlineto
          17 8 -23 callgsubr
          83 789 rlineto
          30 hlineto
          14 6 7 17 2 hvcurveto
          2 14 rlineto
          17 1 -5 7 -14 hhcurveto
          -207 hlineto
          -112 -103 -107 -131 -14 hvcurveto
          -13 -123 69 -101 98 -14 -39 -375 rcurveline
          -14 -2 6 -8 17 hhcurveto
          endchar
        </CharString>
        <CharString name="parenleft">
          -249 154 -212 rmoveto
          15 15 18 10 1 hvcurveto
          1 6 -2 7 -6 7 -74 100 -25 168 20 182 19 182 59 168 97 100 8 8 2 7 1 7 rrcurveto
          14 2 -17 11 -12 hhcurveto
          -7 -8 -3 -7 -7 hvcurveto
          -113 -101 -84 -181 -21 -205 -22 -205 44 -182 93 -100 rrcurveto
          -7 7 7 -4 7 hhcurveto
          endchar
        </CharString>
        <CharString name="parenright">
          -249 -6 -212 rmoveto
          7 9 4 7 7 hvcurveto
          113 101 84 181 22 205 21 205 -44 182 -93 100 rrcurveto
          7 -7 -6 3 -7 hhcurveto
          -14 -18 -14 -12 -1 hvcurveto
          -1 -6 3 -7 5 -8 76 -100 24 -168 -19 -182 -20 -184 -61 -169 -96 -100 -6 -6 -3 -6 -1 -5 rrcurveto
          -11 -1 13 -17 14 hhcurveto
          endchar
        </CharString>
        <CharString name="partialdiff">
          -87 161 -6 rmoveto
          97 109 67 276 29 hvcurveto
          260 27 -76 141 -128 hhcurveto
          -64 -56 -28 -31 -3 hvcurveto
          -14 -2 18 -30 11 10 23 30 45 hhcurveto
          71 50 -113 -183 -17 hvcurveto
          31 -23 -37 14 -39 hhcurveto
          -87 -86 -84 -139 -14 hvcurveto
          -149 -16 83 -48 75 hhcurveto
          7 67 rmoveto
          -61 -7 72 57 6 hvcurveto
          76 8 46 78 55 hhcurveto
          38 21 -17 -33 21 hvcurveto
          -136 -14 -52 -97 -61 hhcurveto
          endchar
        </CharString>
        <CharString name="percent">
          188 -47 callsubr
          6 56 rmoveto
          0 callgsubr
          endchar
        </CharString>
        <CharString name="period">
          -310 57 -2 rmoveto
          -51 callsubr
          endchar
        </CharString>
        <CharString name="periodcentered">
          -284 115 309 -2 callsubr
        </CharString>
        <CharString name="perthousand">
          488 -47 callsubr
          303 hmoveto
          57 71 27 134 14 hvcurveto
          135 14 -65 29 -57 hhcurveto
          -60 -68 -29 -135 -14 hvcurveto
          -134 -14 65 -27 57 hhcurveto
          -297 56 rmoveto
          0 callgsubr
          303 hmoveto
          0 callgsubr
          endchar
        </CharString>
        <CharString name="pi">
          9 62 -2 rmoveto
          15 hlineto
          19 15 9 16 7 hvcurveto
          41 103 44 198 18 127 rrcurveto
          126 hlineto
          -32 -305 rlineto
          -106 -11 -2 -42 38 hhcurveto
          20 hlineto
          22 10 10 15 2 hvcurveto
          3 25 -3 38 7 68 31 297 rcurveline
          42 hlineto
          16 8 4 18 4 hvcurveto
          6 26 0 3 2 vvcurveto
          15 2 -8 4 -15 hhcurveto
          -324 hlineto
          -68 -54 -10 -34 -3 hvcurveto
          -23 -3 1 -14 19 12 13 9 56 hhcurveto
          -19 -131 -42 -180 -41 -112 rrcurveto
          -1 -3 -1 -3 -3 vvcurveto
          -12 -2 11 -9 21 hhcurveto
          endchar
        </CharString>
        <CharString name="plus">
          -49 248 463 rmoveto
          -7 hlineto
          -24 -7 -6 -14 -1 hvcurveto
          -19 -179 rlineto
          -129 hlineto
          -14 -10 -9 -28 -20 2 -10 15 hvcurveto
          129 hlineto
          -19 -179 rlineto
          -14 6 -6 22 vhcurveto
          7 hlineto
          19 11 6 14 2 hvcurveto
          19 179 rlineto
          128 hlineto
          14 10 9 28 20 -2 10 -15 hvcurveto
          -128 hlineto
          19 179 rlineto
          14 -7 6 -21 vhcurveto
          endchar
        </CharString>
        <CharString name="plusminus">
          -49 263 593 rmoveto
          -7 hlineto
          -19 -12 -10 -20 -2 hvcurveto
          -18 -169 rlineto
          -127 hlineto
          -21 -13 -22 -19 -15 6 -11 21 hvcurveto
          127 hlineto
          -18 -168 rlineto
          -19 6 -11 21 vhcurveto
          7 hlineto
          20 11 11 19 2 hvcurveto
          18 168 rlineto
          125 hlineto
          22 12 23 18 16 -6 10 -21 hvcurveto
          -125 hlineto
          18 169 rlineto
          20 -6 10 -21 vhcurveto
          110 -520 rmoveto
          -339 hlineto
          -22 -13 -27 -20 -17 6 -9 21 hvcurveto
          339 hlineto
          21 14 25 22 16 -6 10 -21 hvcurveto
          endchar
        </CharString>
        <CharString name="product">
          102 612 700 rmoveto
          -526 hlineto
          -14 -11 -9 -33 -20 2 -10 15 hvcurveto
          83 18 callgsubr
          188 18 callgsubr
          83 hlineto
          14 11 9 33 20 -2 10 -15 hvcurveto
          endchar
        </CharString>
        <CharString name="q">
          -17 311 -208 rmoveto
          11 hlineto
          26 13 -23 callgsubr
          72 689 rlineto
          14 1 -9 8 -23 hhcurveto
          -6 hlineto
          -16 -11 -3 -9 -5 hvcurveto
          -6 -20 -6 -19 -5 -20 rrcurveto
          51 -26 -40 24 -45 hhcurveto
          -95 -74 -109 -162 -17 hvcurveto
          -169 -18 58 -95 98 hhcurveto
          50 32 22 29 29 hvcurveto
          -24 -231 -17 callgsubr
          10 -8 26 hhcurveto
          -93 276 rmoveto
          -66 -24 67 122 13 hvcurveto
          125 13 38 74 59 hhcurveto
          33 30 -25 -44 22 hvcurveto
          -29 -274 rlineto
          -30 -25 -31 -15 -33 hhcurveto
          endchar
        </CharString>
        <CharString name="question">
          -107 133 202 rmoveto
          15 hlineto
          24 7 7 13 4 hvcurveto
          12 51 38 39 51 51 51 53 55 54 7 72 rrcurveto
          91 10 -66 73 -120 hhcurveto
          -67 -88 -23 -34 -3 hvcurveto
          -14 -2 18 -37 10 14 41 34 60 hhcurveto
          70 34 -33 -65 -6 hvcurveto
          -6 -54 -41 -41 -51 -50 -59 -59 -35 -60 -5 -45 rrcurveto
          -14 -1 8 -9 21 hhcurveto
          -25 -204 rmoveto
          17 41 callsubr
          7 66 7 callsubr
          -17 21 callgsubr
          -7 -66 -17 callgsubr
          27 callsubr
          endchar
        </CharString>
        <CharString name="questiondown">
          -107 282 525 rmoveto
          -17 -50 callgsubr
          -2 hvcurveto
          -7 -66 rlineto
          19 callgsubr
          17 hlineto
          28 11 callsubr
          7 66 7 callgsubr
          -25 -204 rmoveto
          -15 hlineto
          -24 -7 -7 -13 -4 hvcurveto
          -12 -51 -38 -39 -51 -51 -51 -53 -55 -54 -7 -72 rrcurveto
          -91 -10 66 -73 120 hhcurveto
          67 88 23 34 3 hvcurveto
          14 2 -18 37 -10 -14 -41 -34 -60 hhcurveto
          -70 -34 33 65 6 hvcurveto
          6 54 41 41 51 50 59 59 35 60 5 45 rrcurveto
          14 1 -8 9 -21 hhcurveto
          endchar
        </CharString>
        <CharString name="quotedbl">
          -189 111 472 rmoveto
          -21 callgsubr
          128 hmoveto
          -21 callgsubr
          endchar
        </CharString>
        <CharString name="quotedblbase">
          -150 26 -116 -24 callsubr
        </CharString>
        <CharString name="quotedblleft">
          -150 104 515 rmoveto
          -20 callsubr
          141 hmoveto
          -20 callsubr
          endchar
        </CharString>
        <CharString name="quotedblright">
          -150 65 530 -24 callsubr
        </CharString>
        <CharString name="quoteleft">
          -288 106 515 rmoveto
          -20 callsubr
          endchar
        </CharString>
        <CharString name="quoteright">
          -288 96 530 3 callgsubr
          endchar
        </CharString>
        <CharString name="quotesinglbase">
          -288 28 -116 3 callgsubr
          endchar
        </CharString>
        <CharString name="quotesingle">
          -334 103 472 rmoveto
          -21 callgsubr
          endchar
        </CharString>
        <CharString name="quotesingle.loclGUA">
          -327 83 396 rmoveto
          21 1 52 107 18 168 rrcurveto
          17 2 -14 11 -25 hhcurveto
          -9 hlineto
          -27 -14 -13 -19 -2 hvcurveto
          -29 -257 rlineto
          -12 -2 18 -3 11 hhcurveto
          endchar
        </CharString>
        <CharString name="r">
          -161 96 -2 -14 callsubr
        </CharString>
        <CharString name="racute">
          -161 184 582 rmoveto
          -105 callgsubr
          -88 -584 -14 callsubr
        </CharString>
        <CharString name="radical">
          -4 262 -150 rmoveto
          23 hlineto
          18 14 8 13 3 hvcurveto
          182 921 rlineto
          8 vlineto
          7 -8 6 -20 vhcurveto
          -14 hlineto
          -21 -13 -8 -13 -2 hvcurveto
          -139 -761 -5 -20 -6 -29 -2 -20 rlinecurve
          -2 hlineto
          -3 20 -6 24 -10 28 -83 325 rcurveline
          14 -3 -7 7 -9 hhcurveto
          -13 -60 -32 -18 -35 hvcurveto
          -10 -5 -5 -4 -8 vvcurveto
          -3 1 -3 8 -22 vhcurveto
          -10 3 6 -3 7 hhcurveto
          5 6 3 21 40 hvcurveto
          124 -425 rlineto
          -15 4 13 -6 19 hhcurveto
          endchar
        </CharString>
        <CharString name="rcaron">
          -161 199 580 -103 callsubr
          -103 -582 -14 callsubr
        </CharString>
        <CharString name="rcommaaccent">
          -161 96 -2 -72 callsubr
          -41 -235 -78 callsubr
          endchar
        </CharString>
        <CharString name="registered">
          -12 callgsubr
          -77 102 rmoveto
          8 hlineto
          16 6 5 8 hvcurveto
          170 33 vlineto
          34 14 -12 -46 14 hvcurveto
          35 -116 rlineto
          -5 1 9 -4 11 hhcurveto
          10 hlineto
          15 7 4 5 2 0 3 -2 4 hvcurveto
          -36 116 -12 39 -11 26 -17 9 rlinecurve
          2 vlineto
          32 16 22 33 51 vvcurveto
          74 -38 30 -75 vhcurveto
          -82 hlineto
          -11 -5 -5 -13 hvcurveto
          -383 vlineto
          -8 7 -5 15 vhcurveto
          29 228 rmoveto
          141 52 vlineto
          32 22 -21 -48 -39 -23 -33 -28 hvcurveto
          endchar
        </CharString>
        <CharString name="ring">
          -242 160 -33 callgsubr
          endchar
        </CharString>
        <CharString name="s">
          -24 callgsubr
          endchar
        </CharString>
        <CharString name="sacute">
          -145 193 585 rmoveto
          -105 callgsubr
          -56 -594 -87 callgsubr
          endchar
        </CharString>
        <CharString name="sacute.loclPLK">
          -145 201 585 -76 callgsubr
          -64 -594 -87 callgsubr
          endchar
        </CharString>
        <CharString name="scaron">
          -145 208 583 -103 callsubr
          -71 -592 -87 callgsubr
          endchar
        </CharString>
        <CharString name="scedilla">
          -145 214 458 rmoveto
          42 24 -25 6 hhcurveto
          11 24 39 15 2 hvcurveto
          23 2 -55 20 -54 hhcurveto
          -84 -69 -57 -85 -9 hvcurveto
          -7 -75 34 -39 66 -31 52 -27 30 -28 -5 -50 rrcurveto
          -49 -5 -31 -24 -48 -56 -29 39 -8 hhcurveto
          -11 -27 -37 -14 -2 hvcurveto
          -2 -21 50 -38 72 -3 rrcurveto
          -19 -56 -1 -6 -63 callgsubr
          15 54 71 12 58 54 8 80 rlinecurve
          9 84 -38 41 -73 35 -39 21 -31 26 5 50 rrcurveto
          40 5 33 21 37 hhcurveto
          endchar
        </CharString>
        <CharString name="scircumflex">
          -145 123 576 -107 callsubr
          14 -585 -87 callgsubr
          endchar
        </CharString>
        <CharString name="scommaaccent">
          -24 callgsubr
          -31 -226 -78 callsubr
          endchar
        </CharString>
        <CharString name="section">
          -143 143 -6 rmoveto
          75 76 45 91 9 hvcurveto
          5 47 -17 34 -25 24 rrcurveto
          44 28 26 45 52 vvcurveto
          67 -33 32 -61 33 vhcurveto
          -39 19 -45 18 5 48 rrcurveto
          36 4 27 20 40 42 21 -24 10 hhcurveto
          13 23 41 14 23 -64 18 -42 -75 -74 -45 -89 -9 hvcurveto
          -5 -47 17 -32 25 -23 rrcurveto
          -47 -27 -26 -48 -55 vvcurveto
          -58 35 -37 52 -26 vhcurveto
          57 -31 38 -15 -5 -47 rrcurveto
          -34 -4 -26 -23 -44 -51 -24 32 -9 hhcurveto
          -9 -30 -36 -18 -26 69 -26 51 hvcurveto
          54 282 rmoveto
          -40 17 -34 18 5 50 5 42 26 18 24 7 41 -20 33 -17 -5 -48 -5 -42 -25 -19 -25 -6 rrcurveto
          endchar
        </CharString>
        <CharString name="semicolon">
          -310 95 -16 callgsubr
          -127 -531 1 callgsubr
        </CharString>
        <CharString name="seven">
          -39 94 -2 rmoveto
          12 hlineto
          20 17 5 11 5 hvcurveto
          318 624 3 11 rlineto
          20 2 -9 31 -8 hhcurveto
          -355 41 callgsubr
          -1 -12 rlineto
          -21 -3 6 -9 14 hhcurveto
          278 hlineto
          -309 -598 rlineto
          -3 -6 -3 -6 -3 vvcurveto
          -13 -1 12 -4 28 hhcurveto
          endchar
        </CharString>
        <CharString name="six">
          -39 199 -5 rmoveto
          110 92 80 129 14 hvcurveto
          121 13 -63 80 -97 hhcurveto
          -47 -40 -14 -19 -30 hvcurveto
          43 114 86 96 137 56 7 3 1 5 1 3 rrcurveto
          12 1 -8 41 -21 hhcurveto
          -65 -266 -163 -296 -31 hvcurveto
          -152 -16 54 -96 125 hhcurveto
          11 72 rmoveto
          -50 -55 33 141 15 hvcurveto
          2 19 3 21 4 20 rrcurveto
          15 25 39 17 41 hhcurveto
          56 50 -37 -95 -10 hvcurveto
          -94 -10 -61 -40 -49 hhcurveto
          endchar
        </CharString>
        <CharString name="slash">
          -178 12 -2 callgsubr
        </CharString>
        <CharString name="space">
          -361 endchar
        </CharString>
        <CharString name="sterling">
          -87 9 hmoveto
          333 hlineto
          14 6 9 21 3 -27 callsubr
          -14 hhcurveto
          -240 hlineto
          22 13 39 26 15 138 9 90 rcurveline
          118 37 callgsubr
          -11 callgsubr
          -14 hhcurveto
          -118 hlineto
          9 92 rlineto
          91 10 35 40 72 32 22 -9 8 hhcurveto
          16 11 45 4 hvcurveto
          27 3 -62 5 -38 hhcurveto
          -124 -56 -82 -126 -13 hvcurveto
          -9 -87 rlineto
          -55 41 callgsubr
          -2 -12 33 callgsubr
          55 hlineto
          -19 -180 -9 -86 -84 16 -5 -43 rlinecurve
          -1 -16 rlineto
          -21 -3 6 -9 14 hhcurveto
          endchar
        </CharString>
        <CharString name="summation">
          -24 468 700 rmoveto
          -370 hlineto
          -18 -10 -8 -16 -1 hvcurveto
          -1 -2 -1 -14 3 -11 5 -11 rlinecurve
          153 -326 -232 -348 -8 -11 -4 -10 -2 -13 rlinecurve
          -2 vlineto
          -20 -2 8 -10 18 hhcurveto
          392 hlineto
          16 9 10 20 2 hvcurveto
          3 25 rlineto
          19 2 -7 11 -16 hhcurveto
          -296 hlineto
          -1 4 205 303 5 8 2 6 1 7 rlinecurve
          1 7 -2 7 -3 7 -137 292 rcurveline
          1 4 rlineto
          278 hlineto
          17 24 callgsubr
          12 37 callsubr
          -17 hhcurveto
          endchar
        </CharString>
        <CharString name="t">
          -200 183 -6 -68 callsubr
          endchar
        </CharString>
        <CharString name="tbar">
          -200 259 330 rmoveto
          -80 hlineto
          4 35 5 40 5 46 rrcurveto
          44 hlineto
          38 7 49 4 14 -4 5 -12 hvcurveto
          -65 hlineto
          11 105 rlineto
          8 callsubr
          -13 -6 -16 -2 hvcurveto
          -12 -105 rlineto
          -36 hlineto
          -24 -1 -34 -11 -16 3 -11 14 hvcurveto
          36 hlineto
          -13 -121 rlineto
          -36 -71 callgsubr
          36 hlineto
          -9 -90 -4 -47 -17 15 callsubr
          37 4 46 8 68 hvcurveto
          81 hlineto
          14 6 -62 callgsubr
          1 10 16 callsubr
          endchar
        </CharString>
        <CharString name="tcaron">
          -200 303 578 -30 callgsubr
          -120 -584 -68 callsubr
          endchar
        </CharString>
        <CharString name="thorn">
          -15 64 -208 rmoveto
          11 hlineto
          26 11 -23 callgsubr
          24 231 rlineto
          -29 23 28 -22 50 hhcurveto
          98 77 96 168 18 hvcurveto
          161 17 -51 110 -96 hhcurveto
          -42 -42 -21 -44 -36 hvcurveto
          28 266 7 callgsubr
          -6 -50 callgsubr
          -2 hvcurveto
          -96 -916 -17 callgsubr
          11 -8 27 hhcurveto
          162 276 rmoveto
          -33 -28 15 30 -20 hvcurveto
          29 274 rlineto
          44 31 36 25 33 hhcurveto
          59 23 35 callgsubr
        </CharString>
        <CharString name="three">
          -39 167 -6 rmoveto
          116 103 70 136 15 hvcurveto
          11 112 -61 59 -57 16 1 4 rcurveline
          55 22 54 41 9 81 rrcurveto
          108 11 -67 63 -119 hhcurveto
          -58 -99 -23 -30 -3 hvcurveto
          -15 -1 18 -37 11 14 35 33 71 hhcurveto
          91 15 -57 -40 -4 hvcurveto
          -46 -5 -38 -84 -97 hhcurveto
          -36 41 callgsubr
          -1 -11 33 callgsubr
          40 hlineto
          84 56 -30 -100 -11 hvcurveto
          -112 -12 -83 -28 -57 -74 -37 35 -16 hhcurveto
          -11 -27 -31 -19 -2 hvcurveto
          -26 -3 80 -31 95 hhcurveto
          endchar
        </CharString>
        <CharString name="threequarters">
          129 133 293 -75 callsubr
          46 -295 8 callgsubr
          -311 -671 rlineto
          -2 -4 -2 -4 -2 vvcurveto
          -5 5 -2 8 vhcurveto
          337 hmoveto
          -29 callgsubr
        </CharString>
        <CharString name="tilde">
          -206 24 592 rmoveto
          -104 callsubr
          endchar
        </CharString>
        <CharString name="tildecomb">
          -498 -121 592 rmoveto
          -104 callsubr
          endchar
        </CharString>
        <CharString name="trademark">
          119 311 305 rmoveto
          7 hlineto
          15 7 4 8 hvcurveto
          271 5 vlineto
          78 -185 rlineto
          -5 2 4 -2 6 hhcurveto
          17 hlineto
          6 4 2 5 2 hvcurveto
          76 182 rlineto
          6 -268 hlineto
          -8 6 -4 16 vhcurveto
          6 hlineto
          15 7 4 8 hvcurveto
          372 vlineto
          8 -7 4 -15 vhcurveto
          -18 hlineto
          -11 -8 -3 -7 -3 hvcurveto
          -79 -188 -12 -32 -13 35 -78 185 rlineto
          7 -2 -8 3 -11 hhcurveto
          -20 hlineto
          -15 -6 -4 -8 hvcurveto
          -372 vlineto
          -8 6 -4 15 vhcurveto
          -166 hmoveto
          8 hlineto
          15 7 5 7 hvcurveto
          340 79 vlineto
          8 3 5 12 hvcurveto
          9 vlineto
          12 -3 5 -8 vhcurveto
          -211 hlineto
          -8 -3 -5 -12 hvcurveto
          -9 vlineto
          -12 3 -5 8 vhcurveto
          81 -340 hlineto
          -7 6 -5 15 vhcurveto
          endchar
        </CharString>
        <CharString name="two">
          -39 17 hmoveto
          348 hlineto
          14 43 callgsubr
          1 11 -21 callsubr
          -14 hhcurveto
          -258 hlineto
          156 201 132 151 28 42 8 74 rlinecurve
          104 11 -74 63 -114 hhcurveto
          -71 -105 -35 -39 -4 hvcurveto
          -16 -2 19 -35 11 16 40 53 85 hhcurveto
          69 39 -38 -64 -7 hvcurveto
          -4 -42 -16 -27 -54 -68 -270 -334 rcurveline
          -3 -3 -2 -7 -1 -7 rrcurveto
          -19 -2 6 -25 12 hhcurveto
          endchar
        </CharString>
        <CharString name="u">
          439 74 rmoveto
          -69 callsubr
          11 100 10 101 11 100 rrcurveto
          -70 callsubr
          -10 -103 callgsubr
          hhcurveto
          endchar
        </CharString>
        <CharString name="uacute">
          247 585 rmoveto
          -105 callgsubr
          192 -511 rmoveto
          -69 callsubr
          11 100 10 101 11 100 rrcurveto
          -70 callsubr
          -10 -103 callgsubr
          hhcurveto
          endchar
        </CharString>
        <CharString name="ubreve">
          270 -79 callsubr
          169 -511 rmoveto
          -69 callsubr
          11 100 10 101 11 100 rrcurveto
          -70 callsubr
          -10 -103 callgsubr
          hhcurveto
          endchar
        </CharString>
        <CharString name="ucircumflex">
          177 576 -107 callsubr
          262 -502 rmoveto
          -69 callsubr
          11 100 10 101 11 100 rrcurveto
          -70 callsubr
          -10 -103 callgsubr
          hhcurveto
          endchar
        </CharString>
        <CharString name="udieresis">
          207 607 -101 callgsubr
          106 -533 rmoveto
          -69 callsubr
          11 100 10 101 11 100 rrcurveto
          -70 callsubr
          -10 -103 callgsubr
          hhcurveto
          endchar
        </CharString>
        <CharString name="ugrave">
          280 585 -97 callsubr
          159 -511 rmoveto
          -69 callsubr
          11 100 10 101 11 100 rrcurveto
          -70 callsubr
          -10 -103 callgsubr
          hhcurveto
          endchar
        </CharString>
        <CharString name="uhorn">
          396 201 rmoveto
          11 96 9 98 11 96 rrcurveto
          63 4 28 36 50 vvcurveto
          -44 callgsubr
          -32 -103 callgsubr
          -69 callsubr
          endchar
        </CharString>
        <CharString name="uhungarumlaut">
          192 585 -78 callgsubr
          119 -511 rmoveto
          -69 callsubr
          11 100 10 101 11 100 rrcurveto
          -70 callsubr
          -10 -103 callgsubr
          hhcurveto
          endchar
        </CharString>
        <CharString name="umacron">
          172 612 -85 callgsubr
          267 -538 rmoveto
          -69 callsubr
          11 100 10 101 11 100 rrcurveto
          -70 callsubr
          -10 -103 callgsubr
          hhcurveto
          endchar
        </CharString>
        <CharString name="underscore">
          -71 -40 -138 rmoveto
          423 hlineto
          13 7 6 -22 callgsubr
          1 8 rlineto
          14 1 -5 6 -13 hhcurveto
          -423 hlineto
          -13 -7 -6 -14 -1 hvcurveto
          -1 -8 rlineto
          -14 -1 5 -6 13 hhcurveto
          endchar
        </CharString>
        <CharString name="uni00A0">
          -361 endchar
        </CharString>
        <CharString name="uni00AD">
          0 callsubr
        </CharString>
        <CharString name="uni00B2">
          -218 42 298 -51 callgsubr
          endchar
        </CharString>
        <CharString name="uni00B3">
          -218 133 293 -75 callsubr
          endchar
        </CharString>
        <CharString name="uni00B5">
          -45 -40 callgsubr
        </CharString>
        <CharString name="uni00B9">
          -218 147 297 -54 callgsubr
          endchar
        </CharString>
        <CharString name="uni0162">
          -44 460 700 rmoveto
          -376 -13 callgsubr
          -16 -53 callsubr
          144 hlineto
          -64 -604 -1 -11 6 -8 17 -2 rlinecurve
          -22 -63 -1 -7 -63 callgsubr
          17 59 18 2 8 7 1 12 rlinecurve
          64 604 rlineto
          142 hlineto
          14 7 -72 callgsubr
          -5 9 -14 hhcurveto
          endchar
        </CharString>
        <CharString name="uni0163">
          -200 237 451 rmoveto
          38 7 49 4 14 -4 5 -12 hvcurveto
          -65 hlineto
          11 105 rlineto
          8 callsubr
          -13 -6 -16 -2 hvcurveto
          -12 -105 rlineto
          -36 hlineto
          -24 -1 -34 -11 -16 3 -11 14 hvcurveto
          36 hlineto
          -23 -221 -10 -98 -26 vvcurveto
          -66 38 -30 36 -11 vhcurveto
          -22 -63 -1 -7 -63 callgsubr
          15 54 rlineto
          37 1 28 11 42 vvcurveto
          13 -5 10 -8 vhcurveto
          -5 callgsubr
          endchar
        </CharString>
        <CharString name="uni018F">
          62 236 -9 rmoveto
          144 88 98 251 25 hvcurveto
          265 30 -74 101 -156 hhcurveto
          -100 -96 -46 -27 -3 hvcurveto
          -11 -1 16 -39 12 14 58 51 83 hhcurveto
          100 48 -66 -205 -18 hvcurveto
          -315 hlineto
          -10 -25 -29 -12 -2 hvcurveto
          -236 -26 71 -95 137 hhcurveto
          9 72 rmoveto
          -92 -33 63 165 19 hvcurveto
          259 hlineto
          -171 -25 -52 -57 -76 hhcurveto
          endchar
        </CharString>
        <CharString name="uni01C4">
          586 878 760 -103 callsubr
          -799 -760 rmoveto
          168 hlineto
          148 113 90 260 27 hvcurveto
          259 27 -93 91 -148 hhcurveto
          -168 2 callgsubr
          -68 -640 1 callsubr
          526 -49 callsubr
          -454 76 rmoveto
          58 548 rlineto
          102 hlineto
          94 59 -75 -199 -21 hvcurveto
          -200 -21 -75 -74 -94 hhcurveto
          endchar
        </CharString>
        <CharString name="uni01C5">
          484 813 583 -103 callsubr
          -734 -583 rmoveto
          -67 callsubr
          355 -76 rmoveto
          -93 callgsubr
          endchar
        </CharString>
        <CharString name="uni01C6">
          388 -75 callgsubr
          543 589 -103 callsubr
          -205 -583 rmoveto
          -93 callgsubr
          -309 67 -9 callsubr
        </CharString>
        <CharString name="uni01C7">
          220 168 702 rmoveto
          -8 21 callgsubr
          -68 -650 rlineto
          -21 5 -9 22 vhcurveto
          265 hlineto
          25 0 31 23 15 -5 7 -12 hvcurveto
          -207 hlineto
          63 604 rlineto
          14 -9 8 -29 vhcurveto
          451 hmoveto
          -8 hlineto
          -29 26 callgsubr
          -67 -632 rlineto
          -86 -9 -43 -39 -93 -40 -17 9 -9 hhcurveto
          -9 -6 -15 -44 -25 45 -7 43 147 67 85 126 13 hvcurveto
          66 628 rlineto
          14 -9 8 -29 vhcurveto
          endchar
        </CharString>
        <CharString name="uni01C8">
          159 79 hmoveto
          -66 callgsubr
          483 -26 callgsubr
        </CharString>
        <CharString name="uni01C9">
          21 157 -6 -74 callsubr
          267 613 -25 callsubr
        </CharString>
        <CharString name="uni01CA">
          447 -65 callsubr
          569 -4 -62 callsubr
        </CharString>
        <CharString name="uni01CB">
          341 -65 callsubr
          661 609 -25 callsubr
        </CharString>
        <CharString name="uni01CC">
          233 636 -83 callgsubr
          -199 -536 -98 callgsubr
          49 -283 -84 callsubr
        </CharString>
        <CharString name="uni01EA">
          101 346 706 rmoveto
          -161 -100 -111 -243 -26 hvcurveto
          -243 -25 90 -115 148 hhcurveto
          6 7 0 1 6 hvcurveto
          -17 -32 -6 -33 -20 -56 callsubr
          -14 callgsubr
          19 7 29 17 29 hvcurveto
          115 34 71 113 21 200 rrcurveto
          243 26 -92 111 -148 hhcurveto
          122 -354 10 callgsubr
        </CharString>
        <CharString name="uni01EB">
          -21 268 529 rmoveto
          -125 -78 -97 -173 -18 hvcurveto
          -17 -166 52 -92 117 -7 rrcurveto
          -21 -34 -7 -37 -22 -56 callsubr
          -14 callgsubr
          20 8 30 17 29 hvcurveto
          98 21 59 89 16 151 rrcurveto
          174 18 -56 96 -124 hhcurveto
          74 -268 rmoveto
          -133 -14 -40 -62 -71 hhcurveto
          -71 -24 62 133 14 hvcurveto
          134 14 38 62 71 hhcurveto
          71 26 -63 -133 -14 hvcurveto
          endchar
        </CharString>
        <CharString name="uni01F1">
          586 79 hmoveto
          168 hlineto
          148 113 90 260 27 hvcurveto
          259 27 -93 91 -148 hhcurveto
          -168 2 callgsubr
          -68 -640 1 callsubr
          526 -49 callsubr
          -454 76 rmoveto
          58 548 rlineto
          102 hlineto
          94 59 -75 -199 -21 hvcurveto
          -200 -21 -75 -74 -94 hhcurveto
          endchar
        </CharString>
        <CharString name="uni01F2">
          484 -9 callgsubr
          355 -76 rmoveto
          -93 callgsubr
          endchar
        </CharString>
        <CharString name="uni01F3">
          388 -75 callgsubr
          338 6 rmoveto
          -93 callgsubr
          -309 67 -9 callsubr
        </CharString>
        <CharString name="uni021A">
          -44 192 -2 -56 callgsubr
          -38 -233 -78 callsubr
          endchar
        </CharString>
        <CharString name="uni021B">
          -200 183 -6 -68 callsubr
          -57 -229 -78 callsubr
          endchar
        </CharString>
        <CharString name="uni0237">
          -249 4 -212 -84 callsubr
        </CharString>
        <CharString name="uni0259">
          -44 217 529 rmoveto
          -35 -66 -15 -33 -30 hvcurveto
          -13 -15 -4 -20 -17 vvcurveto
          -11 5 -10 9 vhcurveto
          16 38 49 73 hhcurveto
          68 44 -33 -111 -3 hvcurveto
          -9 vlineto
          3 -17 -22 3 -28 hhcurveto
          -127 -97 -60 -123 -51 33 -82 107 164 74 151 184 173 -106 27 -83 hvcurveto
          -40 -463 rmoveto
          -40 -23 31 37 81 79 23 68 hvcurveto
          53 hlineto
          -93 -12 -37 -79 -88 hhcurveto
          endchar
        </CharString>
        <CharString name="uni02BC">
          -408 53 537 -78 callsubr
          endchar
        </CharString>
        <CharString name="uni02C9">
          -242 64 612 -85 callgsubr
          endchar
        </CharString>
        <CharString name="uni0302">
          -498 -55 576 -107 callsubr
          endchar
        </CharString>
        <CharString name="uni0304">
          -498 -65 612 -85 callgsubr
          endchar
        </CharString>
        <CharString name="uni0306">
          -498 35 -79 callsubr
          endchar
        </CharString>
        <CharString name="uni0307">
          -498 36 -83 callgsubr
          endchar
        </CharString>
        <CharString name="uni0308">
          -498 -29 607 -101 callgsubr
          endchar
        </CharString>
        <CharString name="uni030A">
          -498 33 -33 callgsubr
          endchar
        </CharString>
        <CharString name="uni030B">
          -498 -100 585 -78 callgsubr
          endchar
        </CharString>
        <CharString name="uni030C">
          -498 31 583 -103 callsubr
          endchar
        </CharString>
        <CharString name="uni0326">
          -498 -173 -235 -78 callsubr
          endchar
        </CharString>
        <CharString name="uni0327">
          -498 6 -60 rmoveto
          17 60 rlineto
          -41 hlineto
          -22 -64 -1 -7 -63 callgsubr
          endchar
        </CharString>
        <CharString name="uni0394">
          83 -18 callsubr
        </CharString>
        <CharString name="uni03A9">
          101 -45 callsubr
        </CharString>
        <CharString name="uni03BC">
          -31 -40 callgsubr
        </CharString>
        <CharString name="uni1E0C">
          -10 callsubr
          -24 -251 -106 callsubr
          endchar
        </CharString>
        <CharString name="uni1E0D">
          -17 -75 callgsubr
          29 73 -39 callsubr
          57 -242 -106 callsubr
          endchar
        </CharString>
        <CharString name="uni1E24">
          -26 callsubr
          166 -173 -106 callsubr
          endchar
        </CharString>
        <CharString name="uni1E25">
          -13 386 -3 -63 callsubr
          -198 -172 -106 callsubr
          endchar
        </CharString>
        <CharString name="uni1E44">
          92 345 784 -106 callsubr
          -262 -786 -99 callgsubr
          endchar
        </CharString>
        <CharString name="uni1E45">
          278 -83 callgsubr
          159 -536 -98 callgsubr
          endchar
        </CharString>
        <CharString name="uni1E5A">
          15 86 -2 -85 callsubr
          -72 -559 -106 callsubr
          endchar
        </CharString>
        <CharString name="uni1E5B">
          -161 96 -2 -72 callsubr
          -15 -175 -106 callsubr
          endchar
        </CharString>
        <CharString name="uni1E62">
          -33 callsubr
          -9 -170 -106 callsubr
          endchar
        </CharString>
        <CharString name="uni1E63">
          -24 callgsubr
          -5 -166 -106 callsubr
          endchar
        </CharString>
        <CharString name="uni1E6C">
          -44 192 -2 -56 callgsubr
          -12 -173 -106 callsubr
          endchar
        </CharString>
        <CharString name="uni1E6D">
          -200 183 -6 -68 callsubr
          -31 -169 -106 callsubr
          endchar
        </CharString>
        <CharString name="uni1E92">
          9 28 -49 callsubr
          186 -175 -106 callsubr
          endchar
        </CharString>
        <CharString name="uni1E93">
          -93 31 hmoveto
          -93 callgsubr
          128 -175 -106 callsubr
          endchar
        </CharString>
        <CharString name="uni1E9E">
          95 331 -6 rmoveto
          87 113 53 159 17 hvcurveto
          13 123 -58 64 -84 18 138 195 rcurveline
          3 3 1 4 5 vvcurveto
          3 20 -11 30 -8 3 -43 15 -71 18 -78 1 -150 2 -88 -85 -19 -175 -44 -427 rcurveline
          -14 -2 27 callsubr
          8 41 callsubr
          44 426 rlineto
          131 14 51 53 101 hhcurveto
          44 38 -8 -10 26 hvcurveto
          -147 -211 -3 -3 -1 -4 -1 -5 rlinecurve
          -20 -2 11 -33 10 hhcurveto
          35 hlineto
          68 44 -30 -99 -11 hvcurveto
          -114 -12 -70 -27 -47 -55 -15 35 -25 hhcurveto
          -11 -27 -32 -17 -2 hvcurveto
          -23 -2 58 -35 78 hhcurveto
          endchar
        </CharString>
        <CharString name="uni1EA0">
          7 22 -2 -106 callgsubr
          -132 -425 -106 callsubr
          endchar
        </CharString>
        <CharString name="uni1EA1">
          -17 174 -7 -107 callgsubr
          -21 -241 -106 callsubr
          endchar
        </CharString>
        <CharString name="uni1EA2">
          7 306 740 -89 callgsubr
          -284 -742 -106 callgsubr
          endchar
        </CharString>
        <CharString name="uni1EA3">
          -17 267 563 -89 callgsubr
          -93 -570 -105 callsubr
        </CharString>
        <CharString name="uni1EA4">
          7 411 -61 callgsubr
          -199 -755 -106 callgsubr
          endchar
        </CharString>
        <CharString name="uni1EA5">
          -17 367 722 rmoveto
          -105 callgsubr
          -185 -146 -80 callgsubr
        </CharString>
        <CharString name="uni1EA6">
          7 444 -61 callsubr
          -199 -755 -106 callgsubr
          endchar
        </CharString>
        <CharString name="uni1EA7">
          -17 400 722 -97 callsubr
          -218 -146 -80 callgsubr
        </CharString>
        <CharString name="uni1EA8">
          7 422 856 -48 callgsubr
          -201 -103 -102 callgsubr
          -199 -755 -106 callgsubr
          endchar
        </CharString>
        <CharString name="uni1EA9">
          -17 389 700 -89 callgsubr
          -207 -124 -80 callgsubr
        </CharString>
        <CharString name="uni1EAA">
          7 201 876 -88 callsubr
          29 -127 rmoveto
          19 hlineto
          12 10 5 8 6 hvcurveto
          44 58 32 -58 rlineto
          -8 6 8 36 callsubr
          8 1 hvcurveto
          4 -2 6 -4 8 vhcurveto
          -39 66 rlineto
          14 -8 -12 8 -19 hhcurveto
          -16 hlineto
          -20 -6 callsubr
          -12 hvcurveto
          -53 -66 rlineto
          -4 -8 -4 -6 -4 vvcurveto
          -9 -1 6 -5 12 hhcurveto
          -199 -755 -106 callgsubr
          endchar
        </CharString>
        <CharString name="uni1EAB">
          -17 168 759 -88 callsubr
          16 -187 -107 callsubr
          -1 -80 callsubr
        </CharString>
        <CharString name="uni1EAC">
          7 214 753 -107 callsubr
          -192 -755 -106 callgsubr
          -132 -425 -106 callsubr
          endchar
        </CharString>
        <CharString name="uni1EAD">
          -17 175 576 -107 callsubr
          -1 -583 -107 callgsubr
          -21 -241 -106 callsubr
          endchar
        </CharString>
        <CharString name="uni1EAE">
          7 304 846 rmoveto
          17 10 6 12 9 hvcurveto
          61 88 7 8 10 vvcurveto
          10 -9 3 -22 -24 -20 -7 -19 -10 vhcurveto
          -34 -73 -8 -19 -9 vvcurveto
          -7 7 -3 16 vhcurveto
          2 -84 rmoveto
          67 53 38 57 6 hvcurveto
          17 2 -5 5 -11 hhcurveto
          -16 -2 -10 -15 -7 hvcurveto
          -17 -9 -30 -24 -43 hhcurveto
          -42 -25 23 18 -6 hvcurveto
          17 -7 0 8 -14 hhcurveto
          -12 -4 -5 -17 -2 hvcurveto
          -57 -6 45 -38 68 hhcurveto
          -284 -764 -106 callgsubr
          endchar
        </CharString>
        <CharString name="uni1EAF">
          -17 261 733 rmoveto
          -105 callgsubr
          7 -148 -95 callsubr
        </CharString>
        <CharString name="uni1EB0">
          7 337 846 rmoveto
          16 7 3 7 9 -7 19 -31 73 hvcurveto
          19 -8 -22 7 -22 hhcurveto
          -25 -8 -3 -10 -10 7 -8 57 -88 hvcurveto
          -12 9 12 -6 15 hhcurveto
          -31 -84 rmoveto
          67 53 38 57 6 hvcurveto
          17 2 -5 5 -11 hhcurveto
          -16 -2 -10 -15 -7 hvcurveto
          -17 -9 -30 -24 -43 hhcurveto
          -42 -25 23 18 -6 hvcurveto
          17 -7 0 8 -14 hhcurveto
          -12 -4 -5 -17 -2 hvcurveto
          -57 -6 45 -38 68 hhcurveto
          -284 -764 -106 callgsubr
          endchar
        </CharString>
        <CharString name="uni1EB1">
          -17 294 733 -97 callsubr
          -26 -148 -95 callsubr
        </CharString>
        <CharString name="uni1EB2">
          7 315 853 -48 callgsubr
          -9 -91 rmoveto
          67 53 38 57 6 hvcurveto
          17 2 -5 5 -11 hhcurveto
          -16 -2 -10 -15 -7 hvcurveto
          -17 -9 -30 -24 -43 hhcurveto
          -42 -25 23 18 -6 hvcurveto
          17 -7 0 8 -14 hhcurveto
          -12 -4 -5 -17 -2 hvcurveto
          -57 -6 45 -38 68 hhcurveto
          -284 -764 -106 callgsubr
          endchar
        </CharString>
        <CharString name="uni1EB3">
          -17 283 711 -89 callgsubr
          -15 -126 -95 callsubr
        </CharString>
        <CharString name="uni1EB4">
          7 208 928 -88 callsubr
          107 -170 rmoveto
          67 53 38 57 6 hvcurveto
          17 2 -5 5 -11 hhcurveto
          -16 -2 -10 -15 -7 hvcurveto
          -17 -9 -30 -24 -43 hhcurveto
          -42 -25 23 18 -6 hvcurveto
          17 -7 0 8 -14 hhcurveto
          -12 -4 -5 -17 -2 hvcurveto
          -57 -6 45 -38 68 hhcurveto
          -284 -764 -106 callgsubr
          endchar
        </CharString>
        <CharString name="uni1EB5">
          -17 171 765 -88 callsubr
          106 -184 -95 callsubr
        </CharString>
        <CharString name="uni1EB6">
          7 307 762 -100 callgsubr
          -285 -764 -106 callgsubr
          -132 -425 -106 callsubr
          endchar
        </CharString>
        <CharString name="uni1EB7">
          -17 268 585 -94 callsubr
          -21 -241 -106 callsubr
          endchar
        </CharString>
        <CharString name="uni1EB8">
          -41 79 hmoveto
          -104 callgsubr
          124 -175 -106 callsubr
          endchar
        </CharString>
        <CharString name="uni1EB9">
          -44 371 115 -99 callsubr
          -41 -537 -57 callsubr
        </CharString>
        <CharString name="uni1EBA">
          -41 300 740 -89 callgsubr
          -221 -740 rmoveto
          -104 callgsubr
          endchar
        </CharString>
        <CharString name="uni1EBB">
          -44 226 686 -54 callsubr
          145 -571 -99 callsubr
          endchar
        </CharString>
        <CharString name="uni1EBC">
          -41 167 769 rmoveto
          -104 callsubr
          -78 -773 rmoveto
          -104 callgsubr
          endchar
        </CharString>
        <CharString name="uni1EBD">
          -44 137 596 rmoveto
          10 -4 rlineto
          -104 callsubr
          -2 -377 -76 callsubr
        </CharString>
        <CharString name="uni1EBE">
          -41 405 -61 callgsubr
          -136 -753 rmoveto
          -104 callgsubr
          endchar
        </CharString>
        <CharString name="uni1EBF">
          -44 464 869 rmoveto
          -28 -19 -7 -19 -9 hvcurveto
          -39 -80 -10 -21 -10 vvcurveto
          -7 6 -3 15 24 15 5 13 9 vhcurveto
          68 95 10 10 11 vvcurveto
          10 -14 3 -28 vhcurveto
          -269 -293 -102 callgsubr
          -60 -357 -76 callsubr
        </CharString>
        <CharString name="uni1EC0">
          -41 438 -61 callsubr
          -136 -753 rmoveto
          -104 callgsubr
          endchar
        </CharString>
        <CharString name="uni1EC1">
          -44 386 843 rmoveto
          19 -10 -19 7 -28 hhcurveto
          -28 -14 -3 -10 -11 7 -9 72 -96 hvcurveto
          -12 8 15 -6 24 hhcurveto
          16 5 3 7 10 -11 21 -37 80 hvcurveto
          -191 -267 -102 callgsubr
          -60 -357 -76 callsubr
        </CharString>
        <CharString name="uni1EC2">
          -41 416 856 -48 callgsubr
          -201 -103 -102 callgsubr
          -136 -753 rmoveto
          -104 callgsubr
          endchar
        </CharString>
        <CharString name="uni1EC3">
          -44 402 887 rmoveto
          -35 -43 -18 -13 -10 16 -23 8 hvcurveto
          5 10 13 31 hhcurveto
          20 17 -9 -18 hvcurveto
          -50 -62 -13 -29 vvcurveto
          -9 24 -8 9 -41 callgsubr
          vhcurveto
          -207 -311 -102 callgsubr
          -60 -357 -76 callsubr
        </CharString>
        <CharString name="uni1EC4">
          -41 195 876 -88 callsubr
          29 -127 rmoveto
          19 hlineto
          12 10 5 8 6 hvcurveto
          44 58 32 -58 rlineto
          -8 6 8 36 callsubr
          8 1 hvcurveto
          4 -2 6 -4 8 vhcurveto
          -39 66 rlineto
          14 -8 -12 8 -19 hhcurveto
          -16 hlineto
          -20 -6 callsubr
          -12 hvcurveto
          -53 -66 rlineto
          -4 -8 -4 -6 -4 vvcurveto
          -9 -1 6 -5 12 hhcurveto
          -136 -753 rmoveto
          -104 callgsubr
          endchar
        </CharString>
        <CharString name="uni1EC5">
          -44 425 852 rmoveto
          -6 3 rlineto
          2 -4 -3 1 -3 hhcurveto
          -6 -6 -4 -11 -6 hvcurveto
          -20 -11 -10 -6 -13 -32 -45 40 -39 12 callgsubr
          -1 -4 -4 vvcurveto
          -5 3 -4 6 -3 vhcurveto
          9 -4 rlineto
          22 callgsubr
          3 hhcurveto
          6 4 4 10 6 hvcurveto
          20 11 9 7 12 32 46 -40 41 hhcurveto
          32 24 18 50 18 hvcurveto
          3 6 1 4 4 vvcurveto
          6 -3 2 -8 4 vhcurveto
          -218 -276 rmoveto
          11 9 5 9 8 hvcurveto
          51 73 38 -73 rlineto
          -9 5 7 36 callsubr
          9 1 hvcurveto
          5 -2 6 -3 6 vhcurveto
          -44 88 rlineto
          14 -8 -11 8 -20 hhcurveto
          43 callsubr
          -8 -14 -10 hvcurveto
          -62 -88 -3 -6 -5 -8 -1 -5 rlinecurve
          -7 6 -6 12 vhcurveto
          -53 -357 -76 callsubr
        </CharString>
        <CharString name="uni1EC6">
          -41 208 753 -107 callsubr
          -129 -753 rmoveto
          -104 callgsubr
          124 -175 -106 callsubr
          endchar
        </CharString>
        <CharString name="uni1EC7">
          -44 188 576 -107 callsubr
          183 -461 -99 callsubr
          -41 -537 -57 callsubr
        </CharString>
        <CharString name="uni1EC8">
          -236 184 740 -89 callgsubr
          -88 -742 -73 callgsubr
        </CharString>
        <CharString name="uni1EC9">
          -244 153 563 -89 callgsubr
          -11 -566 -98 callsubr
          endchar
        </CharString>
        <CharString name="uni1ECA">
          -236 96 -2 -79 callgsubr
          -12 -173 -106 callsubr
          endchar
        </CharString>
        <CharString name="uni1ECB">
          -244 152 -83 callgsubr
          -10 -610 -98 callsubr
          -34 -172 -106 callsubr
          endchar
        </CharString>
        <CharString name="uni1ECC">
          101 272 -6 -102 callsubr
          -26 -245 -106 callsubr
          endchar
        </CharString>
        <CharString name="uni1ECD">
          -21 212 -6 -101 callsubr
          -21 -241 -106 callsubr
          endchar
        </CharString>
        <CharString name="uni1ECE">
          101 354 740 -89 callgsubr
          -82 -746 -102 callsubr
          endchar
        </CharString>
        <CharString name="uni1ECF">
          -21 273 563 -89 callgsubr
          -61 -569 -97 callgsubr
        </CharString>
        <CharString name="uni1ED0">
          101 459 -61 callgsubr
          3 -759 -102 callsubr
          endchar
        </CharString>
        <CharString name="uni1ED1">
          -21 373 722 rmoveto
          -105 callgsubr
          -185 -146 -71 callsubr
        </CharString>
        <CharString name="uni1ED2">
          101 492 -61 callsubr
          3 -759 -102 callsubr
          endchar
        </CharString>
        <CharString name="uni1ED3">
          -21 406 722 -97 callsubr
          -218 -146 -71 callsubr
        </CharString>
        <CharString name="uni1ED4">
          101 470 856 -48 callgsubr
          -201 -103 -102 callgsubr
          3 -759 -102 callsubr
          endchar
        </CharString>
        <CharString name="uni1ED5">
          -21 395 700 -89 callgsubr
          -207 -124 -71 callsubr
        </CharString>
        <CharString name="uni1ED6">
          101 249 876 -88 callsubr
          29 -127 rmoveto
          19 hlineto
          12 10 5 8 6 hvcurveto
          44 58 32 -58 rlineto
          -8 6 8 36 callsubr
          8 1 hvcurveto
          4 -2 6 -4 8 vhcurveto
          -39 66 rlineto
          14 -8 -12 8 -19 hhcurveto
          -16 hlineto
          -20 -6 callsubr
          -12 hvcurveto
          -53 -66 rlineto
          -4 -8 -4 -6 -4 vvcurveto
          -9 -1 6 -5 12 hhcurveto
          3 -759 -102 callsubr
          endchar
        </CharString>
        <CharString name="uni1ED7">
          -21 174 759 -88 callsubr
          16 -187 -107 callsubr
          31 -60 callgsubr
        </CharString>
        <CharString name="uni1ED8">
          101 262 753 -107 callsubr
          10 -759 -102 callsubr
          -26 -245 -106 callsubr
          endchar
        </CharString>
        <CharString name="uni1ED9">
          -43 callsubr
          -21 -241 -106 callsubr
          endchar
        </CharString>
        <CharString name="uni1EDA">
          101 340 762 rmoveto
          -105 callgsubr
          270 -48 -91 callsubr
          endchar
        </CharString>
        <CharString name="uni1EDB">
          -21 251 585 rmoveto
          -105 callgsubr
          234 -38 -90 callgsubr
          endchar
        </CharString>
        <CharString name="uni1EDC">
          101 365 762 -97 callsubr
          245 -48 -91 callsubr
          endchar
        </CharString>
        <CharString name="uni1EDD">
          -21 284 585 -97 callsubr
          201 -38 -90 callgsubr
          endchar
        </CharString>
        <CharString name="uni1EDE">
          101 354 740 -89 callgsubr
          256 -26 -91 callsubr
          endchar
        </CharString>
        <CharString name="uni1EDF">
          -21 273 563 -89 callgsubr
          212 -16 -90 callgsubr
          endchar
        </CharString>
        <CharString name="uni1EE0">
          101 234 769 rmoveto
          -77 callgsubr
          385 -59 -91 callsubr
          endchar
        </CharString>
        <CharString name="uni1EE1">
          -21 153 592 rmoveto
          -77 callgsubr
          341 -49 -90 callgsubr
          endchar
        </CharString>
        <CharString name="uni1EE2">
          101 610 714 -91 callsubr
          -213 -527 -106 callsubr
          endchar
        </CharString>
        <CharString name="uni1EE3">
          -21 485 547 -90 callgsubr
          -21 -241 -106 callsubr
          endchar
        </CharString>
        <CharString name="uni1EE4">
          85 264 -6 rmoveto
          -31 callgsubr
          51 485 rlineto
          14 1 -10 8 -27 hhcurveto
          -14 -100 callsubr
          -17 -169 -106 callsubr
          endchar
        </CharString>
        <CharString name="uni1EE5">
          439 74 rmoveto
          -69 callsubr
          11 100 10 101 11 100 rrcurveto
          -70 callsubr
          -10 -103 callgsubr
          hhcurveto
          -259 -249 -106 callsubr
          endchar
        </CharString>
        <CharString name="uni1EE6">
          85 345 740 -89 callgsubr
          -81 -746 rmoveto
          -31 callgsubr
          51 485 rlineto
          14 1 -10 8 -27 hhcurveto
          -14 -100 callsubr
          endchar
        </CharString>
        <CharString name="uni1EE7">
          269 563 -89 callgsubr
          170 -489 rmoveto
          -69 callsubr
          11 100 10 101 11 100 rrcurveto
          -70 callsubr
          -10 -103 callgsubr
          hhcurveto
          endchar
        </CharString>
        <CharString name="uni1EE8">
          85 323 762 rmoveto
          -105 callgsubr
          320 -3 rmoveto
          -44 callgsubr
          -30 -100 callsubr
          -31 callgsubr
          50 475 rlineto
          59 5 26 35 49 vvcurveto
          endchar
        </CharString>
        <CharString name="uni1EE9">
          247 585 rmoveto
          -105 callgsubr
          149 -384 rmoveto
          11 96 9 98 11 96 rrcurveto
          63 4 28 36 50 vvcurveto
          -44 callgsubr
          -32 -103 callgsubr
          -69 callsubr
          endchar
        </CharString>
        <CharString name="uni1EEA">
          85 356 762 -97 callsubr
          287 -3 rmoveto
          -44 callgsubr
          -30 -100 callsubr
          -31 callgsubr
          50 475 rlineto
          59 5 26 35 49 vvcurveto
          endchar
        </CharString>
        <CharString name="uni1EEB">
          280 585 -97 callsubr
          116 -384 rmoveto
          11 96 9 98 11 96 rrcurveto
          63 4 28 36 50 vvcurveto
          -44 callgsubr
          -32 -103 callgsubr
          -69 callsubr
          endchar
        </CharString>
        <CharString name="uni1EEC">
          85 291 863 -54 callsubr
          352 -104 rmoveto
          -44 callgsubr
          -30 -100 callsubr
          -31 callgsubr
          50 475 rlineto
          59 5 26 35 49 vvcurveto
          endchar
        </CharString>
        <CharString name="uni1EED">
          215 686 -54 callsubr
          181 -485 rmoveto
          11 96 9 98 11 96 rrcurveto
          63 4 28 36 50 vvcurveto
          -44 callgsubr
          -32 -103 callgsubr
          -69 callsubr
          endchar
        </CharString>
        <CharString name="uni1EEE">
          85 202 773 rmoveto
          10 -4 rlineto
          -104 callsubr
          441 -14 rmoveto
          -44 callgsubr
          -30 -100 callsubr
          -31 callgsubr
          50 475 rlineto
          59 5 26 35 49 vvcurveto
          endchar
        </CharString>
        <CharString name="uni1EEF">
          140 596 rmoveto
          9 -4 rlineto
          -77 callgsubr
          256 -395 rmoveto
          11 96 9 98 11 96 rrcurveto
          63 4 28 36 50 vvcurveto
          -44 callgsubr
          -32 -103 callgsubr
          -69 callsubr
          endchar
        </CharString>
        <CharString name="uni1EF0">
          85 643 759 rmoveto
          -44 callgsubr
          -30 -100 callsubr
          -31 callgsubr
          50 475 rlineto
          59 5 26 35 49 vvcurveto
          -384 -839 -57 callsubr
        </CharString>
        <CharString name="uni1EF1">
          396 201 rmoveto
          11 96 9 98 11 96 rrcurveto
          63 4 28 36 50 vvcurveto
          -44 callgsubr
          -32 -103 callgsubr
          -69 callsubr
          -204 -281 -57 callsubr
        </CharString>
        <CharString name="uni1EF4">
          -14 207 -2 -90 callsubr
          -11 -173 -106 callsubr
          endchar
        </CharString>
        <CharString name="uni1EF4.loclGUA">
          0 442 702 -96 callgsubr
          -217 -782 -57 callsubr
        </CharString>
        <CharString name="uni1EF5">
          -99 370 525 -96 callsubr
          -119 -645 -57 callsubr
        </CharString>
        <CharString name="uni1EF5.loclGUA">
          428 503 rmoveto
          14 2 -11 8 -28 hhcurveto
          -94 callgsubr
          40 -164 -57 callsubr
        </CharString>
        <CharString name="uni1EF6">
          -14 295 740 -89 callgsubr
          -88 -742 -90 callsubr
          endchar
        </CharString>
        <CharString name="uni1EF6.loclGUA">
          0 249 863 -54 callsubr
          193 -161 -96 callgsubr
          endchar
        </CharString>
        <CharString name="uni1EF7">
          -99 177 686 -54 callsubr
          193 -161 -96 callsubr
          endchar
        </CharString>
        <CharString name="uni1EF7.loclGUA">
          219 686 -54 callsubr
          172 -161 rmoveto
          -94 callgsubr
          46 438 7 callgsubr
          endchar
        </CharString>
        <CharString name="uni1EF8">
          -14 162 769 rmoveto
          -104 callsubr
          55 -775 -90 callsubr
          endchar
        </CharString>
        <CharString name="uni1EF8.loclGUA">
          0 160 773 rmoveto
          10 -4 rlineto
          -104 callsubr
          282 -71 -96 callgsubr
          endchar
        </CharString>
        <CharString name="uni1EF9">
          -99 88 596 rmoveto
          10 -4 rlineto
          -104 callsubr
          282 -71 -96 callsubr
          endchar
        </CharString>
        <CharString name="uni1EF9.loclGUA">
          130 596 rmoveto
          10 -4 rlineto
          -104 callsubr
          261 -71 rmoveto
          -94 callgsubr
          46 438 7 callgsubr
          endchar
        </CharString>
        <CharString name="uni2002">
          -12 endchar
        </CharString>
        <CharString name="uni2003">
          388 endchar
        </CharString>
        <CharString name="uni2004">
          -165 endchar
        </CharString>
        <CharString name="uni2005">
          -248 endchar
        </CharString>
        <CharString name="uni20B2">
          -1 callsubr
          -31 -77 -113 -22 callsubr
          -124 -25 130 153 16 hvcurveto
          172 18 55 102 125 hhcurveto
          endchar
        </CharString>
        <CharString name="uni20B2.bold">
          -1 callsubr
          -30 -77 -114 -22 callsubr
          -11 hlineto
          59 556 rlineto
          1 5 6 0 6 hhcurveto
          -131 -540 rmoveto
          -67 39 -13 106 13 121 14 132 36 91 72 35 rrcurveto
          endchar
        </CharString>
        <CharString name="uni2113">
          -155 147 -6 rmoveto
          40 51 13 27 3 hvcurveto
          8 1 -3 39 -13 -11 -14 -15 -31 hhcurveto
          -23 -13 13 55 6 hvcurveto
          16 156 99 85 76 139 12 119 rlinecurve
          69 7 -22 53 -67 hhcurveto
          -56 -89 -27 -272 -29 hvcurveto
          -16 -155 -19 -14 -20 -12 -18 -13 rlinecurve
          -13 -8 -6 -11 -1 -9 -1 -7 2 -6 3 -6 rrcurveto
          -14 9 6 -6 7 hhcurveto
          5 6 3 4 7 hvcurveto
          24 16 -9 -92 rlineto
          -111 -12 53 -21 53 hhcurveto
          19 390 rmoveto
          288 30 41 11 18 hhcurveto
          21 7 -22 -31 -3 hvcurveto
          -8 -78 -49 -101 -57 -67 rrcurveto
          endchar
        </CharString>
        <CharString name="uni2126">
          87 -45 callsubr
        </CharString>
        <CharString name="uni2153">
          136 129 -46 callgsubr
          16 299 -54 callgsubr
          310 -303 -75 callsubr
          endchar
        </CharString>
        <CharString name="uni2154">
          194 42 301 -51 callgsubr
          158 -303 8 callgsubr
          -312 -671 rlineto
          -1 -4 -2 -4 -2 vvcurveto
          -5 5 -2 8 vhcurveto
          330 -4 -75 callsubr
          endchar
        </CharString>
        <CharString name="uni2206">
          68 -18 callsubr
        </CharString>
        <CharString name="uni2215">
          -277 -20 -2 callgsubr
        </CharString>
        <CharString name="uni2219">
          -273 118 309 rmoveto
          30 19 22 29 3 hvcurveto
          29 3 -14 23 -30 hhcurveto
          -29 -20 -23 -29 -3 hvcurveto
          -29 -3 15 -22 29 hhcurveto
          endchar
        </CharString>
        <CharString name="uogonek">
          480 -94 rmoveto
          -14 callgsubr
          15 4 20 10 22 hvcurveto
          17 3 15 8 7 13 rrcurveto
          -31 callsubr
          -69 callsubr
          11 100 10 101 11 100 rrcurveto
          -70 callsubr
          -10 -92 callsubr
          -39 -366 rlineto
          -41 -25 -37 -29 -38 hhcurveto
          -47 -21 31 54 6 hvcurveto
          37 351 -70 callgsubr
          -10 -92 callsubr
          -39 -364 rlineto
          -90 -9 41 -55 83 hhcurveto
          50 49 28 47 35 hvcurveto
          6 -38 20 -18 21 -9 rrcurveto
          -15 -30 -5 -30 -19 -56 callsubr
          endchar
        </CharString>
        <CharString name="uring">
          265 -33 callgsubr
          171 -525 rmoveto
          -69 callsubr
          11 100 10 101 11 100 rrcurveto
          -70 callsubr
          -10 -103 callgsubr
          hhcurveto
          endchar
        </CharString>
        <CharString name="utilde">
          136 592 rmoveto
          -104 callsubr
          313 -522 rmoveto
          -69 callsubr
          11 100 10 101 11 100 rrcurveto
          -70 callsubr
          -10 -103 callgsubr
          hhcurveto
          endchar
        </CharString>
        <CharString name="v">
          -86 157 -2 rmoveto
          42 hlineto
          18 16 4 12 4 hvcurveto
          173 480 4 14 rlineto
          11 1 -10 6 -25 hhcurveto
          -12 hlineto
          -19 -16 -4 -12 -4 hvcurveto
          -101 -292 -13 -42 -11 -47 -11 -40 rlinecurve
          -6 hlineto
          -3 40 -2 47 -7 42 -38 292 rcurveline
          12 -2 -14 4 -18 hhcurveto
          -13 hlineto
          -27 -13 -6 -11 -1 hvcurveto
          -1 -4 1 -5 -5 vvcurveto
          73 -480 rlineto
          -12 3 13 -4 19 hhcurveto
          endchar
        </CharString>
        <CharString name="w">
          118 132 -2 -93 callsubr
        </CharString>
        <CharString name="wacute">
          118 320 585 rmoveto
          -105 callgsubr
          -188 -587 -93 callsubr
        </CharString>
        <CharString name="wcircumflex">
          118 250 576 -107 callsubr
          -118 -578 -93 callsubr
        </CharString>
        <CharString name="wdieresis">
          118 280 607 -101 callgsubr
          -274 -609 -93 callsubr
        </CharString>
        <CharString name="wgrave">
          118 353 585 -97 callsubr
          -221 -587 -93 callsubr
        </CharString>
        <CharString name="x">
          -94 27 hmoveto
          37 hlineto
          11 11 1 12 7 hvcurveto
          89 159 7 12 5 10 5 10 rlinecurve
          4 -10 5 -10 6 -15 70 -157 rcurveline
          -13 6 12 1 19 hhcurveto
          24 hlineto
          14 10 3 11 1 hvcurveto
          5 -3 7 -4 8 vhcurveto
          -113 231 142 225 4 7 4 6 1 5 rlinecurve
          11 1 -10 6 -28 hhcurveto
          -12 hlineto
          -19 -16 -2 -13 -7 hvcurveto
          -82 -143 -8 -15 -6 -10 -5 -10 rlinecurve
          -4 11 -5 11 -7 16 -62 141 rcurveline
          13 -6 -12 1 -19 hhcurveto
          -10 hlineto
          -30 -7 -6 -11 -1 hvcurveto
          -1 -5 2 -7 3 -7 109 -220 rcurveline
          -150 -236 rlineto
          -5 -8 -4 -9 -5 vvcurveto
          -8 7 -3 20 vhcurveto
          endchar
        </CharString>
        <CharString name="y">
          -99 370 525 -96 callsubr
          endchar
        </CharString>
        <CharString name="y.loclGUA">
          391 525 rmoveto
          -94 callgsubr
          46 438 7 callgsubr
          endchar
        </CharString>
        <CharString name="yacute">
          -99 209 585 rmoveto
          -105 callgsubr
          161 -60 -96 callsubr
          endchar
        </CharString>
        <CharString name="yacute.loclGUA">
          251 585 rmoveto
          -105 callgsubr
          140 -60 rmoveto
          -94 callgsubr
          46 438 7 callgsubr
          endchar
        </CharString>
        <CharString name="ycircumflex">
          -99 139 576 -107 callsubr
          231 -51 -96 callsubr
          endchar
        </CharString>
        <CharString name="ycircumflex.loclGUA">
          181 576 -107 callsubr
          210 -51 rmoveto
          -94 callgsubr
          46 438 7 callgsubr
          endchar
        </CharString>
        <CharString name="ydieresis">
          -99 169 607 -101 callgsubr
          75 -82 -96 callsubr
          endchar
        </CharString>
        <CharString name="ydieresis.loclGUA">
          211 607 -101 callgsubr
          54 -82 rmoveto
          -94 callgsubr
          46 438 7 callgsubr
          endchar
        </CharString>
        <CharString name="yen">
          -28 472 702 rmoveto
          43 callsubr
          -2 -12 -7 hvcurveto
          -161 -284 -99 283 rlineto
          13 -5 -12 2 -20 hhcurveto
          -15 hlineto
          -30 -9 -6 -11 -41 callsubr
          2 -6 3 -7 vhcurveto
          93 -244 rlineto
          -78 -12 callsubr
          -1 -8 -53 callsubr
          111 hlineto
          15 -38 -6 -58 rlineto
          -130 -12 callsubr
          -1 -8 -53 callsubr
          129 hlineto
          -18 -171 -66 callsubr
          -43 callgsubr
          18 171 rlineto
          118 28 callsubr
          -118 hlineto
          6 55 24 41 rlineto
          98 28 callsubr
          -65 hlineto
          144 244 rlineto
          5 7 3 6 5 vvcurveto
          1 11 -10 5 -27 1 rrcurveto
          endchar
        </CharString>
        <CharString name="ygrave">
          -99 242 585 -97 callsubr
          128 -60 -96 callsubr
          endchar
        </CharString>
        <CharString name="ygrave.loclGUA">
          284 585 -97 callsubr
          107 -60 rmoveto
          -94 callgsubr
          46 438 7 callgsubr
          endchar
        </CharString>
        <CharString name="z">
          -93 31 hmoveto
          -93 callgsubr
          endchar
        </CharString>
        <CharString name="zacute">
          -93 221 585 rmoveto
          -105 callgsubr
          -190 -585 rmoveto
          -93 callgsubr
          endchar
        </CharString>
        <CharString name="zacute.loclPLK">
          -93 229 585 -76 callgsubr
          -198 -585 rmoveto
          -93 callgsubr
          endchar
        </CharString>
        <CharString name="zcaron">
          -93 236 583 -103 callsubr
          -205 -583 rmoveto
          -93 callgsubr
          endchar
        </CharString>
        <CharString name="zdotaccent">
          -93 244 -83 callgsubr
          -213 -607 rmoveto
          -93 callgsubr
          endchar
        </CharString>
        <CharString name="zero">
          -39 200 -6 rmoveto
          111 96 101 255 26 hvcurveto
          255 27 -74 101 -111 hhcurveto
          -110 -95 -101 -255 -27 hvcurveto
          -255 -26 73 -101 110 hhcurveto
          8 72 rmoveto
          -59 -40 69 215 22 hvcurveto
          215 23 55 69 59 hhcurveto
          58 43 -69 -215 -23 hvcurveto
          -215 -22 -58 -69 -58 hhcurveto
          endchar
        </CharString>
      <CharString index="0">
        rmoveto
        43 48 20 70 36 hvcurveto
        -74 3 48 -15 33 hhcurveto
        40 25 16 38 12 -3 11 42 callgsubr
        -16 -12 10 39 3 hvcurveto
        30 278 rlineto
        4 37 8 64 10 vvcurveto
        13 -5 8 -20 vhcurveto
        -6 hlineto
        -28 -7 -21 -29 -10 hvcurveto
        23 -18 -33 31 -57 hhcurveto
        -103 -77 -103 -163 -17 hvcurveto
        -132 -14 29 -138 112 hhcurveto
        24 73 rmoveto
        -69 -6 109 92 10 hvcurveto
        112 12 34 77 78 hhcurveto
        42 23 -23 -16 15 hvcurveto
        -3 -16 -3 -16 -2 -18 -18 -169 rcurveline
        -99 -29 -46 -33 -38 hhcurveto
        return
      </CharString>
      <CharString index="1">
        rmoveto
        -73 callsubr
        26 -164 -36 callgsubr
        16 hhcurveto
        17 hlineto
        25 13 7 10 1 hvcurveto
        4 -1 4 -1 5 vhcurveto
        -115 655 rlineto
        13 -2 -12 6 -24 hhcurveto
        -29 hlineto
        -23 -14 -6 -13 -5 hvcurveto
        -250 -655 rlineto
        -1 -5 -2 -4 -4 vvcurveto
        -10 -1 10 -7 26 hhcurveto
        139 252 rmoveto
        104 283 7 19 7 23 6 19 rlinecurve
        5 hlineto
        1 -19 2 -23 3 -19 44 -283 rcurveline
        return
      </CharString>
      <CharString index="2">
        24 15 5 13 9 hvcurveto
        68 95 10 10 11 vvcurveto
        10 -14 3 -28 -28 -19 -7 -19 -9 vhcurveto
        -39 -80 -10 -13 callsubr
        return
      </CharString>
      <CharString index="3">
        288 hlineto
        14 6 -72 callgsubr
        -4 9 -14 hhcurveto
        -225 hlineto
        26 244 rlineto
        202 hlineto
        13 7 -72 callgsubr
        -5 9 -13 hhcurveto
        -202 -6 callgsubr
        225 hlineto
        13 7 -72 callgsubr
        -5 9 -13 hhcurveto
        -288 2 callgsubr
        -68 -640 1 callsubr
        return
      </CharString>
      <CharString index="4">
        -92 callsubr
        -39 -366 rlineto
        -41 -25 -37 -29 -38 hhcurveto
        -47 -21 31 54 6 hvcurveto
        37 351 -70 callgsubr
        -10 -92 callsubr
        -39 -364 rlineto
        -90 -9 41 -55 83 hhcurveto
        50 49 28 47 35 hvcurveto
        -59 10 42 -12 30 -58 callsubr
        return
      </CharString>
      <CharString index="5">
        rmoveto
        19 hlineto
        10 9 1 12 8 hvcurveto
        46 74 32 -74 rlineto
        -9 4 11 -4 9 hhcurveto
        20 hlineto
        12 8 6 9 1 hvcurveto
        5 -2 6 -4 6 vhcurveto
        -37 88 rlineto
        15 -8 -12 7 -19 hhcurveto
        -16 hlineto
        -18 -16 -7 -15 -10 hvcurveto
        -58 -88 -2 -6 -4 -8 -1 -5 rlinecurve
        -7 6 -6 12 vhcurveto
        return
      </CharString>
      <CharString index="6">
        rmoveto
        29 12 9 13 40 callsubr
        -29 -12 -9 -13 -1 hvcurveto
        -5 -51 -42 callgsubr
        126 hmoveto
        28 13 9 13 -32 callsubr
        51 -19 callsubr
        -29 -12 -9 -13 -1 hvcurveto
        -5 -51 -42 callgsubr
        return
      </CharString>
      <CharString index="7">
        rmoveto
        61 59 38 77 8 hvcurveto
        10 1 -5 5 -12 hhcurveto
        -13 -2 -9 -16 -8 hvcurveto
        -28 -14 -28 -11 -40 hhcurveto
        -40 -26 11 28 -8 hvcurveto
        16 -5 0 9 -13 hhcurveto
        -12 -7 -5 -10 -1 hvcurveto
        -77 -8 51 -38 62 hhcurveto
        return
      </CharString>
      <CharString index="8">
        rmoveto
        12 hlineto
        27 11 callsubr
        49 460 2 22 0 22 -3 22 rlinecurve
        5 2 5 -21 6 -21 8 -21 rlinecurve
        191 -472 rlineto
        -10 4 11 -5 19 hhcurveto
        18 hlineto
        26 13 -23 callgsubr
        69 660 -19 callsubr
        -12 -3 callsubr
        -450 -2 -22 0 -22 3 -22 rlinecurve
        -5 -2 -5 21 -7 21 -8 21 rlinecurve
        -183 457 rlineto
        15 -6 -12 5 -19 hhcurveto
        -24 -8 callsubr
        -660 -42 callgsubr
        return
      </CharString>
      <CharString index="9">
        rmoveto
        -46 callsubr
        30 1 hvcurveto
        12 5 49 23 208 vhcurveto
        97 10 -40 59 -81 hhcurveto
        -49 -47 -28 -47 -34 hvcurveto
        32 -3 3 36 -25 hhcurveto
        -11 -47 -5 -18 -2 hvcurveto
        -1 -6 6 -38 -8 -82 -38 -353 rcurveline
        -14 -1 10 -8 26 hhcurveto
        11 hlineto
        27 12 16 callgsubr
        41 23 36 29 36 hhcurveto
        46 19 -33 -58 -6 hvcurveto
        -20 -194 rlineto
        -5 -45 -2 -19 -14 vvcurveto
        -83 -1 51 -16 34 hhcurveto
        40 25 15 40 12 39 callsubr
        return
      </CharString>
      <CharString index="10">
        -101 callsubr
        endchar
      </CharString>
      <CharString index="11">
        rmoveto
        5 callsubr
        -34 -326 rlineto
        -42 -35 -44 -28 -43 hhcurveto
        -57 -30 32 54 5 hvcurveto
        33 310 -60 callsubr
        -33 -318 rlineto
        -95 -10 51 -56 95 hhcurveto
        49 51 20 44 44 hvcurveto
        -158 -16 -37 -53 -90 -90 -52 33 -11 hhcurveto
        -3 -7 -6 -24 -2 hvcurveto
        -1 -4 -1 -14 -7 vvcurveto
        -21 1 71 -29 100 hhcurveto
        134 65 65 217 22 hvcurveto
        43 406 7 callsubr
        return
      </CharString>
      <CharString index="12">
        rmoveto
        135 64 53 95 10 hvcurveto
        8 78 -54 32 -74 12 -60 10 -63 0 6 53 5 42 35 21 46 2 100 4 62 70 11 98 4 36 -5 33 -11 27 2 2 rcurveline
        -2 14 15 0 25 hhcurveto
        14 7 8 20 2 hvcurveto
        1 13 rlineto
        19 1 -28 callsubr
        -150 hlineto
        4 -14 -15 2 -17 hhcurveto
        -109 -63 -72 -100 -11 hvcurveto
        -7 -69 20 -53 45 -28 -32 -23 -20 -31 -4 -40 -3 -31 8 -26 19 -16 -1 -2 rcurveline
        -50 -25 -35 -42 -6 -59 rrcurveto
        -92 -9 80 -32 92 hhcurveto
        56 462 rmoveto
        -51 -37 19 87 9 hvcurveto
        89 9 42 19 50 hhcurveto
        50 39 -19 -89 -9 hvcurveto
        -87 -9 -44 -19 -49 hhcurveto
        -42 -397 rmoveto
        -49 -63 11 64 7 hvcurveto
        4 40 27 25 30 15 61 -21 109 18 -8 -78 rrcurveto
        -48 -5 -38 -26 -75 hhcurveto
        endchar
      </CharString>
      <CharString index="13">
        9 callgsubr
        -38 -366 rlineto
        -45 -29 -36 -25 -36 hhcurveto
        -48 -23 33 58 6 hvcurveto
        36 345 rlineto
        -59 callsubr
        -37 -353 rlineto
        -95 -10 34 -62 88 hhcurveto
        49 45 22 50 38 hvcurveto
        -3 -32 rlineto
        -121 -13 -42 -52 -71 -80 -41 46 -12 hhcurveto
        -10 -6 -22 -18 -2 hvcurveto
        -8 1 -10 3 -8 vhcurveto
        -22 9 59 -31 76 hhcurveto
        129 65 78 200 21 hvcurveto
        return
      </CharString>
      <CharString index="14">
        297 hlineto
        13 6 9 21 3 -27 callsubr
        -13 hhcurveto
        -210 hlineto
        266 389 1 2 1 3 1 5 rlinecurve
        18 2 -7 34 -8 hhcurveto
        -282 hlineto
        -13 -6 -9 -21 -3 -8 callgsubr
        13 hhcurveto
        194 hlineto
        -267 -389 26 callsubr
        -4 46 callsubr
        -31 8 hhcurveto
        return
      </CharString>
      <CharString index="15">
        rmoveto
        134 77 81 131 96 -67 51 -71 40 hvcurveto
        -64 36 -39 38 57 vvcurveto
        88 73 21 55 33 36 -9 -13 29 vhcurveto
        -2 5 5 -3 4 hhcurveto
        12 17 50 13 4 -1 4 -5 3 hvcurveto
        19 -32 -63 11 -53 hhcurveto
        -123 -79 -82 -120 -97 75 -56 75 -44 hvcurveto
        49 -29 40 -34 -61 vvcurveto
        -81 -57 -34 -73 -45 -48 8 29 -38 vhcurveto
        2 -3 -4 3 -5 hhcurveto
        -14 -9 -35 -19 -15 3 -3 5 -4 hvcurveto
        -37 46 56 -7 64 hhcurveto
        return
      </CharString>
      <CharString index="16">
        rmoveto
        30 hlineto
        19 16 4 12 3 hvcurveto
        132 421 35 136 7 -136 44 -421 -4 callgsubr
        30 hlineto
        19 15 4 12 4 hvcurveto
        199 657 rlineto
        2 5 1 5 2 vvcurveto
        12 2 -11 7 -29 hhcurveto
        -11 hlineto
        -22 -16 -4 -12 -3 hvcurveto
        -126 -483 -31 -111 rlineto
        24 -1 49 -4 39 vhcurveto
        -47 481 rlineto
        13 -1 -15 4 -19 hhcurveto
        -20 hlineto
        -19 -14 -4 -13 -4 hvcurveto
        -144 -479 -11 -38 -10 -38 -11 -38 rlinecurve
        -1 29 1 34 -4 48 -41 483 rcurveline
        12 -1 -15 4 -22 hhcurveto
        -13 hlineto
        -29 -11 -7 -12 -2 hvcurveto
        -3 0 -4 1 -5 vhcurveto
        80 -657 rlineto
        19 callsubr
      </CharString>
      <CharString index="17">
        -82 callgsubr
        -18 -13 -11 -18 -10 -11 3 7 -12 vhcurveto
        17 -28 -27 8 -37 hhcurveto
        -125 -78 -97 -173 -18 hvcurveto
        -172 -18 57 -93 126 44 callgsubr
        86 -9 67 -27 46 rrcurveto
        57 6 25 35 48 vvcurveto
        -268 -481 rmoveto
        -71 -24 62 133 14 hvcurveto
        134 14 38 62 71 hhcurveto
        71 26 -63 -133 -14 hvcurveto
        -133 -14 -40 -62 -71 hhcurveto
        return
      </CharString>
      <CharString index="18">
        rmoveto
        -15 callgsubr
        hvcurveto
        5 10 13 31 hhcurveto
        20 17 -9 -18 hvcurveto
        -50 -62 -13 -29 vvcurveto
        -9 24 -8 9 vhcurveto
        return
      </CharString>
      <CharString index="19">
        389 hlineto
        13 7 10 24 27 callgsubr
        24 2 -5 10 -13 hhcurveto
        -301 hlineto
        378 559 rlineto
        1 3 1 4 5 vvcurveto
        21 2 -9 32 -9 hhcurveto
        -366 hlineto
        -13 -6 -10 -24 -3 hvcurveto
        -1 -8 rlineto
        -24 -2 4 -10 13 hhcurveto
        279 hlineto
        -380 -559 26 callsubr
        -5 46 callsubr
        -33 11 hhcurveto
        return
      </CharString>
      <CharString index="20">
        rmoveto
        85 75 57 92 9 hvcurveto
        9 84 -38 41 -73 35 -39 21 -31 26 5 50 rrcurveto
        40 5 33 21 37 42 24 -25 6 hhcurveto
        11 24 39 15 2 hvcurveto
        23 2 -55 20 -54 hhcurveto
        -84 -69 -57 -85 -9 hvcurveto
        -7 -75 34 -39 66 -31 52 -27 30 -28 -5 -50 rrcurveto
        -49 -5 -31 -24 -48 -56 -29 39 -8 hhcurveto
        -11 -27 -37 -14 -2 hvcurveto
        -22 -2 55 -40 77 hhcurveto
        return
      </CharString>
      <CharString index="21">
        rmoveto
        -6 hlineto
        -28 -7 -21 -29 -10 hvcurveto
        23 -18 -34 31 -54 hhcurveto
        -105 -77 -102 -164 -17 hvcurveto
        -130 -14 29 -133 113 hhcurveto
        44 46 21 61 35 hvcurveto
        -2 -15 rlineto
        -152 -16 -36 -55 -76 -76 -36 44 -11 hhcurveto
        -14 -7 -42 -13 6 hvcurveto
        -24 11 48 -37 84 hhcurveto
        118 67 73 221 23 hvcurveto
        45 422 rlineto
        13 -5 8 -20 vhcurveto
        -74 -158 rmoveto
        -18 -169 rlineto
        -98 -30 -49 -27 -32 hhcurveto
        -70 -7 96 98 10 hvcurveto
        110 12 32 79 81 hhcurveto
        40 24 3 callsubr
      </CharString>
</ttFont>
